<mxfile host="app.diagrams.net" agent="Mozilla/5.0 (Windows NT 10.0; Win64; x64) AppleWebKit/537.36 (KHTML, like Gecko) Chrome/140.0.0.0 Safari/537.36" version="28.2.3">
  <diagram name="Page-1" id="v96ChVXVP56NIxx1YF01">
    <mxGraphModel dx="846" dy="1559" grid="1" gridSize="10" guides="1" tooltips="1" connect="1" arrows="1" fold="1" page="1" pageScale="1" pageWidth="1700" pageHeight="1100" math="0" shadow="0">
      <root>
        <mxCell id="0" />
        <mxCell id="1" parent="0" />
        <mxCell id="GkFOlkLOOi3CAwtS6vA_-4" value="" style="shape=image;verticalLabelPosition=bottom;labelBackgroundColor=default;verticalAlign=top;aspect=fixed;imageAspect=0;image=data:image/png,iVBORw0KGgoAAAANSUhEUgAAAgAAAAHNCAIAAADnhFRaAAAQAElEQVR4Aey9B2Ac1bX/f+/MbF/1LlnuFTAuYBtM770kQOgtvZC8X/LS3z/lvbyEJKS8hHSSEDqE0EMLHQwGg3vvtmz1Lm3fKf/P7Mhr2ZaMTQCvpFmOrs7cOXPL9+58z7nn2kbZfJCfTQf5OcjmXXMXARcBFwEXgQ8JAUW4HxcBFwEXAReBEYnAQTsAeZCfEYmqO2kXgaGAgDvGEY/AQTuAEY+YC4CLgIuAi8AwQcB1AMNkId1puAi4CLgIHCwCrgM4WMSGjb07ERcBF4GRjsBBO4CDPAKQIx1gd/4uAi4CLgK5isBBO4BcnYg7LhcBFwEXAReBA0Ngl9VBOwDrID+7OnJ/uwi4CLgIuAjkFgIH7QBya/juaFwEXARcBFwE3isCrgN4r8i5z7kIDFUE3HG7CPQh4DqAPiDcXy4CLgIuAiMNAdcBjLQVd+frIuAi4CLQh4DrAPqAGDm/3Jm6CLgIuAg4CLgOwMHBLV0EXARcBEYcAq4DGHFL7k7YRcBFYKQisPe8XQewNyLutYuAi4CLwAhBwHUAI2Sh3Wm6CLgIuAjsjYDrAPZGxL12ERiuCLjzchHYCwHXAewFiHvpIuAi4CIwUhBwHcBIWWl3ni4CLgIuAnsh4DqAvQAZvpfuzFwEXARcBPZEwHUAe+LhXrkIuAi4CIwYBFwHMGKW2p2oi4CLwEhFYLB5uw5gMGTcehcBFwEXgWGOgOsAhvkCu9NzEXARcBEYDAHXAQyGjFvvIjBcEHDn4SIwCAKuAxgEGLfaRcBFwEVguCPgOoDhvsLu/FwEXARcBAZBwHUAgwAzfKrdmbgIuAi4CAyMgOsABsbFrXURcBFwERj2CLgOYNgvsTtBFwEXgZGKwLvN23UA74aQe99FwEXARWCYIuA6gGG6sO60XARcBFwE3g0B1wG8G0LufReBoYqAO24XgXdBwHUA7wKQe9tFwEXARWC4IuA6gOG6su68XARcBFwE3gUB1wG8C0BD97Y7chcBFwEXgf0j4DqA/ePj3nURcBFwERi2CLgOYNgurTsxFwEXgZGKwIHO23UAB4qUa+ci4CLgIjDMEHAdwDBbUHc6LgIuAi4CB4qA6wAOFCnXzkVgqCDgjtNF4AARcB3AAQLlmrkIuAi4CAw3BFwHMNxW1J2Pi4CLgIvAASLgOoADBGromLkjdRFwEXARODAEXAdwYDi5Vi4CLgIuAsMOAdcBDLsldSfkIuAiMFIRONh5uw7gYBFz7V0EXARcBIYJAq4DGCYL6U7DRcBFwEXgYBFwHcDBIubauwjkKgLuuFwEDhIB1wEcJGCuuYuAi4CLwHBBwHUAw2Ul3Xm4CLgIuAgcJAKuAzhIwHLX3B2Zi4CLgIvAwSHgOoCDw8u1dhFwEXARGDYIuA5g2CylOxEXAReBkYrAe5236wDeK3Lucy4CLgIuAkMcAdcBDPEFdIfvIuAi4CLwXhFwHcB7Rc59zkUgVxBwx+Ei8B4RcB3AewTOfcxFwEXARWCoI+A6gKG+gu74XQRGFAJQ1oCyGwRLiqzsrnW1gRAAyoGq3bqhg4A7UhcBFwEXgfeGgOsA3htu7lMuAi4ChwABxRIDyoEPpf/jB/7UcLV0HcBwXVl3XjmDgDTFvmKPjrdvL7Fr3Z8PDYH+zgD9Q+v3/evo322J79+/24T7vIuAi8AACGRJX5hC6LbIlHDEvlSEtY8I930cAEjFUrKy523gUkwpEMHGQCpO6t+xkZZAHF2xuN0nTo0UYl/BTIywDwiOsBm703UR+NAQsCleE5bXFoGCZN84s28UWT+B0lfl/toDgQy/2zUoe4gQgOiQPqVtccA/lhD7ygE/PXwMs1/H4TMldyYuAjmBgMP+RlgY+RkJCzOYEb/AGUD3SkogUhd7iCm45ci7TWPk3Hd4H5bvL4YiEFPYbqCv7NsNvDswNMiz+0r/9t+9laFvoQz9KbgzcBHIWQR4v/aS7FChLF3YuSBK9KxkDVylD4EsKXOdhckUfckfU2YV7h+QwP6WFJS6IhCUrBzQ88PIiG/nMJqNOxUXgZxCQOpCifWJTAjECfmFw2MHOFZeUuQAjYe9GVA4wkz7K1z2CWyOBsUjKK7sBwEQ3M9d91YOI+AObQggQJyaEEpEKJScAMP7QliasA97KbPCa5iVITCrD3mInOU6Qr+KMBVLILZu9elcOkKlI44PcPR9S4xpkFIzBYKSFYy55Qj6sBe+dsN+ju4EXQQOEQLsAOyoPxP7k+3hVMDkQNifOQnwCnQEf7C3KAJL5BCNOge7dQhaWsIWAb2bqmWqpvCYdokOkSn9fMN+piCF/ed/VMumftifRvYSpy8xMj7gNjIm6s7SReAQIJB9v1A0AdFz/AvpI5ZfWF7BJSX10H1GpISgFGFvEbLlIRh3jnVp7hoPym6B8YUwhTTt0jRMy0IM+0/3CEpLkTgKJwuEkhVLZCyA2LJ3Eqpl+wMp+kqx66NYu7Sc/P1+DYov2fvVlNuOi4CLQH8EFGFp0gpJM08YYWH6VcWnKZQeKb3C8lqmx9Q1Iy1Ng6cUT+aD1icWj/d/PdGRvpsj7ZcpTcTmemlmS0Mx06ppSfADQZv8LctAkmYaajdVoQU8vnBIC/iwSRkp3dLTZjpuJOLpOAYZkUKRCk5XsRV0McI+I/crNcIW2p3uoUHA5wupSsDQZSKRSqX0ZCqeNuKGkTBNHaqSiqVqktIw0pFoV3dPu2VZoj/1ox+agedSr1nSzwxKsWzqzqicAZhCmIowLWFIywBSJBTyq15Vt9KReGRn446O7g5LtfLygl6vFg6HiotLqiqrMo8LadmC7rRJiT6ixHUAI2q53cl+OAjwWiFCSplMxg0zraim16s4f97fEnFLRoMFAgnkyUCemhHFLsOkiRQhnMNhxcIzSEESIyOmJSG7zPgzhWIpSEYd/oVi2aSfKU1p2aKaprZLOAPgkno8gRQmolimjbbQK6uKC4uCHo80zJSiCj2ZjHR1tje1SJ3DA5ZFcACgGcIRdKC0n6cJiTr8RRn+U3Rn6CJwiBCwLCMS6TLMqOYx8wuCPp+KePwepLu7o7urp7sr0tke6WpPRnoNI60pMiCkT9gnBJqFG7DDf0XY5SGaQG50C+9nByKtrCoUYTrCJsBUTEvRTUW3pB6J9ySNuOqV3rAnbsSiejSaikSS0VgiqhspTWUVfJrU+je1u9ERprkOYIQtuDvdDwMBE0qyRerBfGkqMVOJd0fbE8lILJlIpkzd8Hi8RapaYpnlhl5mpCukWa0powL+UbrhNyyPbmiGAZkJQ/QjPEausKmwRbUL+4e6ESa7KEsCsjN1094peaTwKZZXmj5biejRqIhHzVhTtCXpSWkFXi3PkzRT0VSCAD+/qND5O8CWFIijOyUt4m8cQR/2ogz7GQ67CboTGlIISFNVhWkSrvp8nqKgvzLkHx3wVbS1eeob5OZN6TWrE2tWp9atSq1bnVi/ukexCjQtFAzkhfOKLKmmdSueSqbTOnOG7ymRkfbSmv2yMfC1ZfO9Q9ymyeGwYuqK8BWHRdAXl3p3Klrf2byxfuuby99ZuPLtbR07VmxdtXzrqp0dDd6iUH5ZsaEpG7Zu1qVIKyKtZgQlI1QC74iSkfZdGlGL6042BxCwSOv7hREWRqGpV3Q0Bdcsiy14pePuvy28+/Y377p90T23L73nb0vv+tvSe29ffM8dry9cuGbVqo0NjW2RSMyj+fwBfygU0nyqKQXSfz5Eqf0vh7fO3PtLJlo3DahftdkfKm+L927taFyxfdPCtUsXrlq8aP3y15a989zCl59a8NyTrz/zJOWCF1ZuXtcY6bD8vkBxUUoTuipSGUGxRVEMW2ycnb6GN6TO7FwH4ODgli4C7z8CFnE/YvqFmS/04t5OsXFd8l9Pr7n79hcb69W2tmA0UpxOl6dT5al0eRIlXfLgQ688+8I7S1fVbdneEYlI0/L7g+G8vDwpLSF1ITP/fpwwhX0wwMs7Is6BLSGyonJwa+q6pVuaktTMhEePefWYL7W2fsOKzSveWrXwlcUvL9m4pCXarOZLNV8jF6SGNE+eB+UfTz300DMPLVixIOVPpbREUkul1ZSu6KY0M2uv7EI1c5Wbxfs9Kr5D73eTbnsuAiMVgUyCQmRLYDBNKxJJKrKwuVE8+fjmJx5d3LgjpZplllGaSuebIs8bKEkaStpUy0dPPPHsY+ccf3Fvqvip55ffdf8LGzf0eGS+ZXpa29ssYVgiaSm9lojankAIolTaR0bAVgCaskVailfT0pmP9KpJxUgFRLfWu7Z5zYPP3rdkw5u9Zru/TI1rHVGlNWo2R/TWopI8ny9QU1N1zHFHTZs9cfWO5U+/+cRbG19rjNfFRFvM6Eyke72aKpJ6b2NrcSCsOr4AWEeGAOvImKg7SxeBDxcBCNqUikfLk2bexvVtC19fv3p1nRShivJREyYdnrZ83T3paMxKpMxguFBo/tbOyOp1pj9cNe2wEydPOdHrGbV+XefSd5oad/Z6tHxBKskevyn6wlX7YiT+mJYqOA2RlsXpSLylt3XFplWvvrMgkO8rKMsrKA8HCjRfnmp5jJSMClXX00k9nersat/ZsqN6QtWxp87Nq/SzUVi7bVVvslsJCE9AjcUiAZ+/pKi4t6t7pEHqOoCRtuLufD9EBCyvYpYmY6G1q+qWLF4RjUZG1ZaOHlc6dnwpMakvEEibhiUVU2i6qXW2R9etq2tu1FWZlx8arYny7Zt7Fry0bvOmaNBbbVpBYXltN4AnQATJH/uPxn+IkzlkXUlLOKJKaaTSHlVDDBheserqtm3cuL69o72ouLi6uor/ioqKCgoKVFUxTaGqaiwVSeixpo7GzVs3tXe1144ZVTWqqrOnfc36lZvqNqb0ZDAvqFvptNBRksnkIZvkIerYdQCHCHi322GNADGqPT9L6+6wGhuS69fVdfXEKivLpkytLSsPevxiwqTi8ZMmFhYXaV5/bySRSprJhNXZEV+5fOvGdV3tzalUMrR9W7SxQd+2KdLRLoQZNEyfLUTANvvz5iJ2JyPnxzRMwzA0TdVUNWUYumnW1dW1traWFJdwTFJUVMx/KIFAEPwt05KagOJTRrw32rutYeuipW8uWbXE1Iza8bXdsZ51G9dt37k9zTlCSIvEuw2hK5oE6JGDJzMdcd8h5uyKi8AHioDm8Tjtm7pmGqE1Kxsam7prx4w9Yub0cIEIhERPb3TL1raOtjZLF4loOj9cFPYXB/xFBaGKrtZ03daOLZvamhribAISkXAyUrB+TaeRCllGwDJ9wvJapiosRVp2JzbTKdCWrQ/7HyabNsxYLBmJR5hsY2NDc1NTJB4dO27s6NGj/X5/IpFI6yTWoqlUyhCGVNVIvCdhJrxhT2F5oRZQN27fgA9o6WymsqO3vb2nDcXjV3WZ7o51B4uC5kjBEvxscR2AjcKQ+HEHOSQQgKQMXSdDbZqmYYrOztS69XVpXYwaNSrg0X9kJgAAEABJREFU98aSojcm2ju7tmzZ0tPTY1kyFAzHo+l4zIhHLaQgv0yKQCIm4lHp95YmU/6mpkRzQzydVE3dK0yvInxSeCTBrTUSX17TslSPB67vjUZa2tuiiXgoGArl56X0dEdHeyOutrEpFo2lUumMJ+gtKi0kro+lo73x3s5IV8JIIt3xbsWn6NIgNdTU3hxLx4UmTM3w+j1ihB2xjMTv0JDgEXeQQwAByCIru4YL9SOGaeq6buj65k1bO9o7C0uKyyvLNJ8WiaU4+920cVs8lkylUpZlCsE7qGWS+15Kr8efSuqplO71BKUSSCWUxvqOttYI2WlDVxXFr2kBRfE4vcmR5wMUKT0eLZgX7urq2rFjBziUVVYEA0HLsiKRaGtra0NjQzqdxoZEUcpIefwefKVu6Ukj5Qv5C4rzESpNaaasdH1rY1tHq9Qk1J/Sk7FkLLOtotWRInz5RspU3Xm6CHyACDieINMB7G8awtIVYvaurmRXb7qwqKy4ND+Wikai0c6OyPa6Vq8nX1OCelr29sYCAV8g6MmIL5GIk8eA4gvySwzdk0xqyZQ3HhfplGA/wbGv16tZlmFZupC2WLY+UliL/IylKIqmeQN+dgBd3d1FJSVjxoyORCKGYcbjsXginkwmPR5PIBQK5oU8mtbDLWEIxab43mhPSse3pnpikYSRMqRhWGZXbxfOwHYJptnZ2ZlZwBwsPqghuQ7gg0LWbXf4IOCQ+77lHjMkloegTGmRRTBC/lBRuCrSI7qi3rLqqVLmtbaldFP4/MFly9eVl46XZoEi8oXgOFMm093JdHtSb6X0BFTdMKQmovFkNCYL82stI6SnfFu2NYXzA0ImuiMtupW02V+JCYRR7TGM4X6hSJL+UL/H70ulU9C9xabA/jM/bLlsz5sXzmMHgEvAj6oen+SsRAps8MhSUxLplCmF5vMaCtstJZpKdPR2x6JRfIa0RNAfkMMdv73mp+x17V66CLgIHDwCNvvv8xSJHW8qLQ3ObFWvpnkxMKVicopr+YXp5zhXChV3kWHzlJAI5J9WcAqqpuumKn2KGjJMD4kjIYQlTVPRbWMUAn+Rtqy0EHTNzZEiUu72eMwcNt//zG0bnLIUWLJ7wA3opgHCQqpS8VDJ43ZpKVKONPJn6sJ1ADYK7o+LwHtCwKaX/VGwNFN6jy5jUjM1n7AEopnCpn4xyKtH9Eo06vFoOgfHQkipGIaeTMZNxRBiz+4sBXciRthHURSpMHFhSUF0L6UUigJ7i0E/CpZCKFZGDNNKGzgCD+Z2vcVGoO95WkGoH1HiOoARtdzuZD9gBCAUuwdeK8TWOAy2LF1K+8+kmxK6kcLCB2j2vf4/liIt7irkqz2KqrIDMHTLIq2RVhRV83kI9i1CfgGDmTxnsZMQ7DDoBaFiZImNjKWzJbJkZuLsCpCMuv8Ch2pZlmkalmWZVt9n/48M77sj8dszvFfUnd0Hi4BD05R7d8OrhFDrlEJkbKS0KQqeMiyheb3RRKK1va2zg/86uzr6pLOto7O9o72tra21ledVTevu6Ojq6opEME9Qg/8QmSNfIUxYT0hVCo8ibeHuyBLVAgFTCiickgSa7Q8zEPT09LS0tLS2trZ3dfLpAN6urmgkUr9jZ2NjozBN0nA+jycejW7ZslU3+A+xf8l+n0xLI6jY9WUdQVMealN1x5ubCNj8/i6vj2WSrtAkCSCbtEQ02tPb2x2JdvVGOiMoSKQ70tsb6Y3CU/FEgrQPXMTBZjKRVkgYCTvpY9keRFiWYYiUYfNe5obIbBcsZxOQmwB9IKOS7KJsWOB/Gweb/TOxfywajcVAMRLjE7U/XPKrq7s7nUqZpplKkV3T4/F4KpUiw5YZXN/ygbkiVKnwO4N15t4IKfogGCGzdafpIvAhIACR0Av5BQFNc9iLwNRCpHU9bcR1I5I2omk9mdahJFugJMM0NZUdgod9QzyWiMWTKMS6NGK3Jp3AH7oziXntZg/A/TCG4SeqAA+577xsHNOZiF7XdcP+OL8SiQQ7qkAgoKpKIhHv7u7GB6iqZljSwKtaEict2EoAsCGBed+Wh3eN6wCG9/q6s3tfEbBp9yAaJM2csVZgc2EJjwbFa5pH8XoRzevxOh/N4/F5A8FgOD+vUFpKMplOJtL2g3baJymVtIUihE1Vdq0QUjcVnaNMMSI/7I2kJUzFNBRoW3CJeDWPx6NJn6b4PKpH0zwal5rHPmsJBYP5+fn4gEQiEYlEKPEheFaT/ZSJ5xUopinQ2GSJg1ziD3oFPuj2XQfwQSPstj/0EYAUHCGi75O9JmXudc0lFEO0btkntwlLkLIQqZT915DSqTSKoigYELfCR6WlJTCUV9VM3WhqbNETlqZ5YSShRIUaUTyJ7p5WqE5Pw2yBsspy6Um2tm+1RKKgoJCORpxIG21+EoqVUgyS+5phAJ3q8QifJ27pumVC7BA6ZXFxkebxGGldT6ZM3QgHQ/nhPJCXilZcWiakCuPn5RUoQo32RIsLi/ElIwpP1wGMqOV2J/vvIDDgyzJgZV8vpmURrQsBWdk1ikIeQlUUfqn2deaHbQBJ/3g81sv5QFdvpk7AShnFFDIl4Tgh8vNKU2m1qycRi8ZVzQoEPKapJ9IJshcZy5FWmEzYEoLpK8JUTZFIxGPJRDQjdmpNtxNspP5jsTgfAn+SPwmOWRxJ2Lhhz/EMdpJfqurX/N3u/w8AWF1xEXAR+HcQgFB4nDCTsr94PF5Ce4/Hp2l2aoL9ASkgEhTYQFWcBOAJDPIRQiiKgg+waAKGs6NUbzRmicxfH4vHDJ83LxQqSHOeEI/x7IgSCevvmnAmxifdT6Bv+4Nd1YKkPwcqqqoBo6qy0zIBFkeQNUAB8Gg8bqpWIhXv7u3iMpwfSiRHHJ77i1+AyRUXAReBgRAY7MVx6m365inL3E1XUnJ8qaiKysdDskIIYn8S016vFgqGfD4ftMWOQdMUHINULBNaE3aSW0qvKbw76zpUGczPK9fTmpFW8wuLdJOckkEvI0gkgEL7OEbLFABAYs3W+fH7A/5dn3DmHwIK5oXC4XAgEPTid1VNVRSv1+PHCvH7DWEk0nGhWkkz3dLRktSTBUX5WI4gMDNTVTKlW7gIuAgcGAJ9hwEDGXOLaqfcpZB/IPyEzMkGmQaEZUopiUxDoRBEZNO9EBhgHgoGi4sLvB6Rn+dXJZxmkLUwDMVIi0hvevGitSuWbvcohaYVJBEkTK+UqgEH8uRIEsvEB+iGAB+L3ZJh6qb9SZu6TvqeHRWu1JRCxZ2qmmmZlmFoihrw+UKBYEFePgctRiodiUYI/Hvi3R2RrrbO1hWrV7R2tejS8Aa9prLHZkIM948y3Cc4dOfnjjzHEVBElusF7xGy74AVXTcN09ShamJOqAo/gJWEZRC0XWI3ZbcgJTX23xy2LEtKaZhWKmUm4uaWzU0rV27vjRgBb4Gui3RaeD1BTfMJu2seGSkCLJZJATCUjuj8etf5A6au25aKong8qiH0aCKa0uOdka51m9avWruqK9JhihG2oxpp3553/Za4Bi4C/yYCUpH9WzDg/jQ//BZwkNL3wy/Epnh+OeI8pRDHSlNVacSEqTgRiCfTsUjSMLzLlq7ftrU5lRSmrqVSukfzeXxe56mRU4KVKu39EVPOeALI30LhEuGulLYfRUeUfjpnBTgAXDAOQPVoHr8nZaUtj4glY2vWr16zaW3aSFHJUyNKdoM1oqbtTtZF4MNBwOZ+0yYfQ7fPA+zg1bT6E9Mew8jsDCyrLw4lbW2ZUk8psbgS7bVWLt+0fk2dphYoitfQzVQqBZft8fhwv1AsAWHB8lC+aZpM1zQNLlGyIhV8ZyZDhJFl22RvWZa9BNgrippXkK96lUAoZGmivbezsa2pKx41M//ORNb+UCofVt/g+WF15fbjIjB8EbBMi6NdO84XAp20Pkykp9OqonK0COlEYzFFymDm/13FOTB3qdyNR4b6uXQqKfPzCxVVSKkKM6jJQssIhQOVDTujPV16SXGZYZo62e8+T8FzI0igb8MwLctq72hH4RIwg4EAoIGCqiiD+Vfu7BK5Y+f2cF6e5tOSekL4lKRiNcU6KDk/oJGRI64DGDlr7c70ECAQi8foNRgMlRSHOJhUVAXBVVA5mFg2CdkvpsNoUnqE5U3EdUUGfFpYkZk/QsrDktOFkegBgAX2t2wXYKmqYpqGothwAQnCXUrbIBPvK7LvFjaIqqqapmVKD6fBqXgiqdtHynhpRdMMkdlW8PyIkT50Rsx83Ym6CHywCGQZx+kmHosnU0nyFRAR3ISwD6C0BS0r0k5c8IiE7sWuf+KNbYH9j0DY/xOYaCyiKcLnUxQqhalIQ1WlJCfCMyNJmDMQwO9MGgeoaZ5UKk0ll4gET7n7oyoqlVnhhqNj7/f49WQ6HokbKUOxlIA3GPQFpWWnmBybEVK6DmCELLQ7zUODgK6nE/FEb29vR0ccNwBzEbmi7DMa3sTMHyuyMqVNRNSYQphC6lLoqXhEKobfqykSCypNCV1x15Z9GhsZFYDp8Wi6oasKWAkuLcDNBP5ZACD9rGQr8ZseRTXS6WQiYeE/0sKvan7VI9hQgW7WbgQoNnAjYJruFF0E3icEpE2++23LJA6FjNLwSzIZTyR8Pl9+fn7A70+lUs6DKBjYbAVhmZZTKaAeTiQzYpkqd8PhsD+gJVPRlpYGv0+pqS4vLilQVSsW78UZIJZI9z07Yn7B5uRsyOJYAGRZxPJk/0PhsAOAZe0CUwgsEZH5oDiiOikgTZXUm5YOuD2xgrzCcDAPr9Db3UP1iBLXAeTccrsDGk4IEP4HgoHS0tKiYkkOOpn5oOw7R9yGlKplSdPkJrkMNZGI9Ua6E0k79i8oDJcWFxYX5nu9qpB2UggHIKUlcEiYjxgBOoOQX9UM00RnB5BKGaZhAYC164OO7Lqyf7PlQqjEDXDNIhgpXY8lzETKq6h5/kBJXlGeP6yxRHZLGI4UcR3ASFlpd56HBAHCf04auzo6errgasvv8Xo9Xjho38FYpv3H202hWLgBqRrCisSi7V3t3ZFuqRgVFaU1NRVl5UX+gKQhSaEYGUXy2be14Vqjqgr7J2CE0BOJhGGI9vbO7u7u/vPFlTqX4GxaJv7BMAxd13EY1MD+6UTS1PVELGak9YDXV1JYCrIlRcU06zw4ckrXAYyctT4EM1VV1emVF2/Y8ZQdqGdmx0uE2Dno7BxNaVpKylQTJSW+trYdq1ct2bBuTSqRLigIFxUUJFNxIVNC2SXoMiXVpF0pU5SWSKf1JLF/NNqRSLconu7CYqO8QisuVv1eoQhs0pmus2PIXA33wpTCUhSg8WpeRZfJnlgqmmxvsV0At4SwE2ceQ6imUIXULFWVmp40jJQJ0Zu6oRiWHk8iRkJXUpYZM0TC8kl/vj9cHC7M9+driv0/iz+kKH7Yndtf3A+7z/32FwqFODFra2vDveOrsSWGCgaDONxS9YAAABAASURBVHkuNU0Lh8NetsGqahgGNeiu5CACrI6UkpiLBdV1nXXM+gAUR6gcUgLbIs6QdylW9g1S7ClrhOWmx++RmhlJtBUUW6VlcuaR1YWFor2tfu2qtS+/8GZlWfnsWdMnT6qurc0vKlUD4bTmjSmeiFB6LKVz/nFTp08fU11VGPQruk7ypycQ7Koeq5929vj5J4/KL44n0s1CSUB2imIJoQxNJB0M30vZ0d4+atTognChldAnlY8t9oQmTZz24iuv/vPpxzXVPPqww6ePnzCuoqYyvySk+pWUCddbulVcUDxtwpTxNWNmT50+rXZCgfDFG3utTj1kBo+fMf+isy8YN2p8W0O30H32Eft7GddQfSb79c2JCfBtjkQiRUVFNTU1nJv5/X6oLRaLbd26FR325x2D9BkrzMItKrvcT04i0NPTw8JB/awpLhxnYJomy0fJ8g0/4QvpTMowTEsKVVM0r5lXoB5z7ISjjx47dXJFRXnAoxmd7a0b1q1euXxxMh5TVaUov7C6omrcmDGTJ0yaMf3IuUfPXrLk1ZUrX9+wYcn27asMo33M2NDcY8bNP378/BPG1dSqQu0xREzYf1pFMe14VyUkFiPnYym+YKi5qaW9rWP2EbPPOemM8nCpoqtHz5w7bvS4pvqGhS+/uvj1RT2tnWEtMHPa9HNPO/vSCz86e/osxZB1m7cveOm1Ra+9uXHluvb69lRXYuroqSfPOenkY06aOXW6T3r1pC4MBZ86cuBkpkyYMlcEmoAjKFOpVHt7uzOsUCg0atSo8vLygoICSB9CgUSw8Xg87AyqqqrwFq7kGgKsFJzISsXjcdwACpeqqlI6yzrMSr6NTA321/W0mTZUKf3+QCCozpgxdu4x42fOGjV+QnFRoWqkulpb61oaG955c9WStzavWlq3bkXDkjc3v/HKqmf/ufDRfzy7cvmyDRuWNjWtN8zWqhp1xsyqM86cccaZs6prA0KJWGbKxs3yWYbP0gPC9I40wvJ5A4YlkzG9uqx6/tHzp4yfVhQunjRmclAJxDoTye50ga+obUf7krdW3H/ng7+4+Ve//+Ufn3jwnxtXbIq2xfK0ApFSjbjwWf7JtVNOnHvCuWecN3ncJI/qSadSpmVxpmLDO5J+cssBgDzMTkmeZ/To0YT8nZ2dHR0dvF2JRILNAXpTU9O2bdvq6uoaGhrq6+tR2B+4kmsI4LDZw2U40WCLgkfHJRQWFuK/Wd/hJ3xX+eoyO1030nraMi2Pqgb9Wl6eVVGpjR4Trq0JlhTLYCgRCMQK82GbiJnqikaau7sbEol20+j1edMYFxaI8grlsCNKj5mP5xh93AmTjpk/Yfr0CkXpMa2YkDohv2Volmn/9WAhtOGH5H5mBMJpwyovrwx4A9GeeL6/YNKYSRX55VpKRtvjRsS04oIy1pHwpjwV4fJxVeMn104eVzm+oqCqOFQK7+cpeaNLxsyYPPOCUy86/7SLpo09TKSknjCtzBmCGHkfJdemTOqAIfEisQOA8VVVLSsro+bFF1989tlnn3zyyX/+858PP/zwfffdd/vtt992220/+9nPfu5+PnQEfpH5/DLz+b/M51d7flasWLFp06Z0Oo3zHjt2bCAQYGXx2SzlEBey/0i/SXAMYCmxWEzXdY8qQwGfR1GFaRqptJ4iWR8VoiuclyqvUMdPDM+aWXHUUZVTp4UKippD+TuluiESf6erZ2F371u90bcjseUzZ5WceebhH/vYvCuvPPbKjx1/9KzqsiIhrJhlRYSSFIKulYKCUmlqetrUVC/+oN9QhrfKgYfsaO8MeEIWh7iRdLQrNr5izNjymqqCiuljpk+tOmz6uBlhma8mNJ8RyFeLmre09jRFW7e2t25t69rZXZVfM+ewuZecfcknL//kvCOOKw9VJzrTeky21LcV5hVWVlRYEnjBMOdYkTF9QJJzUyXP47B/c3MzueMJEyZs3779nnvu+etf/3r33Xf//e9/f/jhh//R74NXGCYyvKbxrW9963e/+x3eeufOneR/iP3ZAZAO+oC+x7nZrBQ6eX+fR/dpibxQuqJcqalRx0/wTZ0WuP2OL//2T1/4v1s/fcvPbvzGty/68n+e9anPHH/tdfNOO33iySePP/6EMcfOL5t6mFZeKi29O9bdJkVaWtCTolhKT2ePZUl/wMsZ2cjKWljK6NFj02nTMkReMC/oCUTbo1pKKfYVGlFzVGntMUfOv/yiq3/63z//1Y9/840vfftz133hnJPOO+eU8y89//JPXPXpqz5y7QWnXzznsHnVhbXlwQo17lFSmsfQaqvHeD3B3t5IW1tf2jk3v04fxKhyywFYlkXSgHmSAiLvD3E8//zzP/zhD7/2ta+tXr1648aNsElLS0s082F/0NvbywmBKx8+AkT0CB4aWif7gbA97y+rVq3Co/3lL3+5//77X3rppdbW1mAwyIENizvshZcqI6ZiCb/HqwpOhcnd92paTzgvVlGh1441Iom1im9Txaj2w2aK404unDHHM3ZSorSqs7wqWlwayy/sDgRTQqZNs8dIx410WjE9iuVRaFK3TFN4PCqHzGmjVwi8wrBH1J4gICJSKmwlPZoW9PtFykxFk2Ffnlf6/MJP9t9KSJ/lLwqUVJfWjhs18eT5p86cOqssr8KMWomupJb2FPqKCv3FfhFMR009bqkpLaAGfVoQhFM6u1XNkiZi9zcyfvii5tZEdV2H3gkVUQj5v/SlLz333HNTp05llCQTcAzEkviG2tpapyS57MqHj0A682GN8AH+zAd+7y+TJ09mydasWcMisg94/fXX8dwY4ODx65Q4ewzwGdkSZfiJqnoVSzV13TLS3Z1NsViLaXZpSndRsVFcoheVGaWVwhfqFVpbJLmto3NdKJz0+ROKElWUSG9PA8eaUjGI9BVLsf/sjylAzOtV/AHNstLd3Z3DD7H9z2hnfV1vd6ff51NNkeyJ+qWnPFQsokbA9OapIZGwFF0lR5SO6vGueFVJdVlhRUANKCkN8eh+nxkUcU+sNa5HDCtmeoQ35M9rb2kllPR6vdW11fvv/YO7e6hazi0HwJc7mUzW1tbC9ffee+8DDzygqiqswXkA1E/IWVJScuKJJ+IVfvvb32Lwve9975vf/OaFF1542GGHEQUTZnJEzHFxUVERFDOY0DhN0SDK/GPnT5kyZfr06bQwoMyYMeO4447DEoGz4DvDMAh4GVhW+neE9+Iug8G+fz2ESY/UQH/o+fn53d3dmFEzoNA4NqDBCSrToWtqIFyaHVD4AjFxmsrLy0NngnSEJejxzSZDzS0apBFaY5DYHJTwOG0yBUpApkHW4ogjjjj22GMvvvjiT37ykzfddNOll1569NFHY8BC7NixAxzGjx9fXFx81113/eY3v+ER/DoDAEBKeneGgftAHx5CyI84c4GyEWmo6bRVECoqLiwJB/KiPVEjnZKKpRsp3dJZI1WTXs3T0tTU3dlRVl7S3NhQUVYS8Hnqd9SZeto2FroUpmEapH3sliW10Ui0I5VOBIIBu2bY/5CaR9jrSF2YellZiTSNRCwa9vh8ukh09lSEigo9eUZPOh1JhzwhnxZWlYBpKOmU5VMDRsT06l7RI2SvOrpwUrFSocSCHBX4rIAq1Hg0xjdWqqoh0rFkDCylRTFSRMm1ieIDOjo6iBwJGOE+BNYrLS3FK1xxxRUcN3L6ePnll0+bNq2ysvLUU0+FnU85+ZRzzz33nHPOOf744ydOnAjBwTUDzov3DfbJCn3xXkFDbCoHtKeSprDHkme5fFdhPLNmzTr88MOPPPLI2bNnH7XrM2fOnJkzZ+JO5s2bN3v27CMOP6K8vJxmB2sQ9oS4Idlx48bRFC6KZmmcRgYUbGiZfkEGSzrCDIUH0RnF0UcfPWnSJO5yiT5Yv4PVMx5ybiwHJF5TU0Nf5513Hq4X3v/MZz7ziU984pprrrnxxhu/8pWv3HzzzWT/WQt8T1tbG3MMh8Pr1q0jI0QGj0vYH0jpCG9KyfpSDlNRdN00EEtS6oauqZqmegzdShuWqnptKHTLo3kLcQ+hvHTa6I1Gdu6si8UioVAAADWPkkjEkqmoZVq2WLgBQ9hUaA5TxPYzLaZsFhbm4z7BJBVPeDVNU1SpG0ZKV037dEQxFWnZirBgNls302bQEygMFuT7C9qbOtatWN/c0FZdUa1Jzef3WJYRT8VRwBl8DT2D7X6GMOxuAVNuzYk0MTTx6quvrly5EsZJJBLUnHzyyT//+c+vv/56+J3NGsfCBJidnZ18ASC1E048ATI6++yzzzjjDGJSIkoi0AFnZVkWPJ5Op/XMh8dhIhwAPLV4kA/d8YhKgGDw7vHlUqAwy9pfkABLNjQ0NDY24sM4ynYEr1ZfX9/Q0MBuhrFpHo2SCVIOKIyKCdI7feGEaITHaZAWBhTaZ15MnPDcEQaAUldXx4M8Tr/o1NAmG4sBO91PJVgxJB5kG4Efuuiiiy655JLTTz+9oqIiEAgAJ2kox2OxIni4Cy64APcDVjxSVlaGwVNPPbVs2TLApCkugZSV4hID5rifrofQLZNYXfaN19FJW+umSd4+nkymdFN6fdLjSxiGbgenfo8WYj/g84bKy6oLi0uxSBvW+o2bttXtiMYTadhLGCkjpXp2/RMFdiCcad8muIwyYgpwRTSPkk4n03pS9apawGNpIinMGDWqMBRhKjgJEMlgbwl2Y3mhcFFxcTg/nJZ6c0fThh3r6zt2Gl5D9yQtn5FW0pbUFU3xejXTsnRD52H3DAAQDpkQFcJlpIyJGaEJLskmQ+6UhmHA+9ylkqAS+oCS4A6SHkTKsBKBLbKfHQCkk0qlIB1apoSeUGiEHQBHCwMKd+mCBAgl4uCC0l+cSqdkkDAsbIv0Z2oomMFDwSjwOMOAN5mF89S+JXepxIwRopAvgsdpAQYfUBgnM6Jr3AbUTy8ICt6UYdAjvgHBOWFJs7R5UMJ8GQmYc/Qyd+7cY445howZzO5ASrM0zuYANmcYAIsPwCuTXsPAQW/btm1ZB8AAaJDWMMZvUR7UYHLc2NxzfLphMMeUZSTNlOJRkbRhGKYuNHCyuKmosqAoPxQOwGsQ3I7GnStWr9hat7k31tMd7Va9SmFh3i5qEyPrj/2IvT+JODFhQkolr7BAej2GR8EBRC1OyUVaEcRl0LfKbUuolgDciuLS0sIiVVN6Ij1pmY4kexs66jfWrzMDRlIm0iLuDbIZEHwbhWFKkwb27nF4X+fcDgByh46J8aEbmJ0MBmEm+RN4jUUqKCiA6+FNVVUxgFkgONiNRWK/jJMgB0LeGR9AzYDCs9TDOLSGAgchKJFBPlAVxnREj84jGFNDOaBA3LzdPIUxZv2FAJl26AcDdBL03IUDBhTu0gKdAgKYYImg8GxWMMgKLQMOjbNdoHEU7BEMiLgZKrzPJQ1ydz/4YDmgwOxk84nuTzjhhJNOOmn06NGQGsgzJIYKhvROswgmKXL0AAAQAElEQVRmCCk73DZZO+7SIG6DkSxcuLCrq4uhMhKEehaRFijRh5OYdpqGTI0gFlU0VUL7Pp8/GNCtVMpISM00ZNqUCV0khEzpIlpaHq6qLZswebQvRPYi1d7d3B3t7OxpV70ymOePxCN2NKtalkNRiv2VAS4iXMoRJaqUoUBA9WqReLQ3HuuM9Xan47oqU4oVTcUVv9e0bBJXTaGaikxayXiqtLikqrIyVOD3hDQC/4auHau2rOjVu0xvyvAahqqnzQTLxddS2A5AkSNpd5VzDgD+gln4TkNbpP4JJGEc0g4IFAN5cZdNAHyEDYIZNVwipCOmTp1K5oH0N7cGE94ebjmlIvsQoPEBJWuJPRTGJYICf2WFmgEFasuKMy9Gy8Fvb+YDR/NbiAEfFfA1tIigmIbJtxOhx4GthQAE+mJgCCghXO4lgz17IPWMFtd77LHHktwnKcdg8NPsSygZIQ6PoTJHNgGUCHEaOyrWjk0Aw+bAg8utW7fisEGSx6nkKUaLfiADGEI2pH2yQrDv8fs0nzeaiHVHIolUEpdgp3QUyzQtw0gR0VuWBXrBQLCiuiK/KK+wJJRXEuyJd+xsruuNdelWuqNrgD+fPgLZ3/kOABdfIUuIuJ4KFOYXV1UEivK7EzFTVXCxvoDfTOvCNDWpaIpiJdOjqmtmzp5RM7qmsCxfVxKd8VZke/PWiNGrBaUu0xwD0Kam4GAtSbtONyOjVHJtmnAK9MECQ17ZoJ7sB8QB0Tijrc18cA/EswTIGMOkPKgoCtzEDoCDU8dyPyVLjmQNaHxAcQwcS9M06QtxLp1b76HEByDMDhnscRgcn4egpPU0ngOB5Qez5xabD+6yP2B4jnD5fgmBPA5yzJgxbLMYNkSP0CPLxKYKoZJLtgIICozGirBQ8+fP50ESRLgKoFu/fj2rxqQYJ2NmeFyycCjDQBze7z8R3TIEMaUUkVhsR/3O5tb2SCxuEGmSvSYHZHqF6dVEQE8rfl9+dfWY6lE1o8fVevyenU31by95q6m9UWo0weGksD8WLyxiqyPtB4eH8BVyJm4IS5fCEwxEkvHVmzbUNdT3JmImZzA41XSSVxVCD3h9msKZQTrg99eOqR0zvlYLqC1djZvrNy5Z804k3aN6SfxwoqAbJns2ofKf0/qIKZVcmymRJoEho4JxoBhoBYWQHypEIAuYZfPmzSS4uzIf7sImyWSSKzLsEB9khCUtHIhIhYOl/RnCTXznHMnqKPt7Ztc9RpUVZyKGYeBm+HaafOPsX/bXbpf5Hr+ZO8ZMFndIycQRlD2M+l1Apj6fz6ngWUcIw/uLc/e9lXSN0yorLYPcgRo2ZzzV1dUsliPMlL6cfhkzg8Ft8wg7Bpw0pxG0QGpo586doIewUoimaYwHeCmHpbDIUpUJK9mld6xuWrOxY1Njb3NXtBOqEpYCAnz/pPSkU2wCzKLC4qrqqlHjRlthubpx7SurXt/UtjUljYJC+39YmElN8MLagqcZlnAdyKQMkjwKIAiPR0uJ5LqGNY+98vD61tXN0Z3RRG80FjENwzJ0xcK1qmT/u7o7Gpub/QF/7YRRvhJ/s966qnHN6u1r2jpaecVUxWPZi4H5gXT+ftsc6vZsHA/1GPboHxIhtCfbAJsTP55yyimrVq2ihhcpFotRYl1YWAhxQCKwKg4D+oCMqEQ4JiULRBCK2YBiv3JSYkBT6I4NlzSYFVrLCmbYwNq4GcwYHrfour9gMKBkbbgLQdMIQ0VHNI/GJdTJGLJCfVboBcZEUAL+APQKt2bv7qvAy5Ay9XQB+Xo8Hh7kkpJGmBolNrRDpyDJrYMSWmAK04+cTizPawOnU8PGi+5ox5kCSvYShSNiXAW3xo4diz1ooFPPkoEqfprLbCX1PD7URVoCEQT4JpMjckcM4Rdt6ZaljYvf7n5rVWqFv1Yec9rR/pBHcA5spVVhSdMQpuXze3p7u4WucLDZGYhtlQ3RinSr2t0e7dKIVE3MyBpJ6A+xW8/8DHXEDmj87HssxRR9IoQiqBGCb2Ak2d2q1K9PLl8XfbvR3HzMKUdPmDBBZqI600zHYr2gVlCUz9cvktFlvrm0c2mDt7kz3V1ZW9PbFfOqQVXxpo1BQ7EDGuGQNVJybeTwArSSTqdhMQ5+oRsoLDtIqAfKyF6iSCmpxIbXAWqDo6nhKW4diGD8rmb72uxb866NOAZ7Dd6pfH/LvbrgEmT+/S7wtTQCzvhm6BudBWKZUAYUbHg/6R0FuNDxSXggx5glQ2Fg3EJxSpRhKaY0DUVPeVKJUDIRjuu+FEEn8YRlc7qhSssyDEVKziHt6VvkOZSEpkd9KSTh0aEwaQlq7bv2D+8sYmt71ts1I+HH/toowEVmTQipp7VYwtejB6NGIEm6TNNURVEFaLJREMIw06hCmtRQ6ooe8yZivkRa0zNVmGoCzE1atWybEfbT903KnVmTL+7o6CBQhXHIG2zfvt1+VTJrOeAgVVWF97EhwiU8dyiGpwY07l/JgsNN/WuGgS4lL8Ye81CUviWWUqJnZQ+jA7jgQSJ31oX0GrghpHe4HOxRfANLA+mjsHfBkkcYw4D2g9UPaDxUKqXVn7XtUYOGR7MLVdNwn1KRZKitTOzpGFPuvX5CSIujTIWoFpQUSE+x2U2IvmUVI+zD99CZMe+vozglkNrIappX9UgbRxPUcL2CXzZoNngAyaVU0G1RpVSFLZkKFReQbdxpcySUOfc1gvfZAcDpvCHODoDgcT8rwZoRTrL2fCF4ih2Aqqof9A5gP+PJwVuSF2JPDwoXH+w44XEOdUlbAThQgzkLhNMdrB26YOEQLHkQ54F7xg30t6cd55IROsrwLpkm7AMmHs3D3G2asoRG1Z6hpxR97G7bmMIOXtkrWAJ7Ye31wjq3hzdse8/OhkXKvWo1VQVJj6opqo1exkbZbUOML/tdCiH7fTKo9qWVxAj77AFKLswdjiBghDXI+0M6W7Zs6erqwiuwotnh9Vs76fV6eQS6gV+wh6HWrVuHC8kaj3AFrIAO0qEECiCifA/Cg/jXTZs2sbtyNgFwOj6A9gcT7HHhGzZsaGtrI7PH5oxlfQ9dD5tHDHL9QuBBVehKJQCVTE1R7XfQvpCSAH8XmHZUyt2Bxb6JIRGt3cLANiO1llyZDY1pKopmWZJLxbIRtvGw7L2AYrIpEH0QYipHNIa7oLHhyYkfgkqyQJTQOkc3GzduXLZsWSwWG2xwiqJgDxPhCbDftm3b66+/zuOD2edO/Yc2Eof6+3e3b03/u/vRFyxY8Pbbb7PfAnbiemAfzJjlYAVxGGvWrMEfSyl5Ci8ymP0IqCfHYFimxUzZksFMcFBGH/QdNHnC4gnLskws95JBH9vLbtheggky8PQsuF/uwezSEv0QA3tNOh5X6TPD+w7c1rCu7YdJbswT1igvL4fB2QfALzAIjENQP9joCDMJLc3MhwDzpZdeuu+++wYzdutBAO6mPFjhbVFV9eWXX2Y5UOB3onsSboO1gz2BP+H/1q1bsaRTVpPFHcx+mNfbeZzsFE1HAyJVUdG1TImCUEmJQGGUWVFgK+5lStGfyrIWI0UBPUcyEwZYhHNeaf+laxCi1imFIh2dS0ThJ4Ne5rddKJI6xNb5cYwpR5TknAOA0InocQCQBafBOIAlS5Y0NDQMtiokInhVyP/gMFBWrljJI7iDwew/tPpcGMP7OFneEEgcTl+5ciVLwyXhPEH9YF2wjgT+5IvWrFnT09ODPcZUDmY/TOszVJVhKDjKlj597+namYp+dVYm7u9XIdgMIJZl37DrrRGas7bn3vdjin5gWpaztbJJHzCFsJnNlMIQkluWJU3LVhwMMzUgyRXiXFlmRu1r+wP/lSsd2DDlylgy4yC0JO9fVlYGoZeUlDh/tP8HP/jB3/72tzfeeIMUPwloQn7YBD4yTRNOoRKKIfa/6aabXnjxBRJB0E2msfehoC/aLy4urq+vZ4eB3t7eTvvoAwqjQqBIvlaYOSNwFGoYMEJlc3PzqFGjmCxx8YDiHHuAQE1NTSweI9bGmFQ+zx4SoWu8LKNatWrVN77xjaVLlzIwPLQzU8ZGlp/RAj5Lw0xJEN1111133303C8SWDrPGxkaUQzL4HOjU3D0GaAs6Mm3CotKyIB6TH37zi4gUsTIfBa0vaN3jPbWNLcwt7Glh5AlgIs68UWwxBWCpvGhBf8CyLPuepci+v9lrJ/0FHwsY0REuXLERABH7V+7/PJ75PPPMMwsXLmRDAOPDs+wVxowZQ4Loxz/+8c033/zcc8+x9nAQ34P3a0YwPkRfVFQ0ftcH4uOyapAP9IfPgNMZSXYMjIeaUCjELahcVVUU2jky8/8MmD3QZ+7cuTNnzhw7dmxxUTHsyRgYCUq2zQ9ZId5nAAgjefbZZ2+55ZYnnngCqDmewTFwl00b/qCurm758uUcw1xyySWsGG4AQHAPzJ2Jkwv6kIedG93BUEJkeF+IjC7sD/EpYmtCWJkMhqNTwuz9vz/UcInY1L/Lc1A54gQMswD21wHQsgBTKs7GyKY1LsGHaqvvA3i22D92Db9tD2rZv+1rjBFbc/wHFyNAbKSGxDTXr1//4osv3nHHHb/97W9/9KMfQfeOnH322f/1X/8F48AyEydOrKysZDpEnZTvi8BxkBeMX1tbW11dPS7zgbsHE5IksCEUj3/KDsA0TVgS9qRkZ7Nz504OtxHoctEgH1Ltq1evJoe+Zu2aHTt2QK8Mw2mWlh3Jtv8hKPgweiHMBwc4neEBO1sudmZE+vfff/+DDz74x12fP/zhDziD0lL7f+PDmHmQ1WEPgTLyxGF8p3Rmb4osiwmb+jPxap+BlH2vpLkn0YM/omR+nFZGbgn1I33zBzek70LpC/mB1YYRt+rcsE+AMyg7l26ZRcCGKXuRswpfe5IwBNHkYeDE11577emnn7733nv/9Kc/kRfimNEJqBk/qRUEfkR/X4TtBYcQOJgFCxa88sorb7311rLMB2VAIetN2EvXEB/DRogpGA+kyfgRhopTwUm0traylYEWBxTONnAV+AyiZqdBnqUpWj4kwmaL3kl/kclhwCwHwwB8OJ9V+Otf/4pvJuHz6KOPghKIOfbMgsHzFPsGHBhz56kRJ7vZStj7AOF+PlgEoPvBOsgcDwx2cyTWDw0HwMpAoNAoJAgnwiOcBJBxRghI4RpYhpMDiAbCJfB06Imn/n2hfZiLLmBtxkCDXJIKp9xXGBgpEVgPrmS0+ADsEegegQQZHuxJvWmaBPXYYDygEDLTPh3xCGY0wuNUomSFW/0Fs/6X+9cxPihh7wKqCG6JDRYjAXyWgxHSDue9+F0mQqfgzzaJbFVXVxeWQMeJDrMGgezIh6PCqzSgDDJXaSqC0JVH+gzgpt0XfXUD/7L3AewUEEUObDG8a0nlI31zBDOk78JJpPElRKEKhFShqMKukHZ6SKHkkl8o1CpoCJrsQ1JmPjw7QkQZEvOEWh0a2gAAEABJREFUT6FLOAha6S+QEQEyzAIT4RIgIxLNECUs/H7NC3+D0AUUhgPg64FODePZV+gUZsSMMWDDMFBUVYXKKdGp7OzsZDpYIrSG/YCCS4NAsceYZ3EYCI8ciPAIZjRO+X4JVM50wHnChAkkxECeHQyDJC2GJ2CCzBqI6JRpAhGWuENWBMeJgofAnvr3azxuOyMRAZv3d1FWf/0gsWCLgBzkQ8PTfBeaOT87qASBaEhDE3JCvvARXMNZLGEpvE8NESgUg59gK/B+TQjypWU6QqFEnEuUAWWwfiFBxo8wfqgcjoYrBzOmnp1HYWEh80Lo2nmEkrnzoCOYDSiYYTDgrfdcid+F7slZsdMCYYaEG2CQuCgWghIBGW7B9bgudJYD0ufAo6WlhXoQ4JH3PIAcedCO0w8mm8xCW5ljRop9p0BL7AJMxbT/1Zp9b/erIU5FWFbKftWu6iLwbyEwNBwA33sYBA5yBIIj3iTkJ70AxXDe2NPTQ0zKJdkGAlJIdjBUaIrHoVHezMFs+tfDWQSz1GDvcBwtELNTs6/gEhgnJe3jq6B7FIcKYU8e5xaPI86zKHgsDBxBzwocisCt9MuAedB5ZLCSjpxbtMkj6CiU75eAw5gxY2B8YOegmy6I95kRI2TM6EwWT4xgwNyd/zcna4EDcxYLn/E+Oub3a14fdDumVAxFSaumodhUL4RpqLqu2v/G5wfd9Uht38E5R2efa8PKOQcAj5NEhrzI7VDW1NQcdthhF1xwwX/8x39ceeWVp5xyChTvkCmWKOPHj4cc4UqHpnkKlsEf7Ado7CEjDKAtx6OgcJkV+s0KTWHPLSiPGJZ651lq9hXu0hR8jbHTMgqXVOIzKHmE1qhBQbBHUBxBzwo1zAjqxDfQCJf9Sy73EkYFF2fdAIrTlPPUXsbv4RJUAdxBgwViLnD9Rz/60Y997GNMjUnRHZ74qKOOuu2221588cVbbrnl8ccf51j4c5/7HFkgHsc1ogzYNaN9v8Y5YPv/ZqUT9TulSXZZCkdXLCUrov+H7ERGTKHolpKSMq7qSTXz7xILM+FJJLyJPUN+OKvveWAkPU1uGnF0LlHYQCCgRIn0KXv+SaG+Job/L1gLEfbWypQWYgnJSkhh/xsbUvYBwNk7Yl/sgte+NN1zeBuSXT82jrv0nPgNlUDrcBncN2XKFBj/qquuuvrqq2fNmnX++edDNziDuXPnEuPDJhjU19djOXr06FAoxFOkqgk59/8XjuBKemG2MBoKwoNc7l945TDgWcrBBCLjFqVjjI7CJUp/oTJ7SYNZwTIrWQNHod5ReHZA4S71jmtB4TL7CPq/L3gjmgUxMjwXX3wxFI+cffbZLAoemrvgf9qpp7FA06dPh+txlgyA3QBnBiwiJT6DHcO/P5IPvwWH9J3S6X0w3bnbr+T9UoSlsA+gUjU11czUcCFNit3CJbL72tXeFYFdSA5smIXXUSiRgU1Hci0g5tb0IQ5iZ0iZSP+0004766yzoI/Zs2eTUpgzZ86ZZ54J+5x44omQPilmMgz//Oc/33rrrVdfffUnP/nJueeeO23aNPiUUHSwWdEyTERYDT2h+7xwl8/hzcEeGbCex/eVAS0HrIRMeXzAW/up5Kn93M3ewkzKXXFQtvbfU1gOh77xxID80EMPff7zn//TH/8EkrhbSk6Dzzv/vJNOOomdAasjpWQdccY4adaLFWRd2J/9e6P4sJ+2ZObP6e9ZGopwJK0IxJACcSz3Gh8bBVVXPWmPL+nxpHy+tN+bDvpTQU33K6bmGPf3JU6NW7oIfGgI5JwDII8PU8DKlZWVcM3EiRNxCVAPZE0JLhANlVA/YSYyb968n/70p5w0QjecB6xevRqWgYCwHFDgelIWEBb8ixIKh9hMoAxo3L8SVu1/+b7ojOF9aYdGIFyEBimdoaJQ/35JU1MT2yy4fuXKlXfccceGDRs4o64ZVbNs2TJugSerNnXqVLpjFdgNsIJADbbk6HDeo0aNIpvHOQEGQ0gkuYWM9B8ztN4nQvD+OIIBxpSC5I/9y/6RlqIZiscWzaN7PYbXo/thf83wc8u2cH8ODQKmmwhygOfb6yi5UkIc0DdMMXPmTCiDdDOEsmnTJrLPOADYh4FCNPgAFNzAjh07LrzwwnvvvferX/3qs88+C+vBNfgM2AeDAQWWhCKxxKngLbDkckDLIVrJdN5VmHVWDmSarEtjY2NLSwvYEtF/97vfvfTSS1kUdgbkeWihvLwcl0Cb2OAMWEHGQMqIWwgulks2B+hDSxyuV02xl2im0Iw+ydyyUz272J/XyhGhWoK70i4V1dBUw6sYfru0FCr7Q4FLsPvqX+XqAyDgAEvp3ENBHH2QcnduzczwvjmI3UisfjfsPnRMOAAgroejyR5AKPAOAnHAO5ALkSb1JJRxDFSOGTOG2J/Lb33rWxw5/uAHPzjuuOPS6XRzc/NgAyf/QzsIXVByhMABMo8MZv/+1X+wLTEXBJdG+UH0BKGzJ4PxnaD+rrvu+vOf/8whMGcARx55JJVwPacyxP70jlulhPEpEaAGYQSFyyEkMPKAo5V71jpUPsi7ZNqk08dBmOwSC2XPVnZd2Umh/vquBNSuOvf3wSMA/sjBPzfsnxj0W3ioZg7FwxSOcKJLYgdGg33gDsgFokFhbBxFQnZQ0qOPPvqd73znpptuuvnmmx9++OG3334b9oHlsRlQCE6dxtln4FRaW1thLvQBjYdQJbgBCILyPg6bfRJCg1u2bAEuFPxlRUXF/PnzycWR/1m7di0nLiwHnri9vZ3FwkMT72OZFRDGBkHJVg4JxeZiKfYtSfrbsuswwFCEKWzZZ1KmoaYMBdENxRETY57NWmYOD3jarmAT0KdlWqNfu9b92QMBEHLEqe2vOzVueRAI5JwDgD5gHJiCrQA5h7q6OmgFNwDFwP7EmCirVq1asWIFyR/opqqqimNGTgJOPvnkuXPnsi2A/WEo/AR3s5KFhLtOpeMJiFKpwcFkDYao4lA/7I/yfk0h2xRKUVHR8uXLOctlgT7ykY+Qc+OIHgx/9rOfLVq0KBaLsS5vvvmmsyi46v5jwCVzToDgPPrXDyE9Q9PCkgqStoSleQypwOOGAqGbKJZiInawLzgYMPEICJdp1Ux4UylPIumNpbWEoSakSKn2H10Uir0J2P0CKjyUQYS+TJnRhLCQXXpflfurD4H9U/9uYPvMD+2vXO0952Ai/wPXwNFLly595ZVXoBJOAqB+cjV4BXI+RJcvvfQSPsCph3o4DyATDcvAQbA5DMVpgQM4/I7AXziGhoYGCItdBTY0SGvcooYyEongdQYUHMmQEHwkB+DMi+lnBwwITIoaEGCXQ0kUz/kt0TqJtQEFM2gaj4iADI8jKDxIyE9+n/QaBwDXXXfdggULOIwh+cYxL5Bu376dHdiDDz7ISBgGnptH6PH111+/7777OMXhqIBzAoY0hAQudgRGNoWCJA1Lh3lUTXg14Vc9YX/USOhKOq4nEulEMp3QUwk9mTAykkol0h6j15PqUru3dm3qSDeWVwXHVpeUhv0eIVXR9weBgFcIIS0l6wOEEJke+W0Luv3L/elDgAVAMhckdhBhij5v2o/Q7JqMjVsMjkA/vAY3+jDvQNCJRALiaGtrW7duHee6cAeJGg4eeU9I9P/P//wPJVRSW1tLUPnpT3/64osvJvV/1FFH4QagHjI8BMII5C6l5KlkMomCPWacGJO2prxgeH2Y0f6F6Z599tlnvdvnnHPOYUeFzwA3xFl6FBI4+FfcA2k39mHsBn7zm99ceuml6BzVADsIb968mU3A7373u1tvvRX80f/2t79xVIDD3rhxI36FRpwGh2xp5gf9qjSESMZine0djbFUty8o8stDwXJPoMLjr/D5Kj3eSo+vwhZvlUcp1+q6ti1cvXD9trVJPR70eb2W5TVVdReD7QkF7yNuRuB1nHqof2BD5/ZIKx2ud2aNjjj6HqWN4R4V7sXgCADW4DcPxR1Ns8MigkfOG19++WVY5pZbbrnnnnvgkdtuu+2BBx54/vnncQyJRIJQlEpSQOwATjjhhKuuuuqhhx5as2YNdM++wbIsPAE+gHAYbsIe8uK4mK1ASeaDgmRUu0AfosJ5OJ4PwSmS+xpQYG3qKQcUbmUFNwl0eF9ScKw/0CEosDwrAomjFBQU4E5YC9wza4El2zIwZ3+wePHiJ598kpX6+Mc//uUvfxlngA2bMx6ZNGnS2LFjaWoIibQIzG1RLDux47F0r5nwmzGvGfOISFGB4vUmo6nWxp5NW7pWb+hZub53+Zro8pWx5cvjy5cllq+IrXx7+8JF6954450F23duL8wrnjbxiOrSMZauEP7TuGn/ZVZrFyD2ywjjO5f4ACSrO4pb2gjA+4it8WMKwn9+u/KeELC/c+/pwQ/qIWJJkg/wBTQEcXD2uGTJkhdeeIFjXtLNCxcuhN8hfTgbPqqvrx89ejTc53A3FA8bwlCqqqLTguMDoCeSQpAaj+Bg+guWjvSvHFo6BM1MdV13Nk+4un2FfBe4YcPWal8h4ZYVmgIrcGMTwBpzSYlwCbYgs3Xr1t///vf//d//fccddzzxxBP/+te/8AHYsxUgdwfseFxGwskNA2OZcC34BpaADQQnBDQ1FAWy5jAYrolHe0wjoWp6MOwJ5Gmd0ba3Vrz56PMP3/evB+554b47X7zvjhfv+9vL993+8n1/ffm+u1944C9//8tzLz6zfcvWcVVj506fN+eIY2pKx1pJKXAoAwGBpxmo2q379xAgHYT8e20My6eVXJsVVEVoDweNGTNm3LhxcD30sX37dsJ8h1xgGZiF5A8sgwEKtIKgkMrnQUe8qmYZpipkXijESxUOBIvyC/KCIegJFkNQYKWscDlEBQfGdEjow9HsnPYVHCpCPaUjWGKfnTvAZkURUpqWMG3oKkrLwDDS3WPqOscGrAuP419B+9VXX+Xsl1wc7hnk+RbhdVg72mQw+ANKemRsVOJ4cDDYcEk5dIXwPFhc4C3Mi0szLo3WSPfqrZseefbJ+5587Nnlbzy17PV/Ll3w5NIFKE8ufx3515LXN23dlOiNTxk15bgZJ110ykemjjoipOR5ZFCamkXimhYtRWay/3xLcTNi1wcdca6yinM50ktLEUgfCspgrrTvPr/6G9s6j1Drio1AzmEBNyGWZRH+I8TslFAPhAJ9EEWShYBrMEBQOFpECgoKICYehKFwGAgEh2BDCziMrCQ/9M/Q6tA0DdXGWjNMs6OzQ0+nQTUcCk+ePJnsED6S6QAywAI+5M6+Cn5nVwHps1JU4gNYEUrO50n6s2SY8SCV7CHsL90Q/bGgaCWeNg0JOFoyJfIKyvPzikO+/IAnz6eEglpega+wKFBSGiitCJZVBMooj54y+9TZJ19wwgXzDzuhtmCcjGqJHjMZ1/GpOFpa3BcM3km5Ky2EAZf72ozQmv70jY7sHwjbYED8+ruQ/UG3wnwAABAASURBVDcxzO8OiM6hnDM84kSj0ApcT27nmGOOOfPMM2FzDifHjx9PgA+/k/ZBUGAcR2AZGCey65PWdU1VNY/H0A18QFZ4JCsQWVYfxgrTRJggpSPogwlweXAANm56PBaHuEEe98k5PDjD5nw58MRsvxAUw0gj6XRSUQRtsic7+eSTL7/88m9nPv/v//2/66+/nlXjWfYQa9eu5fEhJJYU/YTjWS0eJw8UVK1wulfzp/Pg9BOOOOnyky79yKwLL599yfVzLvvk3Mu/OP/am4655j/mXfP5Y6+67pSrz5p11lG188YXTAqm8pSEz0hZqURakVLsTmTbkNibAWkr7o+LwIeGQM45gO7ubtIFRJ0kEKqrq88999zvf//7pJvvvvvu22+/naNFXAJsQgSKQPpYwlDEm4gn84G+kN7ebksYAb/X51e9PsUXkAhKMhlPup/BEdANXdUUTbN0M6moJojBU+AsFUvzKKlUwjT1RCLGEkgp8wvC2Kf1tFQkrgL2nzt3Luz/pS996ZRTTrnssssuvPDCGTNmcPaL42GLNjXzjwV9aF/u97cjThuFUJLJtLA0YXr1pDTiIijyKvOqJ5ZPPmnaiWccdspZ008//8gzL5p97kdmnfuR2edeeNS5x044ZlLFtEpfJZJn5QVlwKN4PV6vbpk0COm/v4N0W8M/ZySDxG4XC9EhmcoPtcj1znIOFLIEZPm3bdtGdMnB76c+9akJEyYQ9XMJg1xxxRXf/e53cQwc/0JAnDHiBnAAMD9ZCDOta1LRFCEtMxwOtLU1qR7DFMnyyrBU47rVHQwL7to2mEmFxdF1nZaVof8BjX3FmRbTxDuiozjiWFLjCCclWUmlkj6/J21E8wu8JSVBQ4/qRrq4pEgYeioeS+tJIc2PXX7p0qWL77nnrtmzZ//yF7+44vKrSASxx7rmmms++9nPEu9D91yyISsvLz/77LNvvPHGWbNmUcM2whnAUClJxSDOaBVhInl5oWgsokqrpLBIsRRieY/is5JquiOpxbU8q6DQX+41AkZU6lHpMQNmzPLpPp8esCKWFRMiZfINVDzS0hTD/gIKSet2poJfGTHxDCbfahJEiGVfmSgsGZsGp9ytKPbTmcdGVAFwSGbKQIcIha9lhvfxqpl6CpnVFa5scSzt0r5yf0BgFzSouSGk+2EK0jvHH3/8tGnTIHcuiTdRiEMZI1HkvHnzOBymhsT0ihUrfvvb35J2gON4PULhMImfjo52jAPBAF6BLLZl4hEQYbGfpwlXBkdAw2fqem9vpL29pb29la2CaRh62iguLisoKELKSivywgU/veWn7Ml+9rOfVVfXlpSUFBWWlJdXkuWnYc6EN27cmJeXxz6MRQmHw5WVlfhstm5cYjCUJcsp2UkowlIUS9FMzWNoqiOQPASPoJgatxxRTfu8N/OkaUoko/YVu99ENGXXGYC04LY+C/fXngjYOO1Z0//K7H/h6oMhAIiD3To09eR/UqlUYWEh0eX06dMJz8nqQxzE+HgC+AgHcMIJJ1RUVBC9Hn744T//+c/ZDeAJqG/v6GhqbMQNUJ9K6X5fnml4knHVSIfNdL6ZKjTTYWF5hftODbq2SihUiIRDBZT5+ZB2BaUUno0btsdjhkcNpZKidtSEyy69esL4Kffd86BpinTK8Hh8OIDZs46eOHEyOzZIn/Vid8VSsnY4ABx2QUEBiztoz0PqBt+xAxmva+MikOMI5JwDgCygDF4wSKS0pNQwDI6F4Q7Lsgjq8QHUk2Qg9Y8zIMNAinny5MlkmceMGTNl8mS2Dul0avXq1YoqsSF0he411acqQVUJq0pAWPZfNMvxVTmEw2tva4v09uq64VFUj+ZRFSXWG92xo97rCVRW1Hq9/k2bN/7yl7+q39HY0xP52tf/c/u2HfX1jSxNKBhiy+X1arqud3Z2ptNpTozJ3eED2KtxosOkuKR0ZQ8EdmckCFod2eO+e/F+IGBv1N6PdoZbGznnACB6cseQOz5AN3SyybA/wX4oFELnLjq5BWgFG1YDD4E9kSp5oYkTJ2oeD9RTUJBXEA4m4z29PR0eVXg9MtLTkR/2WYYuhcm2WmQ+iiWQjOoWDgJmOOQtLAiBFYfn8Vi3FHphUbh2FDmcyhUrlpPEnz1rDke7LArHvC+9+BoHNprHg69lObgbjyVpiDViXbBhyVhHhEvyeLgE7o4o4cuWlcEmruz2AbtNeCrnXs7dozuEGqg44oyhv+7U7FX2N3B0p9zLbIRegkVuzbyrqwt+J4okscPRIrQCcbS0tEDr8AgOgPply5bhAMgnbNiwgXRQR0fHX/7yl29961tPPvXUjh07wqFwTVVlIt4bDnlqx5RNnDyquip/4qTy0WNLunsbhdA/pAkPxW6kGU9EdCMaS3R3dLZ098Ri8a5kqtcwUXrLK4pTqUQyGZ80ecKOndvvufeuVatWEPIH/BwXlxDm1223/2NpDjvsMKifLBDpO9Zu3bp1lKqqlpaWDkVUPuQxE5TA/k6nvJ/OJaXgVBNxbqAgju6WLgLvFQG+YO/10Q/mOUJFuCMWi7311lsLFixwiIOIEk8Ag+AAFi9e/MILL2zevBnHgM0xxxyzdOnSz33ucw8++OA3vvH1GUce2dzStnT5mrx839TDR592xtzzLzzhuJOmnXvB3FPOnCY97UJJCGF+MGMfBq2ajU1bDStWUhqorA7X1HqDYRFLtDc01dc37Zw4afTYcdVr1y9/5JEH2tobvF6lvaO5pbVpe93W+vodi95+87HHHnnyySfwwaSA8NbAwTqyXs8+++zChQt37txJgo7KIS+KNKVAnImoTDVzZiulwn9cmULJimMzUMmXELHvmBLFtDgW5jm7YsAfbJx6FCSrO8rIKZm7I86U++tOzV5lfwNHd8q9zEboZc45AJLF4XCYXMGSJUuef/554v28vLzq6mriSl4tHMCmTZuWL18Os+Aq2AFcddVVJ510ErfeeOONp57M7ADCoerKwupRZTNmTjrltGPOOW/+CSfPOPu8+aeddlRZRZ7L/vv9pptnnX3aZz573U9u+cGfbrv1d7//v+99/1vXXvex00+fN3lS9caNa2H8kpKCiZPGn3X2GTfceF3t6Jra2pri4sJA0Nfd3b18xfJXXnll1apV69evZ70QSP/tt99++eWXcQCs1367HgI3IX2ELxtj5asoJNStS2lJy5CWqQhTkRaV9l0pLCmkpljygF4xU+72KDw+iPRnrv76IObDvHr/COwFu+msy4cGyVDpaC+YDv2woYm6urrCwkJSCv/85z+/8pWvfOELX/jlL39JFPm73/3u+uuv/9rXvoZX4Ph31KhRn//854+afdQ999zzqU996t577yXVYJhmXjCsqDIa7SgtC5eUeFrbtxYWaH6fGYlGwoHgoZ9hbo9g67aNNaMqxoyp7upu6410jhtfO3PW4bF4tKWlJRgKktKB+ED+zTffvOLyK374wx8qqkJcT9qtoDAvHo8T71N57bXXnnvuuaeeeipr98gjj2zbtq2mBj9RzBl+bs9+4NHB6pkbipQqCvtRdp/SNIRpSKFrKmUqleiRIgXhC2F2dXeAki8YUjQv9mLXnzoj149kavoKS9qBf9+FEFZW21eR5q46FMS5yirO5QgpmTWSmSywIMIU9jkKbIZk6insGn4h/YyxtO2pdMVGoB9e9uWh/4EjCPnhd0reIiJ9QkjI/ac//ekDDzxAeoFTRw57g8Hg6tWrqf/Pr/7nY4891traSrxJitn+UyuxWDyWUBStvb2T+nRKj0bjra1dXR0xRfiEyLkpH3rQ+42gq6unvr6xtzdaVFRSXTWK96q7qzcaiUFUfl9eddXogvwSKdTaUWPOv+DCU0893e/DpyoxDg26ekW/j6qqLB+L0tvb64TM/W4OPVXu4mbFEvgBIUzTgmBMYn9NEP6nVaEriLQrNVVlyqapm4Z54FNlx/BuxubuMNZmMfPd7Ifd/f6zRkcGmCIvOJK94aBEifSrHPjZrMFIUfojlRNzJvY3TbO5uZksP1EnDALXR6PRhoaGzs5ObrEzgFMoEQIxiKayshKHwSuHMf6ju7uD966rXV+6ePMrLy59Z9HGl55f/NzTb3LZ02W4DmC/y6zMmD5bEaH2tkg6pVimp6Mj0tuTDgaLaqomNDd1NDd1JuLmjrrmSCR12ilnXXbplYsXL926dXsqqQeDYQH7IUCsKKwRxzasl9fr5Uh/v50OmZuwP9SvSKEIE7on7SOFrkpLtfAEpiYsVRpceryaouIizFQyztdS2B9eNMTW9v3ZtQ8wd/P7vkbZGnlgZln74afsgYApCOr3P0fs+wzMDMJm35X7i1c110AYNWqUx2P/UU422sXFxX6/H1pPp9NTpkw5/PDDIfpIJLJlyxayDTgA3i7HBzCLrq4uf8AfCoerqqunTT28sbFtxbINjzz09H13/ePeex564P7HF7z85vbtjQpvrhByV0An3M+eCHR09P7rX8//4ue//uH/3Pz97/3v//7Pj//8x79s3rTdMoXPG6qqqiksLL733vv/8ytf/+znvnDVldc88vBjK5avkoqcMGFCtiV4v6OjA7etqqrf72dBnVusl6MM2dKUwmZ/qB/SV4SuGAaKaumapSuWiS6F7tekR1WwMc20MN2v2pBd7REw8EGjkkM1dw4AoHv2ARz81tbWciTAQSKZHHYAjY2NBJUkFhxCwQFwiRBstrW1cQiZTuvBQCAaiXAOGQoF9WTKMgyv1xP0+fNDocLCovIS+48hOnN2fcCAS2wYentb20aOcdet37RhAzrkTjpuw8YN+FoeIaKPxWKqqtRUV0PonLuwXqUlpezPurq7WAjWxUnTjR07tqCggPVigVgmnsWecuhJJoSE0GFzjyoDXo9XMRPxHiuVlEYqz+8pLswvKszXpKGnYiKdNtJJ8kIeYaALYbJvwDcg6BkRQv4bQSh7LESM4A/TR/oA4G1G+i4G/tXf2NbfzX7gVoZnbc5hQboAsiCEDAQCMD7Uc9ZZZ3Hwy7ni/PnzDzvsMLYIhYWFUAluIBwOk//RNA3GGTNmTDgcUjUtPz+/pKigurL0jLNOvO6Gyz/xyWs//dkbrrnu0vnHH11Slv9vvXsH9B0Y2kZr1q4wTH3ChDEVlSUlJQVFReF4PLp+7dbZM2aUl5fu2LF92bIlUlrFJYX+gLetvSm/IJxKJ3ojvel0Gscwecrkiy666PLLL7/ppps+/vGPn3POOUceeSTrpSiKYRgs61BFB8rOSCqVSCXjeiphJhPpeASuJ9gP+bx+TYXiqY9FuvRE1NJTmT/XY7P/3lOmnb2rDvBaETZ/ZYxtJede3szIPsii/6zRkf33ZhsMiFI/JPffwnC/OyA6h3LSBQUFiUQC6ifwh+vPPffcr3zlK9/+9rd//etff/e734VWTj/9dNgkEongAyoqKurqdtbXN6iqh8CzoaFx/fp19fVNxFljCJlPAAAQAElEQVSBsHn4kbWnnn7UcSceecJJM045/agjptcGgkReyKGcYG73bZ500nGf/fz1P7r5+7/45Y+//f999bvf++bnPn/jWWfP2bFz87a6jYVF4W9+6ytLli665Zabb7nlJ++88864cWO8Xg1a9Pk8EyaMO++8c66++mp4n2XCE1x22WWUs2bNwivD/rj23J7+HqNj78J3bI8qYaYSsVQ8iq9LxmPxaC8OwOtR8kPBoM8L46ei0UhXZzIWNdgKGGk8ZSbgcL9ye6LoXuUMAjnnAIgWiespa2pqzjvvPOhj6tSpJBZWrlxJNvmss8664IIL2AdggHuYPftosj2rVq1eunTpQ/945Lprr50wfpyqybSe7O3t1jTp93stkeruaVNUyxeQupHIvJA5A38ODIQERXYUUNi69asTyR6Pz9A86XCeVl6RX1QSskRaSD0/P1xRUXLE9MNefPH5884/57LLLlm9eiV5HnZpHo+aXxA+/vjj4f1ZM2exOhzJFBQUQP2nnnoq/uCII45gS8cuIdvXUFMgcY6PcABxyD1t7wBi6bid8PFK6fepXo/0CMtIJpKRXj0ZNThDN9PUSA5PhtpUh/h47ZXqm8LuzRZEh/RVf4C/hlrTOQcK6X6Px0MyAQcA18+ZM4fkfjJp/wszEMrixYtLSkq+853vHDbtsLfeenvjho2XfPQS3AMO4L/+v/96/PHHyUUQimqqNnrUpE0bmiI9oqs91dYeSaZENJKUqocF4gtCeQB/6g6rYS4O+0tLOMJlOOj3eRRFSxkiUljsDRd4pGKYlg6nBwLepuam3/72txMnTtywYcNjjz0WCofeWrQQj9vS0kKwfM0113AUvHXb1tGjR7OH03W9vr6evRpegUQQGzvTdLAfAqgyHcuyFFIFlpFKpdhfBv2aqSc7WxrbmurjXR0+INOTHsUURjLe1WElYoqZ9msy5NNinW1dzY1sBUw9pQjOjU0BE2XFmb1z6ej9SkWRUrLF5QcF4RqRpilNy/6YmT8zhMYler9HR44KayGZ+ZLkQYRiIyxMtv6Z2kwBwpnf9rG9oziWdulcuyXA5RgIhmGoqhoMBmEchkbMyLtXVVXFOwF9ULI/IONfXFJcXl5eVV319jtvvf76a7/5za9LSooqqyp77E8kP7+4bnv7siWb777z4Yf+8cyTT7x0953/ePqZVxob2s3MlF32B9u9RLGvlUCgoLMjunHD1k0bt61YsfbVl19fsWxd3faGjZsapKXMnzf/tFPPeG3Ba1ddedWtv7m1rKyMh1RFZbHGjhlLyWLhsLdt24aTKCwo5MSY/QFmWcF+CApka+gGZ7yJgqCnyO8rDnqLA77igKfU70WK/N5Cn6fQoyAFXjXf48n3KkgevnQvVhL/xsdmrswq2W0owr60tZH6AxTIYLPHGQx2y63fjcB+ENxt9GFqhmGwAyDYh9+Li4sTiQQ+gCgSr8AtRVG4xSaA7P+o2spx42p/+7tf1dSU33DDdSeddPyMI2cVF1UVFZR3tqe6O9Mb1+189uk33nxjxauvLP7XMwsWvbmqualbWO4/Bz34elpac0PvKy8uve/uJx+49+knH3/18UdefuuNtR2tqWPnHR2Lxp966tknnnjy5JNO/cc/Hv7cZ7/w9qLFmuo1DCJlrbCwWNPs03gpJRs4QtTmlmY+rBobuKwM3nfO3WEKzIVhKVJBT6ZTqUS8t7Ex1rAj0rCzNyORxh0oPfU7unZs66zb2lm3W7q3b22v2yotO0ynHUdozRUXgdxBIOccAG8aXB8KhQjz8QSwf29vb0dHB5XZW+3t7Z2dncT6kWjPZz/76YrK8p/e8uMrr7zmiSeeUCSGfsMw9XR6/PjxkyZP4PixpLi4kk1EVVV5eWlmqyiklTtLkFsjiceTmzZtWfTWmnfe2vrqK2tWrFjX2dbp8fhXrlgFqoAJkZHe2bRpE0pDQwMxPhmSaDQaj8dJ30H3o0aN4rTGqWTThrfGMeC5KVmb3JrtgY1GKpLvnqHreiqxYcXizSuXbF6x1JFNGWXTirc3Lnt7/ZKMLH17PWLr76xbutgif2a537YDA/oDtHI3TAODm3MOAOqH7nfu3Am5kEyorKjEE5BGgGjwBJScLm7ZsmXJkiV12+sWLlzIVuC22/70ve99b/OWjccff4KuG9jE41F/0Dz+pBlXXn3++ReecPV1F1x/48VnnXtsMCQUy3Tm7PqAgb4R5qja0slTRx177ISzzjnsnHMOP/HEGeMnVuYVaNU1VSzNtGnTLrjgAvAn3f/oo4/eeOONuq7jiSF6lmzNmjU7duzASZDwIRcEaY4bN47d24oVK9555x0uh5ADcEarGzrs77guwzRjkZ71K5ZtWPHOhhVvZ8olG9FXvr1p1bIta1ZsX78S2bZ2VcPmtTs2rNmyZum6lUukaTg5aDL7AwF+4HXO1xZ7FARFiJGYBWLujmQQsDO6XDr6gCV3EecWSlacmpFeAkduQUD2n3QBAf7GjRvfeOONuh11DqGMqhlFRggGISm0bt064k1VUxOJ1I03fOJzn7upsrL6maefWbN2jZBGOOwrLAoqmlFemT99xqT5x8+eNXvaUXMOnzFzSjjfK+QHlRzMLRzf22ik6fUpxxx79A03XvPZz338yqsuvfSyi4+dP6eqorSzvQ2KR4juyc4R4P/5z3+ePXs2XgF+RHDbL7/88rPPPrt+/Xp0tl9sutgQbN++/cknn8Q3cDDA1uG9jevQPoV7U1VFVRTL0C0zgUgzIcy4NKPowkxII0GNacQQxYpJK6lYcWElpZm2LJ4+0B1A5rxYOKUzZVuXgiMrxHYkWca3lZx7eZ0xu+UQQiDnvkO6rkMxnPRu3rz54Ycf/vvf/07wSMKBhDIu4fXXX4dNFixYQJa5oqymIL/k2GNPeOH5V46aPecLX/iink6WlRds37EpbfT6A1oyFbesdFl5SX5BWErLHyBbnRZiUAdguVt1Ibq6u9hUTZkyBZavqqqcNGlSVXU1X2gYcNasWRzt+ny+2tra7373u3D9I488AsWDm+O2V65c+cILLzz++ONPPfUUjM8yYfPcc8+xXWtpaSnJfGhqyImhGyrhhqalTT1tJtJmDElZ8bSJ2Ho6U2PIpCmTlLskYciUVIRi/yke++egNgF8TWH/IYfVBz9gG5h+b7FzuZ9u+xs4ulPu55ERdCvnHEB3d3dpaeno0aNJ+ED3d95553333ff000+/9tprlPfff//tt98O7+AS0ryMpvmNb3zrwQcfmjRxyuzZRweCga3btvj8Km/ahAkT4rFEQ0OrkZbJhFG/szXSm1LVgB1GDbK+EFn2Djo57uzlvgp3sUFQ9r27bw2W+1bup4a4kZYRlP2YHdQtWsPeKVEGFI/mywsXpVPKurXbdmxvTcRNj+a3TIFX2LBxw6K33lJV4JUk3+6++27cM/kffDa7NBwDWbu33377xRdffOCBB37wgx/853/+5/e///077riDnRw2hYWF7BsG7DTHKw3TUFT7FIN0DlsAR6jUMzsCLtNC16WhC8tQhCEFxE1JzI44U7Ms07I/UI9Tsb+Sp2jBsWDvwKWju+WeCAAmsmfd7qu9mM38gLf+uzseWtpeMB36wfOaRKNRAkaPx0PICHE8//zzf/jDH376058+9NBDK1euJI0wZswYTgWi0d54jFRQPJH5b/Xq1S3NLSXFpckErsFau3rrsiUb77/nsRtvuOmHP/jNbX944Ftf/0lnW9qy/8EuOrGl/2zt68xPIBAgqoUlEcbAe581oyYr8CDUjKBQmbXRNA0qpIbcN3xHkzRCm0wEruR8Aq5Mp9PUMHRssOSSsqCggH0P9lzSCGOgZQSFSgwQunMuMaApLLnFCLl0hK7ZP1HDLSyxocwKg6R32mxtbeXBrFDfJ5ZSWFC+bu32V19avGl9y4Z1zW+8tmLZkvXxmJGIp3p7ekjuM+x//etfb731Fs54w4YNTIEGmRqemynQDhu1uro6tgJMn1FhUFNTg1NH4e5QEUBj8JrqNXTLo/m6u6Kd7b0eLSCFz+cPe3yhlCETKWlYamFppSm8acujCzVtqbrw+PIKDemNm1LgO6WaydQrFlxOwtpO3WQwQEEyav+Ch5xLFNPRCHflLs39bSMAMIitCTK6iHD/fwAZNA6+UA7+kQ/vCVgskUjAOCR8oP6mpiY4C4KDcXAAvKIc/Ho0TyqdgmRHjx7F4QGWXq+/tKS8o71zzRoOCzb2dMdaWzq3bK7vaIvFo0bmbRx4CqbZ960ioaFpGpdO7zTrKHgm9iWQHcJdGBlBYTwoTqPQXFdXF/qoUaNwYDAyz7a3t2MG6XOJAbzMI0yBjmBJblHSJo3H43EUZgqJM0EEBRyYIKLrOjU0yBkJPlLXdZ6lKW4hjIFbNEJHhNtc4izpMSuMiqYoqaEcUDZt2vLsMy/848FHn3vuZXJr//znM4vfWR6N2qswevQYJkJQ/7Of/YzuJk+e/OabbzIdxsAlc2E8TIQuGCQjZCIMBgNK6jHA/QzYaY5XSkkCyOvzBeD9Cy+98rSzP3r+pdd+5qb//OQXvnLtJ7943sVXXnz5ddd88vNXf+Kmaz5505Wf/Py5H73izIs/dsb5Hz3tnAuFojI7iw1ARtDfVfgWZqP+/m7gXR8c/gYO1zvzREccfY8STkOyVcCJTomgOGLansNRR3bZH6mcQwI2h1z8fj+hJfQBY0Jq0CuMDEGTlKA+lU6oqiwszK+uri4oLFCkptj/K5h2yzKE1AsK8yZOGs8xQHFxQWVVaeZlHHSaeJe97kG+9M45Zzgcpndy32w+xmY+kB1jQCA7RGUQ0o7T4Dj4Hb6D/pqbm7u7u9PpNHehSEqmwyW3YFKeYiLhcBiypqRr7qKPGzdu4sSJtEwXCE/RIArCYLBk1o4UFxdD5ZA+h64IcDFggKJxHAnGxN006wiNSynpkX5phMly6YhjQKCJ0t3duWPHNjzrjh3b165bvXzZqtVr1qLTcntHq6ppZ5555rx587Zs2bJ169azzz6bR7KCg0RnCoT8hx12GOfAlZX2H+JiMG2Zf66VIWEw5IS5sxwMPhgu1EKlMq9C5pXLvIpA2Whvyai0ryi/eqJWWO0pqrbLwmpfySglvzIdLE17QkJ6FGl/MQ5w1lnqR0Gcp7KKcznSS3gf6UPBdL63fVcD/upvbOs8MqDdSKzMOQcg5e63paqqikNI6ObUU0+96aabrrzyyqOPPpqwGg5lrUhHTJ8+nTNGMhJ//vOfv/a1r82dMxfSqaqsMi191uzDzzv/1BtuvPxTn7rmo5ecc9U1l1x5xUXTZ0zZv+e3Mht1mJQunHce2oU0Hdne7wONQs0IBnArgi4zDAtTEIPDyzgDxCFrh8RpGTOcAZZ4FMxwFTxLiVcgWOYpFDwHvdMFwoOYwa0IdE93DBKFltExgJ64xAyFcRJu0wUd0SZET40jjjEl0NE4xih7izTBXAdABAAAEABJREFU7eRTjznzrBNPPnXe2eecfM55xx87/4hxk0ZtqW/E/4XDoeXLl+/YsQPwGdVLL71EF3QNXAweup86derxxx9/3nnnffGLX7z++usvvPBC1g5XzZAYP2Z79zgUrsEKxJim5g8kpUfNK00owS1NXc296a6UgmgFFa0xozVqS3vUMP2FaW8eNgnLY0rFzv0MhWm6YxyBCOScA4AcIS9IkMUYPXr0ySeffNWVV11zzTWf+MQnbrjhhquuuuojH/kIjgE2gYYIe1944bntdVt31te9/vprC15/7Z3Fb/Osz6dG4i21Y4qOnjfl8CNrJ04qmztv8px507ZvWyMVQxKSQcByt6ehL6S4uJiSHUZRURFEyTDGjhmL13H+SctzzjmHYTAAai6//PKzzjrrtNNOg+zmzJkDFULK0ITf76cFdgkMm6dOPPFEnpo/f35NTQ18TWxO3gbGJEYOhUL4Nu6ecsop0OUVV1zB7K677jp07GfPnj1+3HhIB+6mQaiHRzjWnjVrlvPIzJkzAQcWZpzY4AAYPNRvGMa0adMY2/nnn3/GGWcce+yxNMV+Av7FH2BMmzSImZT9pg8girQU1VINocROPf2oGz596YUXn3zuxSde94mPnHnOMXkF6pSJ1T3dka7OLob3+9//npPexx9//NFHH2VUtAlWIIBvPuaYY5gREMH7gABEjOSEE05g/LA/+yExRD4gBlwICivLJiatJ33BQGFFjQwWlddO9OSXplX7WgsXd8WNUEm1LaV2KX35KeGjLKkcbQgNH7BLBCkdALD4GUTkrnsoiGOVVZzLkV5ydoL0oaAIgfRdDPyrv7Gtv5v9wK0Mz9qcw4KXDaRhUhgN4oBE5h83H77DMRBKw4CQL5WEzzgActwPPfzQ0qVLCZkxUFV7Oj6/p7ikOJGIeTxqPB7r6OyAIk3DNC14T6fx/Yi1aweAKbwWDAWhAKgTgovH43gddCklhAvZQeJQsz/z/yzjLr1Ac9DuUUcdxeDxQ9SYplleXk4NvEySikecFmgfl4CZU8OpLHOhF+qZJqxaVV3FBwN4k5EQfZNzx5Ggq6pKboccC8ki2mQwTs6HBnlwypQpPAgaiqIwHkJyPA3eghoGw9wZvzNN9Kzsoh2B//N4NVxLaXlZRXk5D5ZXlvkDXrYm0PcR048g7dPQ0IDnw8OxBDTLmEGJJcPfwPusGkNlFsioUaMYJ/s2Bobn27ff7AByWek/bI8vUNfQ2NLeaSqeaDwRTSR7bUmblhpLpNo7uhqamls6ejq6ekxLySsocRi//+yyUPev7K/zJc4yvmK9K731f3S46/3pGx3Z/4xtA+Dc18j9i8F9mAyITt+9Q/IL2oKnCJbhDkiT6BUegV4hR7gJwqWSuJK7CI7hc5/93Ec/8lEY9tTTTiX2rK6u6urs3LRpc2XFOL+3tGFnd0tTJNpjtrXGCOBqqiYI+zth2okgOxs4wBThx/61DIb89apVq1599VVyTU888cT9999/xx133H777XfddRdR8MKFCxkeHMG+AYKGsnfu3On8lainnnoKeww41CU9ws6AudA4B6TwKVQO7+O9MMbymWeeefLJJ0mqrF27FqqlHc4a2FvgMOBWdJ7dsmXLI4888tBDD/HI9u3bSa1ArHSKjwEcqPbII4+EiwnMH3744QceeOCee+7BDMcAjLgQ5kLvIMxoUZipI+gZMYWl6Wmts80AtM6OVEdboqmhp701pSc1buF1lixeQuNk3l5//XUQwNmwUjgAvBQTpHf8Dd0xL/wf/hJfRT2VDACfDVCZjoZeAXSKJVQhmcWKZcuWvrNo+9bNK5YtXbkcWbZi2ZLFb7+1+J233nln0dvvLFq2dPHWLZtSyXhhYV5mqqYQjmSu3MJFIGcQyDkHACUBDpQH3cB6lJALlEoNpAmt8CpCnbAhge3cuXMj0chbi966/777X3j+BaiNN40dQElx6cI3lt11x4P//b1bfvmz237zq7/94Pu/+P3vbn99wTvvvmEUAlKDuWDSWDRG7wTydO3QGYxMWM2oEIbESPBJCMPmEYJcuH79+vXNzc0YwM4MiZpt27YxBcdD0Dj2UDZRNpE78TvP0g7PUjJBLLds2UI+x+mLZiEdWJV812uvvcZTDIn22TEwQu7C5oyQUSFcYsaDtI8LAcl33nmH3nmcrQYDxphKeqTsL6TFFEkhg/7Cum1Ni95csWrFpmVL17/y8ltLFq/q7IyCW3Nba1FpCduO559//vTTT//yl7/MMNgB0A79sljsz9iRABQ7AwbJ8JgdI8FF4QZQMMN4yIkDWmbYyoIFC39z629v+fHPfvWLX/3ghz//7x/+5Af/+9Mf/u9PvvbV733nv370ox/+/Jaf//pnt/z8zr/d9cJLr2zatMkONTJPusWHhUA/X7s7yIPokPd/CEO9xZwDBY6AueB3kg/wWktLC7Et1MkOgBiWV5Eo8qijZ82dd/SmTRveWbwI0vnjH/5ImMwmQFElBoapx+LxUTW1DfVtHW2J7VvblyzdumJF/Y5t7WUV1baBMChNy7JfzsxXhEuEuJvlhBzpFy7G0/gDfsJbBsNdxgARU4kwJMYDlWMM05EOQuFxmJfBQ+VwXyQSoaRB6levXs2zjNzn9UGa0CJdUI8x1AzX0whdYA+J0ywcyuO4EFqmHpfAFoH9ByMhuIZk6Q5XwawhVp5yGqQRmqW1uro6+oKaVVVlIijMgmZ5ivFQIjSLvjtBYdp/UhGW9wVCL7z02l//euezz7zw9qIl997z4CsvL+xo66HBSRPH0z5jA+p77733Rz/6UUNDAw6GWeOWaBOhdyzZiwAXLocRMl8UslK4PQzodIiKKdgDKD5foKKkuqk7Vr+jozcttjb2dkRFc5cRSYpYQvQmRTQh0imlpalLT5sTp0y1hLCk2V+c6Ts1jt6/xJYvGKuDglgWVyYK0OGhnXK3osj+z44YHdZCMtNlQ4+QJ7Nf5H7Uz027hl9IP2MsbXsqXbER2AWNrefET0dHx44dO6A5mKukpKSqsgriaGpqogbG5AWA5mCZrVu24hsIzMlyXHX1VTAOyn333gv7hIIhy9J31u/w+pTx48dMmTr5hBPmH3PMjKraimQyyndE2G/ygU6W948e6Qjio0dK+BSahnZRYF7GSSUll1hiD9UychSIGwaE5UmVcGpKEmn9hvU01b9v2uFZ3ACPwPjYkyCCZ4nWmQszpR2r3wcqp1MIF0rlWYaEK6JBuH7jxo1LliyhUwZADU1hAGLYc5dBUslltkRxRDq/hDBNa2d9XXd3R1NT9zvvrHr22Xe6ujo1TVFUBZZvbmlhdZ577rlFixbh5Ni+kAozTZPRRiIRnCI9KopCye6E9WKoPMXsgIWJYIPxrq6G0u/dw5am5tFqRtcGhVZSWVlUUVlQXlFYWlGQX+r3BD3eoOoPenzBdNJUVQ++wlDMviBjNxm9+8R5J3E1jp20YCxHdcu9ELBx2quq36XZT3fVQREAxEHvHZIbRIvQHSSIG4AyGANhL2RHRAnpwLzwCzS3YeMGf8APD15zzTVkGFLp1KWXXsqxJDVwENQ/c/bYj1159n985eP/7ys3fubzV3z68x+74OLjJk+rloohhSqlLYJYABH2B2Z0BK60r3f9QM0Io0KI4vFG0BnRN1QIlcN96DA1z3JJsoXBkyThIPSCCy6gRIegN2/ezFNwIiwJHe9q2/4NLzNN+BGFWfM4qRIOUZks9U4NBEQ9JUJrlGyGaBnXglPkQTBh2DgD2J9LjBkSZowZcPBMDJIB2/0JwVDFwB+Qs4qKwudecNqXv3LDf3z5+i/cdPE111568inHhEIew0h5PN5jjjnmkksuARCyQOwz7r77bpaGoTIqdgPbtm6jU+7SI7zPTOmL8ZATIxnC9AfudijUAilUbinWtsZta7asTQl9W/3Wlq6mlu7mlq7m5p629nSsIxXritmStNJpoXdFe7bt2Eb0jmO15WB8wFCAxB3jcEAg5xwAmR84BbpcuXIlSY8Fry8g0uS8d/z48QS2EC6nmm+8/kZnR+e4seOmTJ7CEevll1/+nf/vO8UlxRyKbq+rMww9ndbTeqKgyFdVXVhYHMgv9JZX5lMmU73Ookl25o72biXUTBjLyfNJJ5101llnnZH5nHnmmTie884774gjjsA/wXQIDgBO3Lp1K8TN+BHGfOyxx1500UWcTs+bNw/WhhzxYQTm2W6J+vEr0CWVCA4MM2zYAdAgTUE9/eWCCy5gJLQMWwPR4sWLwQfCNQyDMcDFtMaYcQC4BFrjpIS+8A34HhRH4GVHoSQLlAXDtCzDTE2ZMv600086/fSTL7zo3DPOPGXy1PHSaxUWF3d1dr3xxhucUTNOUlK/+c1vOBBmc0Mv1MDv/3zyn3A9XTNgRoL7ceqXLVvGU5ylM2Z6HHLCdHaN2dQ0UTumIpgvK6oKSsvyS8vCSElpaNqE0VMnjp46xZbxE2prR1eFw75kMr7rwQP6nQ38D8jaNToIBNw/9jMwWDnnABz6gMvgrJdffvkf//jHCy+8sHTpUmJh0s2PZz5vv/02mWUmZJjGySeffOuvb7355puLCovIFBUTweblqQpJCwU3wKtrmgaW4VC4tLQEqmLCCDX4AHgwK9RkhaccIZ5VMh9N0+BTDLhCZx8AR0PQjgFuiRrInUj86aefJtWDG4DvoG/cAI/gugjqSfLgS+BEnqJ9f+ZvOFN5zjnnXH311WdmPscddxx7HdohoGYPRMtAQb/0jquA6Ank6+vribij0SjTOfzww/GOdARu3EWcR9hGTJ06dfr06RAxTZEdwkPQDmYMm/EwcS6zgg+wRQomwtiS6RRmnT3dHr8vL5w3qmbUmjWbxo4bNyPzwav94Q9/YBPApNhzsFKMAXuc8Z/+9Ke33nprxYoVrAWdvv7666wYWSN0psBksz0OPcVSFCHOO/vUa6648Etf+MRXv/y5mz53w5e/+On//s43//M/Pv+db3/t61/+0hc+88lPXH/N5z/z8asuv+Ss006ec9Qsxf7zP8xVEbv2mlwgpN32FbueZeCXENJykz9ioA+L4Ihzs7/u1OxV9jdwdKfcy2yEXoJFbs0crieAJYxFoNGXXnrpwQcfJNj8/e9/T8b5scceg02IKDu7OpF33n7npz/5aXtHO6esv7711ytWroTXGurr8woLDEttaerZvq2luzPZWN+xaeNO9N6e5MHOlmFAmgSwr7zyyrPPPsumxJG77777iSeeIAYnsibUhdNTqRS8zGkElL1mzRq8FwHyM888w9ggR/i6oqKCvA3+A5pmGBjzLDqUzbMoDB5vQbqGhAlzZK/T29uLC+GWTcrJJEQPyb722msQa2ND48SJE+fPn08MTgs0iyUGPIIrIvCnL9h/3bp1JKbIFNEFA0Noii4YwIBSXFQmLC2VsjRvYFTNWJ83pJvSowUqq4qbGhtJOkH64PCzn/2M8r//+3ByM0MAABAASURBVL+3bNlCxp82mR2kT3bugQce+Otf/3r77bf/9a9/5WCGJVu+fDkzpWuAGrDToVNplhWFDps45vijZp48f87J8+fa5XFzTj123pwjDps3Y/pxs2ceN2f2jKlTp4wdXRbO81oWPC5g8j3Zf//zVSyb/R0b3k/nktKpcUsXgfcRAb5g72Nr70NT0AShIuEqhAWtEF0uWLAAvoNMcQarVq0isqaew2FN1Qg2X3jxhTvvsP978YUXTcMO9tvbO0pLKjdvbH744Rd++cu/3nLLbTf/7+//53u//sOtf3/umYWW9JDJtf9+vsp7ZgppZgcN/zqSrUGBOqFUiBU3gALJMkIYFqZGCKWrqqoYLRSPD4Cpm5ub2aygVFdXE4ZDzTgAImIiZZJFRMoYswmgRFC4i0d55JFHSKqgONsdKJW+MKAvmsJ50A7tgwykTzvUrFm7Bl+IJWPGDGNGiwFjw4aOAJC9Ar4EY3YbjBYbWsOGfjHeW4DCUjZurHvt1Xee+9crby5c+uLzCx78+2OPPvzM6wsWTZ48rbGlmaPsaLT3qquu+H9f/tJJJ53wkY9cxFo4c4fc6QIfgLN0XBQukwwVHoJOGTOulFns3emQulZN0bhlc7Kj1ZOKqfGYEo8olLE4pd7VKSIRLZkOGCJsyZAlRTzaurNegfqRITXN3B4sL6wjzjD7607NXmV/A0d3yr3MRuhlzjmAo446qrCwsLOzE+qHsMiZQF5wFvkQkt0wF6EuBqNHjw4EAzt21MM+Pb09oWCoo7ODFDzLSPZn7dr1ZaU1pu5taujYumXH9m0N9TtbDUOdNPFwy5SWZZgC4rIwzgrXWb2/QncIY2AkEDo0B7GSh4Hf4TVomtw3QuZk5syZV1xxxdy5c8nh4DaIeRFGzrME++wVYHBCcjpiXtRDiGR1aJMaHAxTw53QIDOiHp0HYXYeoX1a4BF02sEVkUvB8TAARoUZxowKT0DXY8eOnTBhAlMg8Cf05kHGTF+MkMCfvmgTwWBACQXzNm/a/tijT97xt7v/+tc7//nEM/X1zeXlVQtee/2YuXMuuviCO++880+3/enhhx6+9dZb6XHMmDG4HKbmDIARMiSWj7kj9E5f7BsYIcPGIQ3Yac5WQuOIHSVIUxGmx9KLhDZK9dWaWnlUL48hqcposjKaqEkbtYY1TigTVW1qKH9yuLBM8WqJdGYHsPf85N4V7vV7QGD/PL4Xs5n2Ir6HTgZ7ZLjU7wXToZ/WokWLCCTJX0OCUCHRKwKPwDUwCywD10ybdnhLS9vmTVthz0Q8QX0ymawor0gm00xg8tTDDN3atm17aWnxsSfMOe304447efZFl5xz5JFTm1qbMBBsyTO/bGdg+wPbE8CMkFSmWkCXdG0YBn1ROo4Hh8RIGAY1WMJuPAL5QnCUEDf0CkdXVlZCiFAzQ6IeMxT4mnw97EzAjoJHgZQxZjfDjoEG0WFJLNlhECzTI3RJ+wyAlk8//XRcC+l3cmIQLiSLGfU0wtwZM6NlzIytpqaG82qeIue+bds2moX3aQpjGqdlRkt3+BueGlBwXfF4DPuGhvbmpk4m1dtL0TVuXG1rW/Mzzzy1vW4rWZ1bf3MrZwAkeTZv2QgyupHKywsBC+cNNA4ClCwWfcXjcZ7v7e1lWVmvATvNwUpLCsSUJmKxNxK6aul+3az254cberUVO/LWNoxu7C3ZsNO/ZkvZpu3etWt8a9eEV68Lr96cWrRS2VyfH9FLPCGPYf8rS9LqV2Zmq5iKLZYgt5OVAb1Fxtwt+iNg2n+qyqlgaRBBRAeVOeLcEMLi0tGxzyiOpV1mLt0iS4W5AwXcAWVAi5AglEGgPXv27BNOOAESPP/88znzhFkWLFiwefNm+O7EE0+87LLLLrzwwo989CNXXnXliSeepCie9raOotLik0458YILz7rs8gs+ctm5199w+ccuv/DcC886/YyTCP8hVsu0kP6zhjSzlxAWl3ArDA6BQpoosC10BtVCkVAeUTn+AFbFOUHH2HNJ5EsqnGMAHBhEb1kWT7FfgZ2JyjEjBMYH0D7GcCJ+AgP8AbeoyQ5gL4Up09T48ePPPvtsdMChBdwAwb4zHuxBg07J/OByNm7YyPkB2RjyTgyJQTJy6JiNC4/TKV6KRwaUwsL8004/+dvf/tr//epH//ujb3/5K1886eQT8gsCza1NiUQMTBhtNBKNx+I0m9bTgFNUXJCfl8+BPMjk5+dz/MBR9llnncWSzZs3jzMDMMSYMej6u/xbTAMOKRcq4RJ7B2DqW99YtO6FBeufeG7T359cefsDK27/+6a/3r/y9nvX/O3e1Xfcu/pv9y7/231rH3xizZPPr3v9zY3Ll0PuuTD+YTIGm7v7sbl9ue/MMmu1u9qxp0Sytaa7IXCwACxHyZWSMBmygKcgGqjkxBNPvOSSS6688sovfvGL3/3ud7/5zW/ecMMNkCmUCiEee+yxEM3cOXPh3OlHHDFmzOhEwo43YaVkujeQp5SW5ReX5hWXhP1BJRHvbGtvZp6WYNa2mFIg1CCWZe8DUGBSeAqWJHxG4ZL4/YgjjsAJnXHGGTihyy+/nDEg11577YUXXsgxLAYwI/TK2S+ci47TOu20004++WQeoeQSosdnbNq0CfeGb2Ca+AxmQY/9he6yl+iO4AtxGwyGxNdHP/pRAHEkGo1yusC5CAouBPIlxEZKSkuOOeaYG2+88erMB/TOOeccclOMkwbxWNijZDvqU4iYpOn1iTFjyydPGVddUzJ2XPXMWYdNnzGporJUVWyr8gr7/9ZZVlZSUJjnD3g1TTF0IxwKA3hXZxftH3300awI+xU6BSL6ByKOowGTfhmk3cqQ/eH74hFpLdqt7KwXG7d41273r92ird+ibt7qWb/Ft3aLf80237rtctM2X2trvpUqCQd5JAfDrCG7ApmBw/tIRhXCzEjfxcC/+hvbOo8MbDgCazOvdS7NG/aEi2H/ioqKWbNmHX/c8aeccgpuAHIh4CW0/AgnjxddRDajra2NgwGcQWFRIeE8boMHKZOJdCY+jWtemZfvD4W8VdVlRUVhr0+xDDtHtJ/p0gJ3oTMEnSDd6/WiMyryG/C11+ulnl66urooIXEia0VRcBhQKvZLly7lFJQtAgEvj/AgrAf1c9i7fv16IndSW9TzIDZMAS5G53E8BF3TCOVeggPgKJVmmS/2DAAyxZdQSZ6HYXAeMGXKFPpiVIwBBzNmzBh2HsBIVM4I6YJhwMIoOBLqaSQr/bsrKAxVVZeXlhVoKvdTJSX5o2sqS0uLKqsqLcuE5VesWMb2i5GrikraKhKN8DiTbW1rpVPcHtuU+fPncyLCYuH8WDvWkXNpoGOoGA9dIZwvLy0qzs8rUD1h3Sz3eiu1QLnHX6r6S73+Up+vwuOr0Lz5plnk9VWWlBSPquSRoTtfd+TDHoGccwDxeByGgqegDAL8GTNnkK/gEhIkp4FCPQE1uSDYBFb96le/fted9zz11DMLFixcs3odx5WEwKZlRWPRrvaOt99c9MJzz7/44osbNtipajhosBWFlNl2cBcKTiQSNG5ZVnNz8wMPPPDwww8/+eST//rXv+6666777rvvwQcfpOb111+n5pVXXlm3bh0kizHPQosI41y+fDmP8OxLL720cOFCLDmgJi3jcDQ0jUvA5o033mDHQI8MjBrGgC+B3J3WaDAr5I7oiMw+6S9ae/rpp19++WW2BdhD9CBG+6+++urjjz/+xBNPPProo84/WXr33XczAFL2zz333IYNG9ijQP14GuxBMts43fWJaXV2djCFaE+vaRh+ry8WiTY3NzU2NTU2NEqp4AKJ8b9w0xe+eNMXTzv9NBaoqLDIH/Bv276ttraWbQfxPvjTPrNgbKNqRsH+c+bM4Sk2Pdkec1XhdXDEGeDeoaIplaaWltb2to5Yb8xItcd6O/RYj9BjqpnyazGP6BHpbj0R1VNdkd62zo5YextHCO8eojq9ueUBIsBWFekz7r9efVV7/+pvbOs8srfJiL3OOSwIYOEmqLC0tJRNQElJCVwM+8MvxLAokAtRP0IKiNzC448//uvMh4RDdU2NlFYyFe9sb123avtjjz75f7/8w80/+vP//fLWW376y7vuvPfNhYv2v9LwIHTsz3zQGUxG7SuIcEePHk0eBoV2iKwRgl/om1Eh0CtBMSVD5RY1sVgskUgwIy7z8/O5i06NI9x1Inp2AOT0aZPeKfcS3AbCg3gaHCSjAR+eRXcEnXbojq5ph9YYACWg9W+KpzDADHvqmaAj6FlJJozly1Y9/vjTjz/21D33/P3uu+5/4olnNqzdIC3BTqiouKi2dswF51+ADyb5w9yZFyglk6lQMHTmmWeyEWEKtN/Z2cmBcBsMaJok6HDbOCpGm+0ot5WB3wuyhEmhyIKwWlmari7tKS/oqsjrrAx3V+S1lgbaSkPtpaHO4pA6plqWFyX9noSxtwvJ7Vnn/Oj60zc6sv8h2wYDLqUi7Fv7f3hE3B0QnUM5cyiJyBGugcgoIU2ID5bhErrBGXAJkUGIlMhf/nL717/+TVwA+feGhh0dHa1jx40hX19aUmCkPbGo8HqEYvmb6rvbmiJ54aLBErI0C3MhTB6KhCgRaBRidYT9AVE2KRcCeQR7h8R5BGFsCDkWonIEY0aID2OEzALuY14IjcPLzMURqJxeqNxLaJAaSkcYD08hjIfdA2jQ5n4CanqHlCkR2jlQsdOjSjhcsnLFpof+8QTbnheee/XFF1/fWdeWFy4aPXqsaRrvLFrxz3/+89lnn3362SfvuPOOt956q6amSlWlZQrmS+qJvhieM2uG2tLSwiVuj3UEhAEnyyNDRdgB1EycPPGY4yacfXr1eadVXHpmyWVnl116dsnHzi66+LTCi04r+MipxRedUnrGiQVzZoXHjPcWlRoy516xoYK2O84PAYGc+3bCHQTU+ABYD4FkIT4iShgN+oAxudXW78NWgGQ0LDNmbC3Un0zGN2/e+NprrwVDfg4qp04bfc45p1566UfmzJkxafK4I2dMP5D9OH1B1pCs3++ndASdBAhE5ghrgzdCUBgYQ0VQSIBgyePUw9dQMILCsGkWexphUo7gRZgsE8QAMx4ZUIim8S40i4wdOxYbdkIcJ8C5jgBaKBSid8ZAO3gXNk90hI5xVoARA8ywz1YqhLW7LqQlOjs6cW8tLYbXqwVDge7ueGtrp542W1vbTUMZPWbUmWee/fnPf54U0DXXXPOtb32Lw5gxY8YFQ37mQoDPykD61ZkP3osBMFN6xIxp4kp3dTU0fgOOYh8z2j8E82lF0coq/RMn+mZPV2YeVnjC3MIT5hWcOK/w+HnhY+fmHXtU6Ng5oflHhY+dGZ4+LVhbGygqMZSce8WGBvTvfZQsFJJ53o5pMopgFRBH/3fK4fZszoECa8CVUAY5cTIekC/cAep5eXlE1hArt6B7GLOjoysRT+Xnh7/9X98JFPnuAAAQAElEQVTkE4vGXl+wQCpy3Jhaf0Dx+vUrrj73f3/09QsuPmnW3Inf/+F/fv3bn48kW6X9VzPpxBb79d5Ff7RsV5FCsixYFaKEuaiE17JCJTolwi0GhqAwGHgcQYEEYTqGjQ3GjBxBoZJmmRokSOkIt3gES7rGAPdAa+jUU6I7wtxpgfFQDyaUtM9uA/usgAk2NMswaJBh0DIOg3aywgCwwZJmnUpVZH5bAuqXJlxllpXmff5zN/z+T1+/+aff+vo3P/Pf//vFy688p6Agb1TN2FjUsEx56imnstm6++57Dz9i2pw5c6YfOZ2z6JLish076jnlpn0cJIfV9M4GCD/EenFejVNh5LgxBp8Dwtd+QNk9NBsQrjIMgo5qKCKhajt0o87rayzOb68q7yko9tSMaZJaorAsI5WxopLektL2wvyuwnCvR2uNRqAiS5p7CG0RhiimiUhh9hNLCkVhRVhGmVFsXUq7yrQsxLLscrdiWmIkfpy1y8zcUgQiFGGvFGAjmXoKu4ZfiMKPLY6lXdpX7g8I7IIGNTeEKBWm6+rq4nQU4oBKeBsmT54MfZD0ILL0+/3Y4AwMIz1l6qRNmzdcedXlF154bk9P14knnhgMhrq7e6EhuCbS2ws/BoNhRfF0dXW2trZFI7HcmGUujsL5Khhmsqq6aFRtqcebwolOmjTqsMMnlpUXLFu6NBTweVSNo+aVq1ZPGD+ppnrM+vUbV61cY+j2X3eIRCJLlizhsBrSqqmpYR/AMpmmyUKwiBxBs48pKSnJxZkf0JiAR0mrIu3zRX2eTq+nQ5VRjzeh2hLTNEeJa96o5o14tahHS6kK4T+cvm/zI5O298Xh36uxV2TwFvp5gsGN3DuAmFsgWJk/jx+NRnEAy5cvJ8u8bt06XALhJMyycePGJ5988m9/+9uyZcv8fu+UqRO8XmXbtg2xRM/kKROJN72eoM8bqh01aUzt4T5PubQKigvGVpdNDnkrw6HqKeNnCksbcML0S/sIyoAGe1VmzbLKXgbv7dJpjWG8t8f/7adMr08UlwarqguLy0JVNUVjxlVUjyoKF2jjJ1WUVxQmEr3r1q9TpNbZ2fvSi6898tATrS2diqKxI2GNXnnlFZJvHJOwZJz6VlVV6brO/uD5559nHXEJbEH+7REeygbo2+vxKopqGGY6leISIT6ndMVFYCgioOTaoAnwg8Eg+Q3iR4LNhx9++L777qPcunXryy+/fOedd/7xj3985JFHCCd1Q9+6dfN111/z3PPP3nffPRWVZewbOjs7mptat23ZsWN789uLVr70wsJXX3nz9dfefunFN5e8s6p+Z+tgh8C5hsOhGk9Lc1vd9ob6+pZodzydsurrmzes2bxh/abm5uYVK1b0Rnrmz59/3HEn+HyBkqKKL33pKwUFRR7NJzLbarJ2//jHP1ivv//97xwUP/P0Mw8++OCf//znl156CZfQ0dHBLuFQzev96lfTVMc98/VTLGFlkjC4bRS7tDLJHinfr+7cdt4nBBTnK/o+tTZ8msk5B0DShiQyQqqatM/ixYsfeugheP9LX/rSH/7whwULFhBRkgsaN24c79sdd9yRl5f/iU984mMf+9gZp5/B5oDAc/KUyWPHjWtpaXn7zbcefODvf7ntz3/8059uu+22xx57jH3D8Fm6D2ImlqYpxQsXrH34/udffWn1Ew8tuOsvj7/2ykqfp2Ta1MMrq0pnzpxx2GGHweZ33XnXH//0RzZk04/kXF20d7QXFxdzjMGm7Zlnnnn00UdvueWWb//Xt3/1q18R/rOO7AZYGo5MPohRv29t4sYc2dWitIQtmZOhdFpPJtK6bvDF82laOBjq7e3dZbjHb00qIX/Ql/kIMtFI//uZS0sIS+BB9hBB7/0tXX0ABKAsR5x7/XWnZq+yv4GjO+VeZiP0Eixya+aJRCIej0sp8QG8aewDmpqaIP0333xz1apVxJjpdFpRFO56NE9bW0dN9ahIJLZ9e1N7eydv3LZt25cseWfj+rUBvwyGVa/P0PVob6RbyEQgpPkChGYmE5a8f/w6KBkRxlosYq5YuuXhf7x8x18fv/fulx575HUue7r0JYvXdHVGTEM01DeUlpZ+81tf/9HN/zNv3lGJRMw09Uikh4Xzer24bRYIZfPmzYT8rFQ4HIb9nXPsnp6eoY4iUzBNQ9U0psZcLMv+Oll9H448bI36tJ4mlIlFo+gDSMYHDFDvVrkIfLgI5JwD0DRN13WHRDgzJGYkcQyhcK4YCoVIDWFAqoe3y+v1F+SXSOERljcvHB43bgLEVFKaP25c7dFzjggXyCnTKuefMP2U0486/8Jjzz3/uPnHHTZpSo0idGfOrg8Y8Jum6yIYLMwvKAz4g4VFoaLiIr8vPxETY0ZPKSut6e6Kv/giqbgXN2xY86/nnvrq1/8fiserEvvjtlk1VgcdBd5n+cjmwYh1dXUc2re1tXV2dg7YaQ5Wcni7V5BAUKJI2Rvp1XUDXVUUZ9hS9inOJaVhmnoyRezS0zPwFgEbV94rAnhcR5wG+utOzV5lfwNHd8q9zEbo5d7f3UMOQ2FhIW8X4STvDyxvGAakT2gPjxBf+f1+wsmysjIoprc3SkBq/5kfQ5iG0tsTZaPQ3NTc3Ny0ZeuG/AL/EUdOvPgj59z4iSuvue7SCy8++8hZU4qLw/aW/JBPMicHwGvBuKZOnXjd9Vf95Kc//Pn//fint/zgBz/47kcvu7i6ujwWjTU1d9Q3tWzbWkei/6677nr88UeXLl28ZMmSQMDHqum63tvbS6QP9aMQ/rN8NMhKkfonXq6urj788MOpGYKikKlh2FLoQu/1a3GvGjOMHiljiowJJcr+UigoEUWJSSUirIhhdKYT7cl4m/2IcKClAUf2unQq3fJgEQBGZLCn9mI289988QfrZqjX7wXToZ8O9NHT00MUCacQNpI+njlz5uzZs0855ZQ5c+ZYlrVt2zY4hQxDUVHBpz/zyZdefOXOO+/+5Cc/eeWVV15wwQWFhcWpVDoRT8E+5eUVnBZ0dnbhUVDCoTAtH/oZ5tIITFJiQtjRrrRLU+qNbZsrRgXGTCjQRZvUuidMLpk0rczjT6aNaF6+3zBSsXgMl5xKpTgHVhVPR2cHqEL3VDIzFuuKK67gHHj16tUcBd96662XXXYZPhsb0nesJjY5Lg4aziDRpVSFReivKkJXZcxK7cz3dxrGTsOszy9OpkWjonUqapvm7VA9HdLTKj0tKX1HONxbEOoxU42KSElLALOkEcRpV5jOpRC8gHtJn4X7a3AETCGQzH2SaQiXVhbGTD2FXcMvpJ8xlrY9la7YCICa/St3frq6uiAXYkZifwJGOB1Cue66666//vpvfOMb3/72tz/+8Y/PmzePvBC7BJj9JT4vvsQW4eKLP3rYYUfwVDAYDgRCQX9BLGJ0d8U1JWQZvkhvOpmQoVCR2P21yJ1JH8qROD7AGYElzWist6OzUVHS48ePPuzwySVl+f6AEi4IGCLt83nYgTmZD93QPZqvqKiEkB+d/A8OYMaMGfPnzz/66KPHjx/P6hQUFHBifOGFF55xxhlTp07Nz8/H2OloaJWKZf/vXNgEKCJRWixLSvSSUrOozAqFE8H8ZCg/GciL+8ORYH4sryhRWJTCMVAWFSaLCiD4vj8tOrSmnKOjtbm7H5vbl/uOFE5DsvWOPSXSr3LgZ7MGI0Xpj1ROzBni0DQNHodrjjnmmEsvvfTss88+8cQTJ0+efPzxx5933nnnn38+tMLd5ubmTZs2jR03uqy8pLa2lhi/vb1LVT1EprGo3tmuL1uy5eUXlixetPHVl5e/+Nzbq5bXxSJCDPL3AHJi8od+EEpFWXV7a2zDxp0dHZENG+uWLF27fu32SG9y/PiJkWiUs0+W49lnn127Zv1jjz127bXXjh0z3u8Lwv5k/I877riTTjrJWR1WMBgMUjl37lwcAJV4a/YBh36KBzYCUwqkzzbzi/FLxcgrMPMK03lFqXB+wheKePw9iOLtEmqH4unyBaP+cKygMO04hlC+LmTKTT5k8Hv/Crgb6WsPWkf6Lgb+1d/Y1t/NfuBWhmdtzjkARVE47CWiJwU0ceJENgH5+fnkc+rr62F8aKWysnLSpEnjxo1jE8Ch4le/+tXf/va3d95557e+9a1f/+pX8ViyqLCwuLh0R13zGwuW3HP3Q3/849/uvuvv99376CsvvrF1S0Nm0z081/L9mJXi8+atXrX5oX88de9dD915B7g98tqrb3d1Rjdt3FxeXn7EEUewHGR4brvttrfeeovczpgxY6iB67nLeo0dO5a1I3eHSyBfB+On02nqWTV8Nt79/Rjkh9iG1feCsDcyFRMql2paqnFE1ZIpvTttRNJGj2nF4omOlN5jmFFLxC1JGbMEEueRgxquKXA8pmnzlP0cCkImCrGv3R8XgfcVgb7v9/va5r/VmNfrJWzEB1RUVJxwwgk1NTUNDQ2wP/RBu3gCambNmsXmgKi/uLj4nnvuuf/++/EBX/7yl6+48opQONzcYn9M00indU3VTMNIxmJ6KmWZpiZzbr5MKofEUjZvrF+2ZN2/nlx4952vPf340iceXpTZARiK4tmwYf2qVasIhD/2sY996lOfYlvGQT1+Wtft4194n00YnoCzengff+DxeDiWxwav4OwA2Nvl0GT3HQq06whhgiXI/Oxlgkvj+0mMYulmOplShVSsPpNgKMQtCX3rhjAtTVG5RExrl4VtaP91JGkJxL7Cu2REmoojduWuH3gf2XXl/u6HQAa0Xde80ciuqwF/Y99Xb+MvxLvZ9xmPiF85hwXZ/1QqBXdwZltWVsYrxFtH7hgdooFZKCEaeIcSWbhw4Y9//ONbbrll65atFRWVJSXFhmFMnDh+/IRRp5x27JVXf/Ta6y//1KdvuPqaS4497qiS0jBv6EEu7MgyjycjZeVFR0wfN31GybTDSmYfVTt6THUi1uPTNAJ53PDSpUtxzCzHscce+6tf/YozefZhpmkCE1G/lJKdGXej0SiLiM5ysEXgFjYsJWZDTHbTh5BClcKniJAqw4im5HnUsEfNV5WQIoNSBKQVQFFEmFJYfmH6Rb/Hxe6P4tLQbjAOXLPBBLrMA+hIRh20sA122e9h5HiCPapG5sWA6OQKFLA/IT8HjOEwxL17VOSC7CA/8wMldXR04BW2btv62quvbt+2vauzu6mpIb9Qm3nUuDPOnnvK6Uedduacs8+bP/voiYXFPiH13Q252l4IyNSM2WOuvPb0b/zXx7/93U8jX//2xy/52IlTD680RXLz5s1wPez/3HPPsQQLFizgWL67uxtmJ7SH6KORaG9vLwqMz2E+ewIWjktWkAdx7Zjt1eEQusS3SelJRL3xSDARCSajoWQiP50q0JMFxi7hMpXIi0eDSDIaTsY9ivTsM8ecfun2Ga1bMZwRyLnvIpQB75M4jkQjMDvJH2JJ3r3W1lboA2ah02tTXgAAEABJREFUhEogGkc4Gf7iF794++23n3zyyStXrVI1lQSRbuhd3Z2aJvx+r2mm4olen88TzvPv3rEL99OHQDaJwTUHn/UNWxUtUTWqcNTo0vLK/LHjy6tri/wBpbKyvLSkFPDr6upeeumlm2+++QuZDw6Y/RnBPkvW3tHOMrEuRPqsEZXODmDnzp1NTU3kgnicXoac9J0GW5oQwfZutaPb19Hl6+r29nR7It3eSK8/3hvAJcRjoVQ8nEoWdnao3V2+7h5/T8RrWt5BNgGDwmCfN5CJytxHR4Rgg4VkqtziXRAAKCRjtAvGzH7rPXFdpplhXOQcKOR/yCoQVJL6f/bZZ2EQMsjE+oSTCO6BLNC6deveeecd8gwnnXQSzHL++ec7NldffXVXZ1ckEjV0q6Soavu2FlP3+n2FqZQaCpfpaU9vJMVXwfl2uKdqfK0d9peZrDQll9KU0tQEZGcpwWCeZao93bFkMr1u3XqInrh+7dq1L7/8MhE94EP6kUikpaVl/PjxGzduJBe3Y8cOlgwfgKvGc6uqiuXjjz9Opo5LDofpNAeEr8CAYg8NHBBbE0IKgTNDhKVYwmtY4YRZ0tYbbu3xd0XChlmaShenU+F0Kj+VzDMShXqqGDGtsmg03BsL+0I1pvDyTbNoh7ZsHheZS947U4C1MHG6ot/HELppmfRoCAOxLNO0TIOHpFSIgzLlbkWxG+339AhRQQ/JTJYkD0JaX5pCOJKpp7Br+IX0M8bStqfSFRuBXdDYek78jBk9hqNdyGLDhg1PPPEEPoAD4cmTJ5P0h2tgmcWZT1tbG8FmIpF4/vnnCwoKcAAczcVjMXSUvHBBKimWLl5/150P/v2+fz7x+Au3//n+p556pasjZvINELxPOTHZnBpE5qugVFaM1lPazrq2um1t69fWbdnckE4qlukpLCxKxhMlhUUXXXTRd77zHbZZ8+fPf+GFFwCcdcExwPWsyG233fbnP/+ZZBHeAt/8yiuv/OMf/3jggQdwG4T/LFNOTfnAB2NKO2tsSZ8nWKYGSi2tyFTzDStoWUEzI5aVb5iBVMoXT6hSFnj8Jb5wpeIptAT7hgy02c5cAspC8W8poIoM1gTOYLBbbv1uBPaD4G6jD1Nra28zTRPSDwaDK1as+OMf//jd7373D3/4w1tvvfXMM8/AJo888siqVasMw4B64J0vfelLBKS/+MUvysvLyTmUlpa2tXU0t7Tt3NG2asWWxx958cl/vvzMk6/+/f5/vvj8otaWXpFxAB/mjIZSX5a2eWPj44+8fOv/3fF/v/jrb399129+decD9z2zY3t7YX6JoirEoH6/H6L/05/+9L3vfW/Tpk1nnHEGWzH2bRUVFSUlJW+88cb3v//9b3/72+eff/4111yDftddd61btw5XXVhYiA8YSmiIPQbL3LkuyC8KBAs8Pp9UNF0qhi0apVQ1w1ITyXQ0njQU1Z+Xl19U7PX63e8boLmSswjknAMgY4ADII2AA4Brli9fft999916660/+clPfvrTn/7+97+/995716xZwxahpaWFRFBlZeVZZ5115ZVXXnvttU8+9SSVuIHDDjtMkVZZWUlRcUFRYWFBYQHCZU1NjbMS0nJ+u+XeCFRV1qRS+s6dDTu3NXZ39TY3tfZ09Hg9/obGxoDfD4yc6Oq6zg5gzpw51dXV7MlYr+7ublJztDVxov2/5UHn8AY/gZ/GK0yaNGnUqFGwP4c62AxBIZxEIHPpD4Z9gaCqBSzNQ3SPD7CEYgoN0U2R1M1E0sAZBMOFCLcE8T6y95x575C9a93rDwwBewP3gTU+hBvOuW8h1A+/JJNJUgoI0SUMgicg50PGGa/AJUK8idmiRYvIPo8ZMyYcDsdiMfLO1Dc3N27cuMYbsM4+7/jLrzr/9LPnXXzJaTd84pLzLzzZHzQVoTtzlq4PGOB7a7Z1NMQTncGAqKgKFhd7S4oDUk02tdRVVJSlUul4LE56By977rnnnnnGmbA/tM7eC8+K38V5b9myxbIslkZRFNifGmyamppwG/SGq6DMYTFFXx7Z5OuBiH7cbWfrSQSpmjeY5wvn+QN5aSmF4hUev+L1JQxDF2ogr6CqdnRhcbknEEwZJu6Bp0Tfh8b7tL1+KXiWjOxV714OhMBeaDmXAxn21fU3cHSn7Ls9wn+BRW4hANcjkAhBJQ4A0udEER0HANdA/QUFBZWVlaWlpdA9maKGhoaVK1fW1dVhlognpCIxqK6uDOd5p04bd9LJc8848/jZRx12/AlHzT3myLx8X+YNP6Apj0yjo46eccPHr/rB/37n5h//4H9+8L3/77vf+PgnrjntlBONdLq9vT2tp9mT3XzzzezGfnrLT8m/cUiDS0DAvxiP4fXiCTiuZxGLith9FbJGrCMuAUEZ0qhKoRqmUDRvEAeQlx8OF1kqsb+iE1dITyAULigsCecXe4MhoahpIS0pxKApx0H9Ac+44iLw4SCQcw6AvAFxIhE9AgSwCYpD97A/t8g7r1ixYtu2beQZuCT2JLlMhoGyo7OTyng8lkqlFFWkdfyByM8Ph0J+n8+TXxBMJuO06cp+EHBOa6uqqoKhQCDoYwfGnqyzs4PYXyoyP8/+x7pxutu3bwVqGD8cDobCgVAoxDJ5vV48N4tC+11dXeg8izNgEXHkCAq3hqjA5qawLEW1TKlopIIKPIGwkJ6eSLSzuzeaTFmqxx/Kp6AybamWFLbxALPNvnRm5o94ClOajrjRyQBo7V2F43TEudFfd2r2KvsbOLpT7mU2Qi+z38VcmT+RIwJ3wCAIzH711Vf/6Ec/uueee379619/+tOfPuaYY9gB4AzYAZARcgLPo48+esaMGaT6w6Gw5vFIKSvKKnt74jvqdnZ39/b0REhqR3oTOmnaXJlojo4jHkv6vCFFeltbOttauzTVV1hYFgwU+P1BTgJI5rS0tOEVRo8ejTft7e1mjUqKWY0SlJ07d7JeHMb85je/WbJkCSf2X/7yl08++WQt86/7GYahKDn3fXsPy2BKJeMDvIaQKUuJJsyWju7m9u54WqRNJWUJYn9TSMOSfI3ftX1r959WfFdb16A/AuZ+/eVe3zRTHBzO/TsazvpeMB36qRJFEipCJeT0L730Uo5/r7vuOk4RiUk5coRNvvnNb55++unbt2+H+r/3ve899dRTHAuff/75cM0nP/lJHjRN3ecLbNva/NwzC/5y2/23/fGeZ5569df/95cf/PctpqENviU/9HM/5CNQFK28bPSO7a3Ll23obE+0NUdR3lm0sqW5x+fN8/vC8XgKUsMBd3R2tLY1Fxblw/hA2tzcDLmzLv/7v//7mc98hqPgaDTKvo3z+Ztuuol1QWe9yAId8jm+5wFISyCWaSG4w2QiHQgW5BeUdMV1LVDoCRXrii8lVYsjAc2bYX8phapIKYVwRMBBkkMBWyz2B9QK+4MPcIQb2RdSsRTEvi2EYjm/3dJBwNxN/dK0URXszUDOEcdGCItLRzedX32WPNJ37f4SWYxyCAscAKH9mDFjxo4dS25BVVXLsjgGgD44b5w1a9bZZ589e/bsvLw8Uv8vvfTS008/TbwJ9a/fsIHdAzbdXb2tLd3NzV2bN+1YvHjFCy+8vG7duobGBmxyaJ65NxSyN+D86qsL7r/vgX/84+GHHnr0vnvvf/XV1zs7Onbs2G4Y6UmTxp955un/9V//9fvf/f6xR5944fmXwuH8dDrNAgH71KlTi4qKiPdZMkoScUT9HMlwMl9bW8tSJhKJ3Jv0ex4R745i2uSs6VIz+kSxbGZXAARR4PA9/jG4A+oL3kccU9nnBuy+nJoRXdrcbfYhgI70XfT/tRdWjj0lkjUzM84gezlyFcDKrcnz2kAoJPSPmn0ULE9mORKJsBuASqAP7gYCgXHjxpGCQF+9enVDQ8OyZcvq6uoIQpcvW9bV1YXnT6cNDgJIZZSUlBYW5BUVBceOr6ipLfB404JgIbdmnFujae9o2bxl/fKVa1evWb1q9crlK9Zu2rypvbMxEJJev1FQGCguKTQN0drS+cbri+64476S4opEIsXqsCJz58zFDTAfXDWeOJlMskbki2bOnDlhwgRSdrFYjLu5L/sZIS8MwnfMFtvOvrJ/9/1wifRdSEm2yHYRfdd7/DL5Kjqp/2zpstIeCA12Ae8jfXdtGPvUwX71N7Z1HhnMdMTV7/6y5sjUCUIRosXxE8ZPmzaNMB828Xq9U6ZMgUqIKxknXoEsBFkFIs1vfetbHBJ87GMfu+SSS0448cSq6mpFVfIK8idPm3jaaSdee93ln//CJz/1mWs/8anLz7/w5COOnCikTguuDIyA1Ktrio6YMfbY4ybOnTd53vyp84+fNGPm6MpRhZFEtKOztTfSrSoqC3HkkTPPOeeCyy693F6gtGnoFtR/5Iwji4qKdF1nXVgpHDkOAF/OraOPPpp9wMCdurUuAi4ChwiBnHMA7Jrhjiwavl0fXALM4oSQ1HFJRAn7PPbYY6+88sqiRYtefPFFPZ0Oh0IN9fWb63YUFHkC+cbhM8dMPqLqyNnjxk8sr6wJ90ab7Wgr27qrZBAga8Fv4iJT6h5f8qxz5332i1dcfvUZl1552ue+dNXFl55cUR06YvoE/O6KlRv++Kc/ktMn0X/NNddccMEF7e3txLkQPaTveG6a8ng8LBb1CEvGg9FoFJ1tAXeHgUghEPEuHxtRx0Sx7H2AUzo1TunUkPBxxN5VWKpzK6Pn3OvZN7ZD+4vkPtI3BiBC+i4G/tXf2NbfzX7gVoZnbc5hAU3A7/DFpk2bNm/ejII/oHLt2rWdnZ0sAtmGpqYmcj7btm1DWb9+PfzCgUFLS8uq1athoqqq6sMmjw6GvXn5/vyCYEFBnqHrHo+voKCooqKKFt5FRuRtxwcw9bQeLy7OHzuudsz4UZMmj0NKyossy9i2tc7rCcw5asYN19/w9wfvv+uuO2677Y+33vqrrq4Of8CrqIJc3M6dOznpFZkPzoB1xJ2TuGtsbGSluKWqu9gtYzN0C75mgw1eWsIWvrLyAHzEwK30+2urLmH1h6g/GuhI/7v76rbBgBTXD+F9nxpJNQOicygBkFKS8OEoknNdBIVwEh7hleM4kcPhnp6eLZu31NfXM8rq6upvfOMbJ510EifDJBmikciaNWt21tc1NDbGoomOju6ddS2bNzZt2dTWVJ9IRvM8SomwNGHnAXnalX0RUGIRvbGhc8f21ubG7qaGrm1bmxrrO3t70sIMppNab28cln/++X/98U+//cznbjzn3DNaWpvy8kJwPd4aZ4yThvpplyWjkpIjnE2bbF/e0dGhDn0H4MyOCQ4oUL+SCfZRBjRwK10EcgqBXHQA0ASBPzE+nAJ94AAcr8BWoK2tbcniJa+8+gpET5KBwP/RRx+94YYbfvjDH0I9R0w/YvKUKXiF0pLyNxeufO5fr/39/qf+ctsDt95611/+/MgD9z792CMvCOIFDOkAABAASURBVKHl1ALk2GCUyoqxnW3ptavrt23pXb+mdcXSbU2NPSVFNZWV1bplrN+4+Y033lj09pvtHa1jRo864YRjO7vaAwEfPpswn00AYT6umklB/VRSsgMg/OeInluhUIhbQ1csaRpqypS6aVnCUqTFVExdMQ3FRFMsTTG90vQqlqIKqcr3uAOgLXPXo+zMuKRxVw4YAQBDMuZylyIUYUumcr/FSLsJLrk15Zqamo6ODpLFHCf+61//uvrqq4nxSfRv37795Zdfvuuuu77+ja9D+rA/2efa2tpkMslh44oVK9gcaKpGfKpBPF7f6NqxO+u6X3x+8dtvbt6yvmvBglVbNndU10wUlj1lSzERtgLm7q9IbuHw4Yymj2gkv03QABzd8D/11Jt/+cOTzz215unHl//2Vw/ef/czO3e01NVtmzxl3LhxtZdddhkrcs21V33jW1//9a2/njRxErs0ICcR95e//OUTn/jEgw8+SHaO8ePCn3rqqd/85jf/8z//s2nTJtiflaJ+6Iqp6Ck1mtAipkjlh8K9Xd0pIymCVtpreP0BI6mEvSVBT7EwVNhfSmmYhqVkwJUiA7FiQkOWnX+QloJkWMn+QmYxoRqvybMoiJRc4VDsv1OG18G5UiJ9imllHxxJCoghmRlbNpg2jNIUwpFMPYVdwy+kn7Fw7Kl0xUZgFzS2nhM/pBEYB+xPAgFO93q9K1euhFNuvPHGr33tayitra1UlpeXE+kT9X/hC19YsGABLmHixImjRo06/rjjeHzLlq3d3R2lpUUzZ86YN2/e4UdOnzZtamFRfne3fYqAgSN8XxxlhJeyH40Ab093ZOvm+ueffe2thSs62uIeLQAfeTxix86t0VhvZVX5orfe+vznPv/V//wqXnn+/PmBYICT3ry8PPZq7ANuu+22z33ucxwUf/3rX//973//9NNP49HZB5A8YT831KG2FF1IHf5lIpZieUKa7jOUsIfMIlFLIq73dvVC2OwAAA0bVz4wBOAuZLDm3Zd7MGT2qN8PgnvYfWgXkDs8kkqlnLwBYT5J/2XLljEA3iiiyNLSUtiEwH/Lli1wDZWnnnrqZz/7WYj+Rz/58foNG7o6u6cfOW3s+NIzzpp3w8c/et2NF3/2C1fd9B/XX3HVWUfPm8rbK5yogZJwwBbaHtkCFBmxLEPRUvOPn3nDJz52/ccvu/Di0y+57OyZR01JG72jx9TiGxKJWHVV9bjx4w8/fPrhh00fP248W66O9o5UOqFp9t9+YjlUVeWE5tVXX124cCFJPLJ5ZWVlhYWF8CMH+DkN9LsNzs7v66oqPHyFiOgVn5AB0RJtbUu09qS6Fb9MpmOJdEJK26Paxvbvd2vUve8icOgQyDkHAH3A7/F4HCpJp9MQPWEjJRlk6IPMD+Ek9WwR2AHgGyZPnkxoSURGzdTJk0tLSxpbmqPxeCwZCeepZeXhvHwPSnlFfmGx37LShw7qHO0ZIiPR7AxOKtI0UzNnT/3YFRdee/1lV1x50SWXnjdz1hSpWfVNOwEZWfT2ova2tquuuurij1y8evUqTmVAvriouKOzg+XAc7Nw/z975wFgV1H9/7nt9fe2t2TTO73XUKT3XgVFQEGxgN0/FkD9KaJSVFBQAem9JfQaICGkN9J7spvt+3q77f+5724em80mEAiwCfv8Zt65c8/MnTlz3/ecORMipzWk8qgnL+RSv+vXKd0H7bClLJHfN/F1/HAs2S8bmr6+c9XK5uVNsQ15JWepuuqTLdmSuL/DTnJnHHh/5qf3Ve2L7ymZn5qamuHDh9fV1bEbgE0IISORSElJCXkh6D4ajVKixtEiJblm9+8LwfqWKcoiJX6/r6KivLyqMhgJR0pLgqEQDUmnmqZhSwL0bowvcS02KcAKR/yhkFfIVjIZVbxSWVVk8NABQ4cOxIBDBg+uqqp55OFHvv/9a37x82uvv+63F174dfwBq7B+fSPsTwqO5WDrhkDqGk+AL+cuNSwZbpul3KFtTGTvsTTN9qiStqGlKZGNr2haNnXhlA/WzcUHCJ8tBeS8nbUlg3jFnaltb20XQIcFOH5FsmVyR26r/nLLFoCyXLgq3WW3pkfZXcGV3bKH2pf0Elv0rZlDHAwIsshkMkSXFRUVJ5988rXXXnvLLbdcffXVp556Kknn8vJyjhnJSJSUlJBhGDt27N577z106NCm5mZyDlAVmeh8zmps6FyxvGH9uramxs41q5pammOm2efmy2T7FAjbGY9u6KpHw5L5vJ7Tdb/fD6MR43NryNAhkUgknXH+UYdDDj1oyOAh5RXlNbVV4XAYumd/xqLsscce7n+bTXaOpaEfDgnogZIedmTA0apiyZKk4C9NzcoquXWxdWs6VjenmkxNt1VL8SuWZNmSZW2V+rdqBEsUDzAdwdqqcv/Nfgt8cgt8BoT4yQfjtISAyAJBFo2NjbD/kUceefnll3MCfPTRR48fP/4rX/nKaaeddswxx3AYMGrUqEsuueT0M0697bZbrrvu17feeutVV10VCAShp1g0NX360gcfmHjTn+76803//u0Nf7v+htvuuvOJt9+eI2zZ+XXxuwI9/tqA8/wv9x9bbmpunzn7gylTZn6wYNmMmfNfe/2dt96YsmDhMmjd4/Hk8/lYLEZJRL9w4eI1q9eQ7m9paSG/HwqGqD/ppJNYiOuuu+7rX/865/PXXHMNi4Lb5tAe1771cLjvm162ZMXWgBCyLUuGZNpesyPXnrBiGTvlLfHoat6hfrlI2fLHmxT6RWxswfsJNl71f2+0QA9DuZcbb/by3V3Bld2yF9UvYdXHfEE/P8vAJsSJ+AB4nCjyrLPOIrRftWpVZ2cnLLPPPvtceOGFeALLIkeRDAR8xxx9TCqd+sMf/jBlypTSkpJEMkHmoayscuSIcbIUbljXuWpF24plzetWdworPHzorkL0/3cAva0mXAOEyGSsGdPm3XPPg3+95fZ77334yScmzv9gmW2p2Uze7w+xBGy5sPDIkSMHDqxTVIUsP5eaqsH+OInzzz//zDPPxHmzQCTudttttwMOOGBM4T/OoC01vT17R6qTJNUUWEoWsqybhubzypoUjAQ9QU+g1K8LI6GnDWEb5JxJNlpby//0Pm363iQucdnKLXtv8WWt3bpN5E3NYjmLtmlV/xUW6GEmar5gQBMAltlvv/3I9nDGSwYZllEUhUwC7kHX9TPOOONrX/taPB59+523fH7PkMGDLr744iFDhkQT8YrKynWNG1paO9vaYsJWfd4S29IUOTSgdsTqlRtMXbFsjyVUSxCkMXcXX/CUv9DHW0J0/d9RkbjgQDgUKFuxbIOeU2Odubb2ROOGdiOvGHnn//WwraPd0K3amgHr1jXA+IMHD16/fr1p2gF/aM2adX5/kHgfuof9OQFmoxCPx1kv0zQPO+ywfffdl2XFtX+hk/20D8c+hirpsmzZkiSUirLKtsb2smBlLpnN5zLRWFtaT/nLQlnZ0oJ+05ZEjw/k3iu6qcl214VsW8C9KFa6l325/FzG5ry0XQ9y7SksYbu/ZcquO4UaV0a/IKCMplMWLvsL0ff+EiTUD8Vz9gvpV1ZWElSSXIb9uy9WLpeDVvAHpB3uuvOuv/z1L3fccce//nXH1KlT1q5bF/CHRowYVdC3Cm7fKshu0e39cCv6y00sQOCqCtvTBcsvbJ+wnMuK8qpkMk0ahxTczTf/5cc/+fGvf/3r9rb2Aw88kCMZ1ovoftiwYbB8MplkvZAlSeJUgGQdR/q457KyMuo3edqOduFQuiyZto0nkCRFOP/pL0cCKue3G/2oQAc24rAJHZsLh5g+9jwdbqLdh9QvCedyY3ur8D47V3hrck2O9KX6U7BP14yRQddF9y9+46BYYxUkSlAQncIqWtK5+hL/6W6pPmcGks6wPKVhGN0HR3bI5ZQxY8f8+Cc/vOyyy370o2t++rOfsmkYMWKkzxfgiNKW87aStWWQR7bkvIvCwlvde/tyy7wABcBTBVjO9ki1hceyPW5pIQu1szNRWVEZDoeh9XHjxrU0t/zmut/gd+F9johh9kAgUFdXh0zgjz9g4XDSgOWjFeyP8+DWjm5t5+/4u7wjS4W54DIL6BZLWXZXGA95F3Q+qqBDF90Vu9dIltTVJRq8vQDhywrJKvyK3elbuF5X2mKJftc9q9DQ6rrq/xLd3to+Yg0CRuiDTQCBZHt7O0kD2D+T2eT/zN3dAcAsKD/33MRJkybBLHgFOMjv83s9fo/mEZIhhO6UjmA4gmDhXfSRufapYRTcgPM+FAScAbJbIggZm/t8gY7OjkWLFwWCgR/+8EffvvLb5OhI0LFGrBdbt3g8jhrUT8naMT38gaqqLB8KbA6QqdyR4b4/bimEax+bPVP/wdKOvKpf4rHza+9zsydsJMyEWebPn79mzRpYg5wylbAJUSSnwZwJL126dNmyZUuXLsc9rF61et26hhUrVkyfPp0UUDQaJSClB0mWnZI/G78R+9xsd5ABjR07FlOvXbN+6nvT7r/vwWeeeXb+/A8eeOChlStXsjQYFvu/8847OIMRI0awZEyL9SKDx3pxVLB48eKOjg63nls7MIgnHFiFWHKjDxBywRlsh2nJGyN9BOD2KDmV/FSBU0FiyfnioYWvL12B3wVd08YmoOui96/uyo78Ufq997Jz1vY5WxBIYmm4prW1de3atXA9DELwOGDAgKrKKtcBfPDBBxs2bCDGzOdyv/vd744//vg99txj1112r6ysDgYChplPJBLCjcsoRSFAcwQm64In9GNLFrAEWyVn12xZtuHIXAoLEsfme+655x//+Mdjjz0Wx8wh8OWXXw7F425ZIJbmvffemz17NrsxuvZ4PNyiZB3nzp3Lki1fvpytALd2YGAWB3rBLBvnwasFNl5tl29JlujHdlJJheXgYlOQXAK25P5dhk3v7cRX3ekbGWx9so4CP/nNlbabw9686x2rplfrfLIpbJ9WUD8pY9IIBPIQx8svv/z8889Pnjx55syZs+fMRpg4ceK77767ZMkScj777bc/aehf/fpXjzz8CPxi6IYk2/6Al1scY0r2h2eYXG50CUwZfDhaS7IKEJZ74rZ9yo/VpzsI2Rbd4VZu37K3qclUFp5iFeiMsnDlEByyRYRruzk0QU7bjMejwaAfH4AnWL169W233fbYY48tXLhwxLDhuXRGsuyyktIP5s9/7JFHJjz79Ltvv9XQ0LB06dL333//zTffZCeHG+BAGD9ReMYOXViOubBS1yR4l4roqvr0X5LkrA4LJLO3kiVCfvcNcR4tegzg0z+tv4cvrwV4d/vW5KH+8vJyGJzEApz+xhtvPPjgg/fff/9///tfhEceeeR///vfa6+91tjYSIA5aNAg8v6QSz6fr+BTWUHawTT1ZCouHOevSpICCjLT/DSTLfzq6MNBQXbyAG6ATDRR2GQUbzk/UefCOXiQDMZTuCgWlmXlFYUTM4SzAAAQAElEQVROqJFlZ5wCti2i8FOnvuAVhCULowCLeuF8LLfbAhdwXZyUVaihLFZaXZoS46QSWK4OlMKFIIfghK7kr+nERaGa8UuOpm2bxVFx2Dtq1Cii+9LS0gsvvPCmm2760Y9+tOuuuw4bOjQaixHaV1ZW5PP6iy+8ePfddz/00EMTJky48847b7755n/961+vvvoqPgMqK4S0zt+TsQteViiypMiGZQJqPg3ccW9ebmufm/fQo8b5C0C284/BmSY+XpiyZcoGsCltw5ZtU5hMUxaKMITM6vVoX7jEFKAgCtuygStTQvqU8D4l9Vw66R8u+vFxLeC8ul26zmvsit1fb7emv3QsgF2cr77zB6KB0GOxGL8QAkbDMMgdT5ky5fXXX2crQMbZtm3uQv1Dhw4h4bD33vt+8MGif/7rnwSYnD1WVlbSMJNJSQ5fWpJkQ2HZXFxVBchm03k9a/HThYQ3hS/gzelZ0zbKK8tkTfb6PZTZfKajvV1VZa+PPIcVCkYS8WQ+nzHMVDLb6vGbHr/S3hHr7MwLye/xaYlMh6RauqXHk6m2jnZZM7N6QrfylmDMnZCvczyNs7ATqqIH/V4IwjSFYdh6LpvPpWwzj6DaSkWkPJ/KGdmMqadsK1teFlBlA84MBfyJWHvAJ4fCqsfLokE/Ipkk8Z6kN0U2/V6ls701n87nM/lgSM3moopXD5Y4qrFoglpb5Cw7KyTD69USsXQsntc8JYlkNpnO5vKGJdR4LOn1+vOoZjK2Q58yp/EwEVYl3of9X3jhhd/f8NtXXnzp2aefnvDMsxNeeD5cEhkyfNjK1auz2Yzm8SxasmTh4sX/vvNf9z/wvxkzphk28zNUr1peVc5ENZ9mCtMX9EmKABg5Z+apQRCqtDlsVeoVPTQlVeoVRTW3E1OTgCu7ZVHBFXrtpFgpy5qVUypCNYl4zrBsS5itsWYRtDr1dl3J5+y0UEzT0iVT8tleOa94LE1TPKqidoesqo5dJSEKftiShCnsvGHk9HxWz/MJhYLc6+iIWmSCJMVVkCTnjeZ1ZtX7Ij7XMcFaoPBI4icgZH7mQnSjfm5uwv5cC+FqOmXhsr/gPetrRmhrazMMg0CeRBAZZPYB0D2ZByrxBJBRMBhkl0D9vHnzH3zowa985SsHHXjQaaee9rOf/WzSpEnr1q3zeFSay7LM1CzLMoy8z++RZFOSbAScis/vFN3+BHy+AKZg20ErUhydHR0tLS25XK6qonrEiFGtLe2cRkSjUdTq6uqBz+cJ+DTdyBmGOWzEiLoBw7zeklQm5wv4EumEbhr+YLiiogpvFA6F6dPSjWHDhjGe9o52gmhYQTdy0c54ZzQe8IcD/qAvEPIF/Jl8LpPLp3N5uirnPCMSVjXNsPV1jetiyaRumnkeN3JEc3vz6nWrOmIdoUhppLRywMBBvmAolc0kUil6qB0woG7gEK8/nEqnmW9HR2tzU7NtKX5fqLq62pm132OYpqZpwWAEaKo/GOITlGUtlUwHg2FFxttpwUDYhnsEZnSwfPnKwUMGM3jyb1Penzpt5oxJ77xz+7/+yaJ0xmJxWmaz5ZWVOANF80COtQMGDqirj5SVMn2MyRaBCVZWV0N22AHgyFkdBKCoKtYGejYHctv42UqTrdza/CEfqYwCa26btirLqqwEWDcHXl5JXjBhm6rs0LSCuZm2ZatCMlnRrJ7vBnqwdNs2hOCVlBRFVjXV6/X4fd6gz+dPZZOJbMaWpUi4tMBgGB8L9YQNm7l1BSVX/JKVWAZsadI4gy3d6q//0AJbseCHSp+nRDSrKAoMTshDngd+4YfqDsAwDO5ywMsuAYW8nu/s6Az4AwiJZAKKgVCgFZQp8RDo67pOJT9GOsnlM7Is0ulkKgVVpgqfTCqVSRcQ74xbhq0oHsKE0SPGVlfUSabc2R5PRNPhQMmYEeMiwbJ0Irty6WqQTuQ8mt/Mi3VrG9tbYutWN6QTWeBVA6Xh0qAvqNianpca17Z1tsWMrK1q3lhHgg2GxxuMlFYKmMFWI+HyIUNHdnQmU3lT9QXDZVW19UNKKmokbyBj2m2JZMqwZH8wUFYRqayJVFULj68jlWlPpj2hkmGjxgYipTnDnj1/4bJV65IZPWvYeUva0NrR0hlbvbYxnsgS12veYGlpZS5nWqacy5pNDa1NDS2K7WV40c7OHO4ml4lG24ie/H6fP+AXQtFUTddNQ7dU1WPbkrBlYFli0KBBuazu8XkZ0YpVKxcvXWLLUk1dHduPTJ5dhS1kAl/ZlGSrgOVr1nYmkrZQLVuJlFRpnnA+J2LRjJmTzLysZ4Uj5CRhaqrweeVAyFMS9pQEvQ4Qigh5S3pFUQGBtlsBCsDtJOwtAa7sltwqYiuduLcCvnCeyVp5VRZ+lS2l5LEln6V4TYXSYylcYjVFshXJLEAEWFlvMNwNQU/Ar/o02aMIEoGyZMvyRgghZK+UtTKsgMfjkywVHUlSnHpbSHwBh/EtvoHjoPlyavjqR78FttkC8ja3+IwbKIqiaRoPSafT+XyefcC4cePGjx9PAnqPPfYYOnQovzu4PhaLqYo6fPhwKN4LrQYIYGXIPZPOZAufHLRnOiEWXdFPovBxlL09Pz6PF5RGSizTTsaS6WR61YqVei4X9AU8sGE2l0okLMPMpnMhj6++duDAurqA15dNZ0rDkZJQSVmkLODz1w8Y6FSmUulE3DL1oC9YWVZTVV6L29DgA0PnpDTo8wd9gXwm6/f49awedT7xUElECLm9vX3l6lWr165pj3ZYihIqK7dVJWeYnYl4a3v7+saGeJKNhW3ojCuXSKRIYqXTuUgkUlZWVjegLhAMYJMBAwbU19cPrK1nJPUDBgS8wWwqxQmukcuXl5QOrBtQU1Ud9Ae4qxs6UwuF/EDV5FQqKisiFAoEQ37DNAquMYXjBIrisA82LCkpWbZsWSQUph/MFcDgkrR08WJJljyK4vN6Q4FAR1tbIhZnn6JKir9gVdu04tGYLCRZ4GVszopd6/sKH90wrMIaMRjWq1fo2V6qu1fme1Po3sZVcJsgg+Jdt9K97F7v1vRa5s2cQfQuC01T87yhaUNPWWbKUi2vZnkV26sIjyQU3KGlCEuxs/lM934y+RxvI/xuMXO2DMLGyNSgk8lmMrlUsDJkeQzcDJ3LhqKYKu5B9H8+rQWcOObT9rEztpf72qTg93g83tnZaRgGiYndd9/9xBNPPPPMM3/605/++Mc/vvjiiw877LBgMMjOIBAIHXPMcRMnvjBhwvP//vd/f/WrXx1//PGDBg+koU4Qa5pMDf5Cmd8YewI4p6KiwjL4/Zq24UK3jS6YROy2NWbUiD3GjdOEsPO5kI/fs5FLxStLwrlULNHZ2tLY2NbUYGQzZi4r86uPRY1sysqnZRO1mGTmLT0j2znZ1BvWrF29dGVHc6sPNyWZHsUMeBQ7n/epsmTqkjAiYX9dVWUy3iELy+eRKyrKhg6ux7dUVpZLstne0WzbZklpqH7QgJqaqkhJSFNkYet+n2bk05XlkWQsmkp0rlq2FLJhPGGfrzQYTHR0dLQ0M0Jh6tHWlkwiauYyim34Nblx7SqQy8QDPpWGwszLwiD2BpKtB3waldGOFqwRDAT9fr9hGJIkYT1Zlimx54oVKwKBQElJyZw5c1id0cNHmNn82NGjPZakGHaZP5iOxqMd7VWRyOEHHnjWySf/6qc/ufi8cw/eb9/Rw4fpGDHaZpm5SEkgnuiIRlvT2YTsER6fktFT0UR7Z6pD8yu9I6h6Az2hBVVPoAvImyt0r0EBZUoqtYAKEFxQyS0XyG7lVkraBstLvWWl3lBI9vgt4bFNr61zMODJp+R03DZ0LRAsMyU1nstF8+ksbqEk4C3xdYcn4u0ObvlK/YGKYLgqEqop8Ye9LfHm1vY21dZKg2URX5mZL7yrti2IFGwhO9+IG2HzYvS5X/HGwX0W30zWhdt5d9mt6VF2V3Blt+yh9iW9xBZ9a+aappmmSUAEZR9yyCGnnXbaeeedR7nXXnsdddRRF1xwwWWXXYYPqKmpiUQiJLWfeuqpyZMncz65ePFitgXJZDIYDLJdwJHIsjM7yIuu8CXU07MsK/LmH0VI0G7L+hVL5kc7m8tK/GVhn5VPQlzlpaFwwBPyabuPG6kqRl1NmU+1hZGpry2XrWxp2BvwSHXVZcloO2ojh7IPsAdUlw4ZWFtTUaoJNLMe2agq82eSHWY+6VEsr2pH2xpTsTZF0msrS2QrZ+qpbLIjEW/LZ2LCzql23tZTlg4nN69fvTTWvqGGQ+GIPx1v88hWWZjjAiXok3cZOcSviYFVpX7ZynS2jBsxWDLSfsUOKNaoYfVhr1JfU1ZTEU50tuw2dvio4fXIRjZBz/l8YtyYwblsPBZty2aT4Yjfsg3LKsA2JNnGUKwCOzCMie/EktTU1tbuvffeRl7Hpnvuvns2m9nQ0qyp2qBBg1BOxOJeVasuKTt8/GEXnHfeWWefcfypx15yxdd++Iurf3TtNcedcnSkJpw0Es2djd4SjxQQOtGzlVLDihZWlaCshpSYHovne6LXSlet+61ob21dNfeWq+zIaOoxR8h3Pcu91V3ZlXstY0ZnUo4lpVhCpJJ2ylRN4ZFVv+YP+X3BgOxTdZFL6EkpLEshIdjaRURnvh206+0ukF2saVtVREu6aUO8oSG6bm37mqVtS5avXdLa1irbcnUpK18Zwid4/ZB/3/qh9o9mp7AAP+dPO4/t2x5ytm2Hg8hmEP7vv//+o0ePJm9AvqSpqQlWgvRPOukkKJ6aVatW/fCHPzz33HPJEe27777Ep1AVOtTThNAVxseX0CfRaz6fX758+dq1a9Y6n/UU69asXbd2tVOuWZ1KtHtUo7lp9fIlc9LJ1gULps+c+a4i5+Lx5mVL573z9stLqU+157Kd69cvSyRa5s6c0rRhlU81586asmTx7Hlzp7a1rJ09+901KxcsXTxz5dIP2psbodpsJrahcfnsGW8HAzY9LFowI+AXnW3rk7HmtuY1K5fNb29Z09KwYv2qRQ2rFkdb1uUSbblke0fzWllPKlamYdWS5Ytm6+nONcsWrF42P59sjzatXTzn/UkvPLtq0Vw7G8sn2tcvX9i+ftX0Sa/GGtdU+pWFs99fuXD2/FnvdTavXTDrvVVLZkdb1yyc+96GdUvo1qPmVy2fx2i9PqWpad2ixR+sXrMyFuuMxTnKxYF2zps3jxQQZoTWu68sUf/MmTPXrFt71fe+99bbb9/5739ff/3137/m6gHD621VtCU7/aWhPfbf+/jTT/zKCccN3mVkux2P+1L+waHRB48Ze+i4EfuPUKrVpJyWykQupEelaKvRklDjSSWeVpPACObNzUDlVrC5/pZq3E7MQL4It8Ytt9Rq83ojmF2TWLImuWRtcsn6xLK2/LqYtSEjxXKepKfUtLzJmNXSjIrcFFNAY1RpSvviaV8y6+0GfyrvT/trPcE68Na/EQAAEABJREFUb2iAD4QH+pG1CkkpMd9f8N7M+TNXrFhWEi4dVj98YFVdQPMbubxkCyf2lywhLKkAvnpsBrqv184rOxbACBsn6F5uvOrlu7uCKzulJEmy1OfYr5fhf8ZVfc4EsL+qqlVVVWPHkmAYPXjwYCywfPlyIk1uIQ8bNmyXXXbhYABCJ/a/9NJL2SJ8+9vfvvnmm2fMmOGSl7O6skxJE2JYj8dDn1DY3LlzX3qR/7l45SX38/LEV16a+M6k1/fZe/fLL7v4m5dfdNKJR8ZiDa+8/MqKFXMPPHDML35x5c9/ftUZpx/36ivP/OPvty5ZPPO7V33jkq+fe+U3Lz70oL3fevPlSW9MCAXMSy8568JzT73iWxfX10Xmz53y0guPynbi0IN2u/SSc75xyXmDBlZNnzbp3XdeCnj1C84/5etfO/OEY8cPqq999MH7Vy1buMvY+osuPOU7V371sIN262hpeO7JJ9945ZXBA+quvPSr1137wwP3Gd2w7oO506YsXzRn391HXH3V5T//yXfOO/PEN156+l+3//mDOVO+dfn5Rx914He/+41TTz1myrtvT3zusVSy9eyzjv/mpef/4hdXjxwx8PXXJjz79MPpVNvpJx996dfOPeuMkxOx9pkzpz/z1BMPP/Tw490+b731FmfvZIEqKipCoRC+0zCcUwE8aGlp6cCBA9kK/PGmP935n3+fePLJQ4YNHTZiRLi81JREsKJ0lwP2GbXvnmpFaPGGFR1W57sLJz/99jMvzng54UuXj60uH1s1+NCh766aMmnJm68uePn5WRMnTnt24oznJsx4Fjz7/tPPbAYqt4Lu+k9Ne7pXuDpuJ8/R/7Snn5n2NIJb45aujlv22kmx8ulpT89umjm7afq8xulzG2YubZ2/sm3R2tjSDbH1s1fPeG/ZlEnz33xl1isvzHjppVkvvDTzxRdnTpgw/dnnp00oYsL0CRPef+65qc8++ubDj77+0EOvPwjufeHu/074913P3vmfJ/795uTXYH/bEGXB8iHVg8O+Ets0OUexJYGRef+LcPxB8eLLKDg8vuV592A2izOozZUty7ZMa/P6L09NDzN98RPP5XKwT1tbG6mbYcOGEZSS2yH5kE6nOQFuaGhYtGhRJBKpq6srLy//xje+cfvtt19++eUXXnjhDTfcQJqoubmZHnAbluWsK/ylKIpH1dpaWutqaqMdnZJs4w8MXVdkGU3bzNXWRHQzoUiErPFsJhomKaHlop0NI0dE2tpWBoLZtY1zS0vllpZVlRVBjyaGDqnsaF+bzcTKy0KZVHxIfVUyvr6qQk4lGiMh2+8xwiHZMFpkOapq8fJyWZbSHKxmM4my0oCmZSy7Q5LjVMaiLZKdV2WRz6V0vV3VoqVlnPqlhJH1CNUrBVOdabYLshRXlVhFmcbAcslYKKg0NiytrQklE41jx9YzkVGjB+hmNFImvEFjxZoFu+wxZH3zhkHDKjNGuxZkmrlUsr20LKCo1qjR9S2t6/N6srTEFwp4li9dvdsuY/1en57NabLm9wa8qtc0zXA4jLXZYAkh8KDA5/OVlJSwIvF4HL973tlnSZaJ88Cx4laDkbChSqtbNpz/za8F6yvf/GD6rLWLfvi7nz/x2tPvfDD1iTeee/LdF2Y0LDRqvCV71LaF2m56/MZ73rz7mblP3/7yHU/Pe+apeU/f/tLtD7z34EPvPwQefO9BcP+U+13cN/m+7YgH3r0PfOIOH3j3gX88f8c/J9z+zwn/umvC7f947NbJSyZ5B0r1+1WsyTX+75VHH5r09D0vPXTPi/f/98UH/vvS/Xe/eP9Dkx5+4O37u+P+Sffd9+b/Hp788EPvPvTw2w+AJ6Y+PmH2c68vfnXq8ilrG1dn4+khNYNOOvKEA3Y/MKgEJEMMGjLEUCSMbMuSIkkkLIEk8z+JNfpC8YU8nJ82KDyaLREQlrChMheFegqnhi/QTRlNR59D+i7T8Xqj8aUFJutbcw8EAl6vF9Ymfi8rK4N3YBxOIDs6OuDrAQMGjBgxAvZHBwVI6p577mF/QL7oQGL1MWOGDx9OWw4qcQAsrSzLxP5objpJXghLsgt7am7wC5OM+voB1dWVmkdKJtubmtcmk53JVNy2dVtKAVNK2yKnmyndEJSGkZalfDodjyeilIYpMun2bLrDtDI5PVFALKfruXwsD3KJfC6RiLflc0k9ZyUSbULKe30SEMLweInkculMe2d0Q3PL6misKZdPCMmoraspK4uQqJGkXHPL2misOZfLUy8knYZAyPlEsj1viLyRjKfaTSmTzLZ3xtuTmbhhi1QukcrFGLPmU2zFzGQT0ZjI5VMctNJnLpeRFeH1iHw2ZxlGKBRRNQ1fkkymxYc/G8EHG7rWi8fjLAfAJT//wvOPPfbYu+++m0ml25ta4p3RoC9QVhpBWbfy/qBPC3gGDKqPp1Ir1q5u7mizFMlW5Wg2tXLd2tVr1hi2lTf1RCqZTKc7Yp0d0ShCOpdN5rLpfC5r6jmbM2jblIUlbQ0ofExsr36IwQN+P/AHvHzLimRaei5np9PJVFaXNdUfDPgCflnRVEWTFZ+kemxJtWRPEULySLJXKB5Z9cqKV/U4Z9mGJQHTlm1LHlhVf8aJZ3zzq9+C/WtKq33CKwwRi8XdKbAPYFEAv1vJ5vtLBoe7ra45I4Oui+5f2AYUa1x9SvBhpSQ75uONtWxHKN74sgndLdUn5g7dEITC9alUCq4hC0E6iD0BlZlMBkFRlJaWlvXr16PQ2dkJJRGZ4iGmTJnyxhtvrF27lv3BkCFDtjAZS2LGhfeGB0kyUYAsyGHbciqdtOyMKcxEJiEU4Q34TSE0nxd4fJpWgKRIkiokRZEUAc0Ztp7JO018QUFD4At4nR++JjulRygeRfXIACFvZhSPpHhEzrCELDn/0U/Aa8l5xWuoUIGmKZqHG87vXDYsOZvVOzN6jP7Ted0SqnNLFqZi2Irwh3w0t3BBZl7RhORR8mbOHwkYtpHWM4Zk+QLwpmVLlifo5dGqR1E0hUenMhlG6A85/7URKf6gz5PNZjGsgPSBkMWWPw0NDZlMJpFIYOrDDzt84vMT//rnPy9fvCQZ7Uy3t0c0LSRp6dY2K5oYUl4+qqb+vFPPO/mY00876vTzTzn/nBPO3n/MPrWeinA2sP/Q8Zcc+62vHX35WQddcMmxV5w//pLzD/v614+94vT9zgOn7nvuiXudefzupx+766nH7HJKX8Oxu5x0zK4nONjlhKN2O/qQkYfuWrtbpRRWE55RlYMPGLnvUXt+5Su7HXHCXscev+fxJ4I9Tj563AlHjTupB5gXEzxu99MoAbMGp+xzzon7n3HG0eeefNRp+47dx2N4jFjeIzQ2Z1i++8psbZ266+2sMr9f0DU7aB10XfT+1V3ZkR19iY/Mz7+rhWx3CV+2rz73LkFJ5B+INzs6Ol588cU1a9ZAVWR7gsEgW4FkMgnFT548ee7cubgHaq688srDDjtswIABlZWV8D7pC3LW8NSWF9KwrJxpGbYkbIlMBmkOIi8lnkyoXk9VTfXA+sEDBg6pGzTUFyj1B0r8gbA/GPEHKUOaN6h5hcfnV33BSEW15vXLqub1BSKlEc0f0AKBcGlZIFQaCEUC4Ugg5EHwhUt94Yg/HJG9mj8c8oX8ihqwhEf1hhW/15YtIQvVr0XKa2pqR1TXDA+XVXNpKqahZtSAEqmoqq4ZWlUzNFxWp3odN2BKMk8HliTLnkAgIoLhMtkbKC2v0vwhWfVqXn+4vMQbCHuC3Cm3ZEVxRltVVRdI5XWPMwV/JqfLsqOLo7VMM5lKGrrJJiAUDNndPqLbhzN2VqG1tXX+/PkNjQ0ezZPL5d577z1ZSEYmp5nCTGU61jflO+KDyqrGDhw2qHTggWP2P/nQ4087/NQDhu/ji8lNc9a2zGvcq2rXE/c+ERw17uizDzn7lP1OPmXfU84+5NyzDjkbnH3ouecddsH5h194wRFfvfDIi/ogTj/g3NMPOO+0A88+7SD4+rQDRh5SHxoS1EsOHH3QUfsdc8ohp5x80GkXHn3RRUd/7aKjLrn4qEvOO/Li8474andc8JWLwIVHXQy+evTXwNnjz3Nx5mHnjd/jyAGh+mxzPr6mM92W1kxVFqqqekX/Z9ssIG+iDu+DTap6XFjiIxR66O8kl5uaqQ9MSpIkInq/39/S0gLRv/DCC5wBrFy5sqSkhFi1vb191qxZHFQ2NTVxJHDAAQf8+te/vuqqq/7yl78sW7aspqbG4/Hwc2HTQAqol9lI0CYMZ9oCIrXJpprCTmV0U0gd0cTc+YsWLV4+ZdrshYtXr1vXuXpNtDNuTH1/7vwFy2bOXLhg0eqWVpIz0vqGjnfenb5g4fIp782eM2epkH2Gqba2JafP+ODdybOmz5w/Z+7SaCyfSOorVja+/c60WbPoduWadRtiiZysRJqbk3PmrXr9jffmzluybMWqhtZ0NJbc0JT44IOGye8t/OCD1e0dcVOIppaGVWtXTZu2YNrMpatXxZMJpanFWLehZcWKxlmzl7z2+uR5H6xoa0+ZlrJ6XYs7vFdfe3fmnCU5U4vF8q3tqRkzF779zozpsxbOnb88mbHjaXP5ioap0+YvWbpu4aKVy1aukhTF6/dJkhwIBDFsLpfTPB7JFkVgqSLWrVu3YMECLPyDH/ygorzi1ttunTZtOsa3Lcmj+fJZvaVhw9uvv7lg5uzmVQ1WIrdX/dj9h+wxrmJYjRVeN3XR+veX6Kti1tq00myNKxtVlgsNVGoGqjUD5OpaUTHEO3CQNsCBp27QpqjXavsOBmr1w7WxNcbQKmvwIO+owaExJaIm3y61rY6JlKdCrakPDxkYGFppD6w06geIoaF46QBlYK1W1x3VSi2okmtApVQNqqRqF9VyTSAXFnE1mAsMCtfX+as8hipZciqZtslZSB8uDWsk+j89LGDDZqBYy+a++2WxfouCJVlbvLeT3tg2A30ORiAy9Xq9MDhUvnDhwueee+6ZZ555+OGHSe+8/PLLr7zyyttvvz158uS2tjb8RGtr65FHHnnKKafgCfAQlmVRv3r1anYGWxqqLMP+um05Ky1LEvwlhLMDaGhoeeHFN/53/6P/uvO+f9/98LRpa0iaL1my4bnn33ryqZeffe7119+Yuq4xuqHVXrxk/VtvTX/qqVdeeOHtqVPnr1jZvHZdx8xZS1977b3nX3jzkUcmvjt59sqV6eYW+/33573wwqQnnnrxhRffmjZt/vLluZUrm6dOXzxx4tsTJ06Cr6dMm6OoYkNz59uT5j340Eu3/+PhZ5+dtHjJat0U6xrb3538/v33P3Xbrfff/+BLr78+M5MRsXj+pVcnT5jwxoQJb77yytRlK5s2tJgrV7a8OWnWM8+88fxL70yb9sGqVe2NrZnZs5e9+ur7z78w6cmnXnrp5XeXr2hKJOwZs5dMnPjmxOfffPHlSdNmzGKfZBimrDWtoL8AABAASURBVMh+Dnn9ftuy2VTZfG1EdxuyLrD/oEGDIpHI6jWrn37q6Z/9v59f9s1vhiIhW5YUTc3qxvtT3n/p+ZdnTpsx9e33csl8JpZZMn/5hMcnvv7c660rmkul4O6DxgRtrzcjqRkpaPv8hqZkBIInb4tk3kEiL/owpLgVMAIhIxA0gn7L75d8PsnjlT2aIhn5tJHPWlldZHWPKXtNOZBXfbpHSpofjZQppUw7ZZoJU48LNeUJ2aEqT3lYDks5oUra4MHOPyTVfTn65S1awIbTwBbvuze+tDkfd/rF8qMtVVTtKXw21+wAICaieDYB+Xx+yZIlr732Gm7gv//979133/3kk0/iAJYtWwbXE7HOmjXL6/WOHz9+l112cWsqKipoSx4JwuptgPC+ZdmmkCwiX0lm+mRhSK2o/kDpsuVr581buWjRuoaGeFV1bXXVoHBk0JIlTW+9tfD1N95fMH+tEEFV8kQ79RkzF7/zzpzp05c0NCRkucTrqWxphnNXvDdlwaxZq9ra8orCKHytrbnZs1dMmbxk7txVzS0puF5VK9vbzJkzV0ybtnjhwrWNjTGfP5RMiqVLW6ZOXTF3TsOK5e2ptKTBKopoaY3Nn79u1ow1q1clVblGVfzhcP3ixY2zZq2gh8WLG1IpzesJp9OembNWvvvu/JkzVmzYkFGUUllEWlvyc+eunvreovnz1y1dskFTy8vKhrS1iqlTF057f+msmUtWrW6SNVVWFUmRdd3UVDJAqqHrvRnNqQsGg5Zltba2shvbZ599Hnn0kUlvTbrsm5fbspS3TX9ZRAv4Glqapk6bPnHi80889fSNt976h9tu/dOtt/75lltfeu3NppYO1eNPZzJeVePY2c7rPlXRM+lEZ6udz6Tj0Yjf4yDgifRpqB6hq5KuyjlZzoUjSrBUBEutYKkNQqVmqNQqKbFlOa6ItCKlVTsbCnpCAd/HQSTgKwkEVUNTDZ9X93l0D+G/YqmCRKHkLIFkO2X/n223gPOrF8ISklVoK8u2LIRctOeX2RlgiIJN+kyBAyDbQCjKDkDTNF3XM5kMQf2MGTPmzZtH5gca4hb5aNzDzJkzzznnnBtuuOG6667jMODxxx83DKO2thaFLUyIXSG/KLXnXRsHUJJK6pLsi5RWa0rQ5y/xBSLxREYSAULvXE6lZkD90MFDh6GQzsitrXo0nlc9gdq6wSNGjysprzItL/XptNA8JSWlNeFIZXlFvS38mSwvW0CSg8FQaSBYLiR/XldyeVlI3nCowrQ0S3hsYPKIUmTdkGU1YJiebF4xbc3vx8GEg2HndIEmwvZlcwrjsWxfRUXtkGGjqqrrcxm7rT2dTFiqJzRg4JDRo8aWlFUbhiedVnXdm8lJ4ZKKmtr6muoaw9QYp7A9pZHykkgFtG7bNtam9PHxe3paZuO1LMs4ZpxuSUnJmtVr2JY99czTq9etSabTyVw2UloaqShP5fLrmhpnzps3ccKLDz368KNPPP7e+1PjnbGBAwcOHTqkvKQsk0wpkmwZpm2S2hCVZSXhQAgzlYbD+VzOQTaX3wg9mwPFyz4iSMJiw1hgE6Mt2tIebXUQS2TyyUyOMp7Kxi3JEJJuOyW7goyZS20dRjblwsxlw/6gT/FY+Xw6GddzKa+qmLq+fvUayWaj2hsYz5cHtpBsWbJU2XIyY8JxjbLFkki8prIQQNiS5awOXtiWFUsFmvAKDvtk3VRNU7ZoJdmysGzaANtGn+8vKRyT9ampc5ZbWloKueMJYKRUKkXUSdnR0UFeiJr29nYcAwfFDQ0NqLkURiu/3x8IBFBLJBKqqnaflC2JLgjZsrzC9vm84Vwux8qrHk88Hvf4vLFYorys0sjZwpCj0XgmA5slLCufzdqVVQNULdIZSyVSiWw+094ZMy2ttKxCSFqC2DXZFo235o285g1GInWBYGUyZZnCtiQrGk9D5WUV1Ymkbpiq6vElocBsqqS0SlYCHdE4qRNF9iqaV/NpvhABeFKyTIVNv6H5lNJ8yvKqmqpasWhTLhv3qEqsM6qbtscbzOuykDyGbXTEWhqb14dLQzU1dX5/sKWlpam5wRCJTD6W0y1ZCZq6UlFelUrF1qxdJqmK1x/M5PKK5mc8mYzFGAQpoGBQVj3xVFzGbuyKJFVQgm5GZDlCoRBLsGbNmueff3HmjNn/ueu/99/7wLSZM6qrqxsbG41cvrSivLSyqiOe8JYEB9TUGSl4LTOwvk7o+db1DelYtK6ySphWSTjs9/gjoZJ8Vjdyhkf1ZJJZn+orwqP5gKp6gebxAUzUA5rq7R0FfZr0AB32ih7dFi+7d+5VvC40lU1Y5YamzpLSalvxCdUzdOSYdc1ttQNrTUurrx/V3pEqq6gRmrc9mSqprsoJS9MUj/pxoSnCIxkezfSF7ECZpIUsWc0GPFJteblP+biduI9Dv1dswWrqlurd3jYve+2cyi31s6X6zXt2a+iqCL+sbIRmp+WIVlEeqgl4I0KoPn/QGwrLqsc0pKryqmQ6FSqJBEIhRSgBNazmtFyr7rXRCpTWlSQ86YRIkTNo3dAuy2o4HLZt2+IYTbIlG4qAD8SX7SP3tQkTjVqWZRfC0ra2Njh9xIgR5Bzq6+uJPaEh1s/v9yuKYpqmpmn4BtRoxXLiDNw8NTy4hXnJwu62A5CcJcc3bFTGGi6E4JZkWLahKBrvFuCNyebSkipV1dQOGzGyEJJHuCT0i6ejeTOXN8x4MmsLwnmVPguQbaF2QZJtB6LwcZ9CKSzBkBAYiSEkgMClKoQL4Y5k4y1R+MiCVsAZpOUoEPOYAp5RZNk08x3RVtPO+/2hQKBEOP3Ijg7KhcaFQhZOPY+QZckpC5VbK7A2tzHslClTPvjgg2g0ijMuKSstr6yQVSWdTuF3452JXDov8dvzBpLtsRJvqDpSCU2GtWB5uExP5xcvXNLW0h6LJuLxZFurI6TS2Y72aCKRSqUyDtJZatKpbBGpVBakU5mPCZR7RbHDzYSP7tkZWGF4zhhwm5KIp5K8cqZpWaYwTZsyEc2aWbJZdjyWbmvvjCdTja1tsUQ8lU4wt60jU3yAI6TT6WQyEwfpdBw5k0rnkmlKwL3NkEqnu5BxmhcGujWhq6st9LZZ9+muznlKZmvdFp/7Wfefamvr4D1s62hPpJLRBDvMdkeOxeMx59MZ72xoWt8SbUunk3nDCARCumk0dzY3tDemrVTWygR9ofragV5Vy2Yy8IkkS4LPJr8Orr8skPvaRPmpwO+AN5GxDR069KCDDjr66KPPPvtsznt33333IUOGQD35fJ6S2BOFiooKlBctWrR27Vq2C7wctm2ztDTfHNwCAvZ072114XEzQC98cDZ8w4OUgGMGt4NMJkMlasAqfNz6z7lkSAzA42TYTUhUERKRM+W2DQNruNisGfOlf35h8+fPx87xeDyVzTS1tgTCIV1YqVzWEtBfJuwLjhs6avzeh+w3bp/D9h4/vGpo+9roqqVr0/F8VXldbXV9wB+uKK0uLS33eQNlZZUD6gaWRMqqq2u9Xr8Dj98LXLkvluTr9EiJzzDTuXTCzuesfE7kDJGz/GTVfGVlvjJV8tRU1g0eNLS8vLy2ttbvC7Ddcaa2lekw5SK2osatotpHCih/JD6yk60ofGTnKGyl+UfeovlmYKdeM6Q2VMkG3lNSHq6rr6mtqiorKy8pDZMDqKyqqqguK68tLa8pK68pidSVlNaVqGWejJxNGilD0rN6NpVMGhndr/h8Hm86mYIlZFnhZZclCVqgRP5Soc85AFmWywofBOje/begTzvttMsuu+yiiy4699xzjzrqKMJ8Vo6twKBBg6LRKDuDkSNHIu+7777Dhw8nFB07dux2WUXeCVUlcWgiKIrCkPBPDQ0Nixcv3rBhQzKZhPoBvoH0CEAZne3y6G3qBGswDJ6uKIphGAgej4fKTCazTf1sSRm/hoNhanTLTmvEiBGDBw/G7LYk8oaegQcl4Q+GMP5B+x947tnnfPeKK2+56eY777jzppv+8v1rfrD/gQcoPs/a5g22qiaymbxlGJaVzmU7Y53JdLo92uFEypkMcjKdSmRSlC7iH8rpwt0Py3jmQ7l4q1D5YXO3E7fs1tWHCoXKXvqhw0JXXbcSG58Vzya1oFpaVaL5NEWVbNNizyabQs5Lqc6skZbzGSsRS7e3R2PJRFN7c0ciFs9k6YoePibimVSvSGQcy/R2Kx3PdCGRSRdRrOwhJAr9uGU80/uzNq3v6jzerfNE5sNK6rsjkXHG6ZbxzPbpP5Hpmlc8k47l4o3R5vVtDU3R1lg6GU3H2zujba2d8Rh7skQ0nuiMxTJ2LpqNNkWbVrWutkiC+gw5JJdUhy1LTyWS0da2VHucnCsxjSxLioD7iQclYdlbev934vo+5wDIMgcCgba2NrzA+PHjzzzzTHYAnCIS7OMPTj755NNPP32XXXaB/X0+HzVTp049+OCD2QSsX7/+nXfeoaGu683Nzbbd+3LCWT2w9dWFUuFWSjpk21hdUbn77ruOGTOKceJyxowcFQ6GeGI8HkdtexHu1ofU4y7pS95d3JImKzWVVZFgqLaquq66hjebyh7Kn/gyl8thBNj/8MMPP+6440499dQD9j/gxBNPqiivCgbC2Uy+tLRst912O+30U4455ivHnngcmTB+q0N3HXblT75zxc+uqtt1cIcVj4lkxdCarKJ7yoJqyBuqLA2UhyWfmrby3pKArzRICbSI34Un7OcScOtjgiZbgttn9xLNj9ltl1pJMJqLpe2cJ+gNlZV5faF8zqouH2Dm1OqSgT41GA6Vl5dWV1RXBcpCStAjBbVgVVmwpjJUvXVUhaq7EKgo3xoqywObotiwp1BVxYnN5tik80276tGze9mz243j3Lxnt+az7b+6IlAZ8VeEfeUhX0nYGwoL1efRAqEgaxERsgeofr/s9Shhr7cs5KsKZbx6SsuYfr2ps+m9ae/OnTNLyhuKLcaOGg2BmKZFMoD4RpZlfuBd6aBP/CPZARv2OQeQy+XI4VDW19fvtddehPZwPYYl4obW4aBhw4YR6VdXV1MfiURmz55N5cMPP8zh5AUXXFBaWor/6OjooMl2AbRO/8T4CCSmdt9jtzPOOOPiiy++4oorLr300uOPPx5vxBNRwA2k0+nt8tBP0MmIYcOPPfbYCy68kE3SmWeddd7557FVGjpo8CfoavMmsiyzq+AXwkwJ8w899FBmPf6w8d++4opxY8ZWREpVWfZqGus1euyYYGlobfPaqhEVKV9yQ74hX6r7hgaq96gNjopEg0mzylyaWNJkrY/6OhqsdR3etlgwSllEp6et09uFqLetWN9DiHp6udVrpduQrordFgUq3bubl927YkiuQtTTsSa7bkls2bLoynXphrlr56+LN8olXk9FQETk5c0rmzPNMTW+PtfQoRFkxmjVaG1oEs0fAampaSOapeYimqRm4F4iONi8q40NmzYfoO8vAAAQAElEQVQVmqWmXtFU6LOr3Ly3zWukD8fW1E3utXMqmz6D/ps2PrdZtLSpHZ2eDl6tfDC3pnPl2ujqlJIuHVwRqAoYXrPT6OzQ2zrlDtChtnUqHY255hWtq2YvmTt51pTZ8+esX7O2qrT88IMOGTJ0aDhUEgqEcQO82BLbABtnsPm7v5PXfAIH8NlaBA4lv096Ydy4cYTY0C68jz+AhYmyU6kUQeiYMWPIAsFKZHtmzZp133331dXVnXTSSc8//zzp6VGjRqGzvUZJRoVHQ38IeT07evSIE086/qyzz+LDscSh4w8ZOLB2W57FS9YDH926+5ZlS9pjxow8+5yzrr76e9/+zpXf/OZl3/nOlQTjw0cMlWxRxJbaEgQVsOX7QuD8WAXLsqqrq0kEsd9KRGO7jBozpK7WKwnJMEojodHjRg8aMcT2qO8vmn7H0//488O//8UdP/veTd95cPIDG7yNteMHDD1m6AvLn/vTs7+76dnf//X5P17/8LV/mfCHW174E5fbDc/9/qZe8ezvt8cj/vDY3Efve++B/713/5Ozn3581lPvrp0SL02kK5LvrH7r7xP++veJN9/12u03PfX721++9c5Jt9320l9ufPq3f3jyo/DEb/+wEf/3xG+LcCuLlwi9dLWxoatcLFH+SPTS25O/7VnZB/rvPqnfP/TrPz3yf395/Mbbnvjz35+65c6n/z5x2lNLOuatSix6c/Er97/239ufve1vT91869N/ufmpG//25M1Pvv7482++8PK7r7w15a35H8wLBXz77bP/EYcdWVtVrSkKSX9eadi/AK76HB9u7Te5Pe71uQmTmCOuh/rZARDs4wBwCcTXbAWCwaCu67jr0tJSGJ9olEgfIn7jjTf++te/Xn311T/84Q9ZSBL0ePXtYRynDwYgFz62aXR2tmseT31N3aDa2oE1lYPrSbRUapqSTScZmKIoDMlp84n+fMqV4Aw8k0kHAkHYWVFktkd4x3nz5n+isfTSCJPiAOgT97x8+fI333zznbcmrVm5SjKsbDxl5vLBYKiqtiYYDrd1dixeveyFd15asH5hQ6pxadPieWvmtFutWV+qRW9oyq5dHV0+Z93sWWtmvrvonRmrpiNPXzltS5i5YlqvmLFiWq/oVZnKT9M/bWeunAYQXp716nNTJ0x87/lXZr721pw3Z62eFbVjMTm5NrFuUcvC6aumTV7yzsszX3h38aT3lr7zzsI3Z62dzkyLmLNm+uZAp1iJXMSMddOBezl77XTgypRF/S0JKH8kttR2S/U8t4iP7ByFLfWzpfpi5wg0L2LmuunUAGreWfDm1IWTZiybMmvFtMXr5y1qnN+Wa9bKRWRoOKMllrQsmbFixtvzJk2a+9ak+W+9M+/NCa89N3nalNWr1sQ7EqW+spGDxu27y357jt5LpIWezmeSqWw6TYRkmxYpU5tNgER81sv7v7NWfUra2f5mIbSPxWJQDDEm/B4Khajp7Ozkkhic0D4QCKRSqWin89cQR4wYMXHixBtvvJHs8ymnnIIO3gL3QPnpR8aLAITs/PUA2zY5LyorKa2IhDVJZGIdHqELKxfyeqorq9iv2IWPLxCyhLwZBP1YklWAsKRNhsYCuKCWFxEgFOE0LF5sJqAMhHC0jJy+3977JmKdQb+3JBzJZbJHHHZ40O93724sN+viY1e0t7ezECwBCbqRo4bfeOMfrr/hN9OmT33xhRebmpvw2biHxsZ1mWyysrJ82PDhhlDThp1MZxOpdDwejUXbNdmK+H2SZbe3djasa/Vp/nAg3NbSLsuqImu5nA6yeR3ks3qvMDJ6EXpW7xVFhaLQvSseAbrXdJeLTRB6dp7R9QwjzLV1tvmDPlOYsWS0buBAbzCgW7qsSbJXyuQzzY3rOOL2B4Mtbc22LMV5U5PpVDKdTmyOZDqRTCfjBaTSSQfJVCqTznVHOpNzkSl8culUAZlsugvpjSek3c+ak0mYLZVMpeLpRA9kMqlu6OrE6S2Vy/YGd2CUySQdJpKpRLKAHt0WL7t1zoO2W/+JdAKkMyl+iaGwz7bzvAo+v2qa+fb2JssSqWxCQOGKLCmqpGiq1xMI+0vKwz6/KhPkJ42h5SPOOearZ3zlvH3HjffkI+VSuZZSApqfkJHI37YtBMku/B6+TD4A8inMuc8Uuq4T75umCdGQ1qdUFKW+vp4a6oFt29FotK29beXKleR/oP7BgwdPmTLlzjvvNAzjkEMOYSqtra2U2wWS5JwOccrK+8FIZFn2ypJHErJpCsvgdRSFD++eTaamIO+URXl5OY4ZT/zyyy+//fbb7DCa21offvRRLeDLmUZazymKrEjOj0+y7NqKmvNPOe/Kr175kyt+8vMrf3bJaZfsM3hvpVNNr8uMH3fENRdf8/PLf/TdC777nfO++8Ov/fDb537n+1/9wZZw9YU/2Cb84MIf9IDbvKv/C3/wfdDtce7djyy7mn/1B4wWXHneld8+/9unHnHaXkP3KFVK9Xb94F0P/tb5V/7imuv/33euveYb1/z8imt/8LWrf3rZz8DPLnXKn1/2M8BlAT9BdnDpz35eQKHSkV3BLX9y+S9+ehlwmrs1bul26Mpuc0ouf3bpLwCCe4mwdfTaD227o9gDoy3KH1PYjv3/+PKfgR9e+qPvX/Td71343e9ceNV3LvzON8/51tdP+9r4PceXa6FSJbLLoLHHHXDMOcece/7xF5x77HnnHHXW6UeefNVlV15z1fd//O0ffu/S75569Ol7jNjHL0r0hKEZHs1UFUuWoX5CKMtWJCfU2yl/vFuZVF90AKqq5vP5VatWffDBB8s4byv8N0fEmLA/zM6p7+TJk1esWBGPx9Np59D1hBNOOP/880ePGs2+gbtkigYOHLiVOW/TLUn+MGJnYIxB1lRF02zqZXWbuiooW4VgvCB2FW6NW3ZV9fhy77llj1sfXhK2gK5rV9cpZVsAt1qynfMAV97WEqdLIHXAAQdgavZhTz/z9PIVK/7+rzvqhtWX1JRls7lFSxY9/9yE996e5JOlvUeMPX3/48/e75QTxx1zYO2BtZmB8lpf8+S2zqmJSHPFYXVHHzf8pF29ex5Yccj42iP3Cx9waNVhh1QfDg6tOhwguBhf5VRuLrs1H7N0O3S7OrT6cFBs6Fa6l91lt2bzkq7O3e3cc3Y7l/KM3c88acxJ+5btV5upKY+X+Vv8B9UccPiAw3ZRxx5YduARdYfvFzzg8KrDDqsaf3gB46vGH1Y5nksXh1aNL8CZ76FVh27EYeOrD+1C1WHFykOrUXAvKQ8bX3XoRhzm3Ko+tFB2tT202qkcX+WquWVRn36K6H7LaVLoxO3qw3JjP24P3Zu4NT3LjWPmKd2Vt0//h1UffmTdsUcNPPYrA449sv6ow+qPPH70CXuE91QbtUCbb5Rv+FdGHnn6Hieft9+Z5+515hm7nHr8uOOGVwweM3TU6GFjBtfUh7WACs/nTKHbwpKELbu/AkniN25JTqznVnyJyi4T9J0ZQ/3wLLE8Z79EmuT33333XSL9TCazbt261157jUj/1VdfbWhowCVwGtzW1nbZZZf98Y9/ZAq1NbUEqnA0qWoutyMsy6Q3BqYoisofRbOJ99l5UiuEbbEt6UKhYicsamtrU6nU+++/P2/ePNMwX3/t9TvuuOOJp55KZtL+SFgNeTrjMQ4Gnnjs8VlTp7c3tpSIkD+mti5smfPqnDmvzGue1+aLhSN6RSRbOqZ0bJVdo3Z4Kq2qAerAMr28Vq6rlWpBtVwLaqRaF1Vyl8Bld5nLLYFOesDt0G2ODIpt3Ur3srvs1mxe0nM4FY6kwoGkP5gOVsqVETukZTURt8JmoD5UV6VUpNenKszyAfKA8lxZjV1ba1dVSxUfQlRVA6mquleI6uoipOrqItzK4mVRcOu3VPKIXp7Vrdtu/dRI1b3CGQ/9uOilt80n8ln2b1aVZUuD6XA4EwlmI8F8cGBk8KCSQUErmGpKqGm5TCqpkEprVMZQUW6Wl5olXt0bUoMh1U+8n+5IWUnDYyl+1afIWuFX6hAgP2VQuPzSFc78+9SkSQFBsCUlJclkcvny5c8999xTTz312GOP/etf/3r44YcR3nrrrblz56Iwbty40aNHk/FnNwD1lJaV7n/A/nA0WweOiLfjpFxqz2azxAgFyIKNI0HDJ3kGBgefpOVHtCGcAQUl2WZ8PMWBJQlQqP5UBUfrnMxzFL/nnnvuvffet/3ttncnT951113nzZ3f1tZRUz1g6NDhOO+5s+be8tdbb/nTrQ//94F/3/rv/9z2n8f/+/g7L7yzdv56JecbWD6kMlThkzTVED6hlgVKyLZ7hFZRWqEJTZU0ZIDgYkuye7fX0qN6e8CneD2K18e5eKF0Ba/iBcjFTro/q1jZQ9CE14jl0m3xfCLLHlCRbEmyJFkXqi6phuqRTDNbXhopDYZziaxqyrWllcIQCKqtAs1WgUdSeNZGIAOt61KSSUpshFAtuYCCYBdKi1JsVJAVW3gkHutC1oQKPJJMpSZxqXk2eZbGUwoddnXbvR/FlHuF248mNLB5b3TYA59t/7KnNFgW8ZaVBCLJaDIWi3G8lDXzzR1NhuScxBi2QVYg0ZkwcwLGF1mp1BvxWx45K+yUGbB9yD7L6zE1WfADlgs/CVmSJJujvgJkS3Zgi+K+uaCz0xauCfrQ9GDb4mg4VyTzMGPGDNzAvffeS/aZvD9EXFVVhQMgzJ8zZ84+++yzcOFCNgrV1dWs/erVq0kNhUKhYifbReg+Kn7x9GlbFJJlOXlDNgCgsA9warmx8wGbk3/D3Q4bNuzFl1689557X3vt1V//8pcVpeUhj5/jUY4HFEVubG6aO3/BM08/d/s/7nz00ccnvzN50QcL450dppGxrXwi2snpZLQ9pmfNitIq2VKNrEUmr70lmsuZ+ayZK0DPmC64RNOFq4DORyBj5jeF24nbnBIUe0B2O6dELtZvScBd1VbUlQXLcSqSYdqmbtm6IfKGnbU1K5rqTOUSoVDA7/WpQtLTRrIj5YWNLRIOltANQ9f1fD6f1fPZHDAyOSNbAEIBTqVbk83puZyjQL1bg7AROjUbZafJRlnPdbVyK7urdXW1UdO97K6QzxVGkt2kzFO5sUl3Zbf5R5bdmzhdZTfpnLnnt7F/Ooy3xRMdcTNvhwIB9vqyJikeWfEoHr9P83k9voDHF5JsVbXwxiRqvZqh4gm8eGdL89oeKW9nY6l4e0yYdvFHul0ipGJvO5awDQ7g85+YXfjIspzNZtva2tgTWJbl8Xg4gaSGwP+9994jIP3BD34wfvz4/fbb73//+x+HwCQrFi1atL1GS3SwaVeOxfABffmlYWxg02F/2it4H4rnsJ1cHDm37373u3vtvufXL7xoYGV12OPLp9LtLa2dhGRp9tiKGgm0Ep/pWUuztbBSVhesHBgsqRRaIJ8z84Zly6pH9fg0r9/j8Xk0H6Xf4LR9lwAAEABJREFUF3TgD/q3jIA/+Angdug2dB7h26QT965bujpbL2VLJnCWbec1EIIAwLBxBYqRMdO6nZUU4fGopq5bOdPOWVbe8ige25bQl2U14A0EfcGgz++U7iMd2R90Zbd0a9xyKzXuLUo0KV0gA2S3RNg6uqsh94qt97D1u3RYVEDuFUWFjyP4gn5vUJN5b7yVlZVBnG3Q+W+5/JGAKQtTqMIuwPJJtl8YXsX0KhbrwZLhBuRSf6TEX1LiZ4sWEnhl0f8R7nvcRw0B3cO/+HlVVUk+EIQyUPYEpml6PB7uEu+T9CcxzW6A4DSfz7NFyOVywWAQze0I07bd3mwyKq7klDI/becbJhC2rLjizlmyD9t9992PO+64p5566q4777r3f/f+5z//IdJcv3ZdOpmMhMKD6weVlZeVlpdrqqr5vIHSiObxZPK5znhnJpe2ZAOkcglbsgLhkOrxxJKJ1rZWtmusGiZj1QAdAoTPCHouBz5F53pbSztj1vWcUCVJ0VT4XZWFrCaSGZ8/EgmV2IYdi6ayGYPbfm/A0A1FUe3CJ6cT8vLwwhCyeianZ/IFIBSQyxZuOWNEACgDV6DUHQVHZ6PgyDmnH7c5ujnn0vnmFviwK70wdb2rB24B7lK6oKE7mG7lh/106ehdndBwS3A13RIdV6DcHv3zbigy4WA6lkymUunOjo5oDD6IR6Od2azzDMp8Jo+7dXI6pqLYmmqqquX8bR/JVKLt0UQiaZqWLbN4pIB4777s6HMOgEQzPzDDMAjzm5qayOqQ6D/88MMPOuggMs64AVVVCUIBOrgElpzT4D322IOXFf3S0tIBAwYgfPqFxTRAlWQSSjZhnmHgcnh7eNtyej4aTwlV9fudv0fMo3FUDCzg88rC2gyOm+WlLMDNLdJxL8C7gO4j31yp+12UgSh0r3q1eR/MD5dV5nQjk84ES0qnTH1PVhX3Lo6qAFHQ797Hx5Xxqe3t7XhcDmBefvnV//z77kcefOTee/5n21ZzWysWwDjZTD6TzJRHSj2SXFNeiVfwe/yE+pLQGta3rlyxIRysgBYTiZhp6YoiBUL+SFkkGPKTg1Uku1dwqwhbtj8SlpOWIzD/EI53FpZkbwGS/fH7R7Ossky38p6IJ56OMxdNDcQTWW+QudbKls9MGlba8mghf7hc8wey7AWYqmlZQnYhJMUBwYILSROSVlgaJ5hAENQXdGxJ+RCyYndBs2WgOGpoUinJtuiCKcnAuaRSki0gVGtTFJrTg4sP+3E6LDzXGV5RcPuXZFvqvbcenXP5mfZvc95i5b1hH1sAXrmg3++VNMWSK0sqy8PhaEdrXVVlPpuRJVOxDUU4/+aPYqmS5ZEtDz8E1etTPKouW7qtm+wYbJuXwrQ3eTUsIryN+Li/jR1ZT+5rg8eh67qeTCYhFBj/lFNOOf/887/2ta9dcMEFV1xxxcUXX3zsscdCRrA/sT/eAsaXJGnEiBGnnXYaaQryQmvXrt1e/xooxsHTMB7SUP5gOBAK+32+cLikrLq6vn6gkL02nkFRfYGgqqoMOJVK0eQLATtitko82ueMMJxNxDkmKS8rp2a7AH+MzZkgIB3HU8orKkj55A0DGTsIyzLy+XFjxp5y4klXffs7v/zF//vTH//4i1/84pyzz9t7732rq2pDwbDX698ug/miOoEdcCdWl48RwpZlWSvwrCxsVVgexXKCTdlSuXQYv0Al3UdLDw6E7NzdUrlZKx7UA5s0L+g73RaFQs89mvR6+XH6cXV6bf6RlW7brrI4vKJQGKd79yO7QsHRlCwhHNiSELYihCyzCkAIehXCkl3YiM5/3CvZsuwshywJhTrgGsq2EAWy+HJ/+pwDIKJXFOf/7IXgmqj/nHPOOfHEE9kB7LXXXuT3Tz755PPOOw8fQJiPGrE/J8MPPvjg9ddff9VVVx1zzDH19fWkg5qbmz+LZYUE4/HkilUrVyxdvmzFyuWLFyxZsoz9CtQPE3wWT/z4fcLCTU3Nq1Ys47Ny9arOeIwzW93QP34PW9eE63EwuFu8L5pk4QKhoObzOoFYIGgR5JrWsMFDjzriyBNPOvGC8y9g7ViOE044gXLvvffGW7ueg7Y4bMxFibxTgqkBd2oIwJX7y8/NAtgcinfLXh8K9YNeb32pKvucA4AaSLm4XEPCh00ALA/LwOnt7e3BYJDD3kMPPZRbnEmSjnjmmWeampqWLFny0EMPIROtDx06FKbeXquIH2JIUDz8xd7i3femPPLIo3feeecdd9xx113/fnbCc7NmzSJPhQJjZnjb67nb2s/ixUvefPMNxoY7vPOuO/99179fe+319vbt86+iMpgxY8awA2BnxlYDZ7N+/XpcAiuVL/w/87ADADjpfffbFx9cVlaGG85mszgMVpAlw4WzLlgSNXrrR78FPmsLuG+aROj/WT9pR+6/zzkAjEnuAtInvXPUUUcROcL70A2nvlAwCZlAIEDCBzYJh8OwzHXXXff666/DNfAvZETYi1xXV4fzL4I+PxmgdfqkpDlD6ujomDNnziuvvf7yq6+9+tqbzzw74Y3X31i+fDleB2pzgeZWgcHBVlW28SZ7YaCb1nvvT3/okUeffPrZCRNeeOKJpya/NzWZznALbGOXvahD/RifH9XRRx998803v/zyyxMnTvzTn/5UUlIWiZSapl1RUTV+/OHjDz08FIw0NGzAbuyNWA6cBA57zz33ZClZQXoo9o5cRLESobhwCFz2o98Cn5EF+GmAz6jzHaLb7UxGn37OEA18CpsTTUMZBOAEngSSMD6d4wygFW5VVFRwOAyz3H333fvuuy+kzznwRRddRPjZWPig/OlBlgkwAHwAWX42FuxFCKvhtXgi3trWCqAwBowO7AZFfvqHfrIe4Eq2RBs2bCBBj4kosSQD/mS9bd6KPnGBeF+su2bNGp7FnmzSpEmYBWXonukPHDgQHdaCLZHrnltaWqjHemWFD7ZCRr8f/Rb4HCxAksfJ9H8OT9phH/ExHMAXNzfcAJQBkeEJuo+C3QCMA1Corq6eNm3atdde+//+3/97u/CPlHE8wA6gu/4nlnk6BAe5AzxBSVmFrHosISmaNxguoQRef5DYHzXS4uATP+tTNsQjSpLESBBKy8t49emwh92o+cTAl7AQpNree++9V199deXKlXhlAL/D+NA6T0cHK+EOcdsE/t2Bz3bBABgkygB5hwMBowtGjmDxtRmYGpBlCmmzm/0Vn7cF+C24+LwfvCM8r885AFgDWodEYBYCbSLZaDQKva5evRp7wm7EmNwl779gwYKZM2f+6Ec/IiAlQ40/gJUgF8i6oaEB5e0CHk2HAIEomMQ3A3MdA6wH8EZQG8+F/kiOb5eHfoJO8D3sPxgYoTYmYsDkx9ivfIKuem3C1HgEzvW000772te+dsQRR5Dc5zyABSLexziE/HgC7ENzBrBu3Tr0MQ7rgt1YPuDeRQEwVModF3CKO3gEgDNwL/vLfgvsQBbocw4AXoBT4C9oferUqbA/qR4yG1AM+QdKSGTChAnEobAPNPT444/fcsstN9xww/33389J4+LFiwlLOUXYXmsAq/JcgMDTXTBIwmHiXAJe6I9LANuC7fXcbe0HnsV34oSwGICvuaRyW/vZkj7kjlXJ/Oy2227w++mnn87R7vHHH3/NNddgARwhq8a6oEYWDgdcW1vLQiBXVVUtXbqUrQNukh7wlATGPAWLIXwk0OxTgOtd9KlRfXaD2Zl63nzhJPuT//u4O4dl+pwDIL7GsjgA0v2kGt555x0iR1hj1MhRUMb8+fPfeOONKVOmsAOAi0k6P/vssyeeeOKll166du3akSNHQjFQ86pVq+jk8wTR7uf5uM//WbhbwPYC75JKpuB3lgPGZ5/B6rBpw0GSgrvnnnvYh3GAz1EBAru0WbNmUeIDVqxYgasojpzmRXlHFAj5IRRKe0ccff+Y+y1QsECfcwAwKckEIlmCTYj+ucIHYdLbkyZOnPj0009TzpkzBw9BOgi6J71A7El0SXaCmJesd01NDYFnYXb9xXazACE8TpedEHH9gQcdeO+997722muE/7hnwn+WDB+AzIbsjjvueOmllw444AAcBomgt95668EHH+SchgNh9iXbbUBfXEeQPtTf/fnUdL/sl/uOBVgpVsdF3xlV3xlJn3MAUD9hJkkGaIVsD/EjMf5jjz32q1/96uabb0aeO3cuvgEHQL6FSP8b3/jGiy++ePvtt8P7y5Yto2b9+vXNn81/CNZ3lu1zGsnGx7AWUDwWJvz/5z//efLJJ5MCGj9+PE53+fLlLATrhTNm4XDGMP6tt96K8iGHHHLVVVf95S9/wXng19mucWJPlzt67M8U+tFvgZ3DAn3OAXDA6zI40SIxPv4ANid+xBMQgXIXKiHMDwQCcP277747duzYK6644vzzzz/nnHPIDrEVgGhGjXLyRRCNi+21VOQ6gNubm7xGRqCk3gXyTgbYnxlhSTL7CGy5SNMxWZaANSLhhjOG9zs6OsjwQPHU4KRZCHwGK8UishUgX0c9mwDMRYf0hkBvOyJIHMub5n2o2REn0j9m1wKsZhFuzZen7HMOgDNDwknyCRA9p6wQBwIxJpkHGIdDVy4poR4E0spkezweD6kGaGXcuHFw08KFC7n88izhZz1TuB4MHjyY5eBUmbXA1GT8GxsbWwv/38tQPGAYcDqHwAhcooMypM+mgZLFYk1ZQe7C/pQ7OiB9WIOy/2967uhL+WUe/1YcwBdvFkgE6mETQDjJqSMZBkiEStiEenwAsSfpIAgFGXriLmq4BELOL370O9cI2JbB45gaEObjp1kUTN19liwKjoEaNmHoQ/0sFutCdggnjecgp8fdIuiqiGJlv9BvgX4LfG4W6HMOgKCSJAMUT5jvsgkbAhLK7g6ADQGc4gK6gVxgGdh/0KBBpBcmTZrELS7ZGXxuFvySPAhf6+ZzWBqSciR8gDv39sIHubgDwAH//Oc/P/fcc0nQsRykhsjd4Z45pUetH/0W6LdAH7FAn3MA8AVRoUslxIwHH3zwf/7zH5L7nD2++eabf/vb3y644AIUSC/ceOONL7zwwqOPPnr55Zf/5je/OeKII0hTEGliWRQoP1PwiCI+0wd9zM6Lg+khfMzmH6mGM8a2mB0qx/Vy/FtXV8ezCPZpixtmQ8AW7etf//q99957ww03nHTSSZzb33fffQ899NCVV16JMuE/PbCyRdCwCLrqFUWFPiIoQlKEDGRJ6hqwZSFIfKii3FhfqN70rKCPzOHjDKOv6kgSVpadQtpi7k3igxaltImO+3eBKN3JkcFz4V5+OUu5r02bGJ8hQTGE/CeccMJhhx2GQPKBtDIsgz+ATU499VRy/TNmzFiyZMn8+fMlSUJtzz33hKSWLVtGGnrfffelk35sRwtA7osXL8Y9/+53v8MTQ+5w/U9/+tORI0cOGzaM5D6ZulGjRu26667Dhw8fMmQINcjI8+YAABAASURBVOwVAAIKqLGCOI/tOKQvtisn+28Lfj8OCsIXO57+p2+TBaD+bdLfWZV5e/vW1HAAELplWSNGjDjxhBOPPPJIMsg4gEQi8dZbb5HbIb1w4oknHnfccSSgSQHNnTv3/fffnz59OtsFdgCwDEmklStX9q1Z7fijIcAnfmcHQL5nwYIFc+bMYY1YBZaAHB1Ez6rhng866CA0yfawatA9QNh999333ntv1ovm3S1B4FxE9/p+ud8C/Rb4fCzQFx0A4T+TJ8kwZOiQoYV/3J8ENCJhvksiRKMQx1//+lcSzQsXLiQLdN111911111Lliwh3uR8kmw1PfTjk1qgl3ZsvzA7XL9hw4bly5ezLcMTr1u3rqmpCd8MIPfRo0dTicwmDDeAVwAILCI7ANYFnV667q/qt0C/Bb4gC/Q5BwB9KIoCg8MXsAmJ47a2Nqjn3cnvhsNheJ8jYjzB6aef/u1vf/vll1++/fbb//73v//sZz877bTTIBpCTsJ/olTi0yJoVcQXZOcd/rEE+FiVDBuJIPdQl93Ygw8+yOYMO7M5wG2z/WKl0ORAHoPjjLnFarJLwGHgxfEHO7oh+MEA8j87+kT6x99vASzAy0zZtwCbkEOALCAXeARmgUfc3EJnZyceAup56aWX7r77bg4Y77zzzj//+c/4gCeffJLkD04Ct9G35rNTjIYQHkLnyJfTXdaCdUG+9tproXvifQ4AsDy7BHwDMpVk5Nx5I+APmpubWU2W0q3cCUqSyABPAHaC6fRP4ctpgV4cwBdrCKifmBGWX7VqFeE/boBLgseGhgYiUA4hYSL2B5AOMv7gJz/5yaWXXrrHHnsQ+zNyXAWnCFAVcj+2owVWr15NAocUEDE+qTZcL073qaeewt2yOqwRz5o2bRrbL1YQ4AmoAZzMs5Q0xz1QT00/+i3Qb4E+YoE+5wAI/yEUYsZ58+YRM0LohI2UeALiSnifpPMLL7ywdu3ar371q5dddtkDDzwArZx55pkXXXQRZITnwG30/33z7f56cZbLEhDIr1mzhkPdP/zhD7fddtvxxx/PUQ3szwLB+FOmTFm6dCmPZhEJ/BEAAktGQ1YTTWr60W+Bfgv0EQv0OQdAwIgDqK2thUTuuOOO//3vfwSegwYNqqmpIedA5dtvv03qmRMCNgSLFi269dZbUYP0x4wZQ4zJtmDIkCFwDW6jiD5i6x16GPA4Nif8xzGTbeP05a233iILRzoO6icjRP5tzpw5t9xyy7333ks6CGVyQRzYvPnmmzfddNMrr7yCb8aF7NBG+BIMfrMpSpboFZsp9lfsiBbocw6A4J04kXwOJE44Cd3ff//9ZPkfeeSRfxc+jz/+uHsO6aYjnnnmmf/7/f8R+6PPAuAhcAykhpD7sR0twJ6M7RcH8rNmzXr44YdhefZezz333MSJE8m54XQ55uVxZOpIDbFFuOaaa37xi1/85S9/Yfk4Osavs0Y4cnR2DliSALYkwM4xo95nYcuiV/Su3Zdq8Vt9aTh9cyx9zgF0NxNB5QcffPD888/fc889991331133fXYY49NnTp1/fr169atmzt37tNPP40DmDBxApQEGRFykg4i8IePuvfTL396CxD7V1dXU2LkYDAI3VOSlONIhpIkD3532LBhBP7cIl/EKT27BBaLLQI7M1wyYOE+/Ui+2B4sIUC3MXAFulV8cpEfI+jZnqNm0LN2m66hwiK2qWGXMqPqga4bfejL9VJdA2K0BYlZF777iy1ZYKOltnT/c68nkCfnQ1DJVoCzXMgllUrhCeARzhKR4SD4nUh/4cKFzxY+CMuXL4dl3K0DREMnn/vAd4YHbmkOpPgJ/zEs9mdFuCTJgzInMYT2rBeWxx+Q5OF8mLVAYO1YRLwFGzWyc3V1deigTKudEfgAsP1n9mmpf/uPqL/HncoCfc4BkCYmoQwQYBDOA7A3QSUpCGidGhwAXEOYT1YawEqEnyQZiEDxAbRC3+/3U/ZjO1oAB4D9ASsCp+MAXLAQ+APIHeOTuBs9evTw4cNR4FSGJSNlxAkBbXESDAav4ATQTlwGXfYA93sDyr2iN12nrldlKp17vf3hVq/oTbdHHckfskDOjHrc6H7Za+fFyi5NfobAuaBP4EhCuOwvuRfbWMpExM4/VNE9Q4XBt7GXLnUa9kDXjb795YwZG0q26I7uY2b5eqD73S+D3PXa9Z2pEvjDJvAFXMMRIvxCPqG8vPzggw/ea6+9IJ3GxsYFCxbA+ISTEA2VlGR+SFCwLWAiZCHwHwj92F4WcFcBC5PH55idRP/q1atxvciYGqeLhyb/g/2pxxPD/iee6PwzHmPHjsVhsyHAGeAeWKntNaQvvh9IvEc26DMbEz4AItvW7ntrYgln2B+7J5QlQ/QO62P38hkoOu5tY7eO3Od4bOPg+vp3N8P1vaFCK/D76aeffvHFF//qV7+6/vrrv/vd755wwgnQEJsAyhEjRpAaWrNmDQxVX18PGTU3N1PCQYSlfW9CO+qI3LQPLhkqh8exLSVOmtCezRb1HR0dkD7JHzz0b37zm5kzZ/7yl7+87rrrrr322u9///uHH344zoM1wmfvqCbYOG4Cxo2iQLagSK7dEuHTwCEyt73l0PQn7RPeB25H3Uqrm7xlkYcW4Wo57J8XUg8Y7k13nDwOuDUILtxLdjO2ZAFXs6t07xVKWVgfwnY2PW7zLZWFRm7hcJfkGE0WtixJqhAyVZIthM23q9NffoQF+pylYBOYhYierQD8/pWvfOWyyy774Q9/uP/++x9//PEnn3zykUceiVeoqalhowCnvPHGG5wDP/TQQ7/73e/22GMPYkxCThjqI+bdf3tbLIBPJboHHPmeccYZf/nLXzh1nzBhwlNPPcVaVFRUcDaAb9hzzz1//OMfn3feeezSWAWU991334MOOoh6lpL1IiO0LY/dQXQli4HCRBLUgyRkV97KT8u2bBeOerc/0KV7hzoUTMsSlq0ISZEVamRhKbah2XmflQ2Y6aCZDJrxgJX0WWlNpBWRlaW8LAwhOeNBH/9Eh0JwacGnik1zBErDZ+aDRjasZynpzWvlFZGXpbxiWZplUcq2JSSH9BU7r4m0JkVV0arJLQW0aSKqiaQisoptKCgKIQmhSJJaGKcofHhi4VuYwgYGpSSwEBAbRyg7Y3O1Pm7JjIBwjSwpkiTJQlExkhC6aVDNb9/GcKaVty1dGJZs9do1xum1/stWKfe1CcP7LCEMMnjwYKj/pJNOIunMIbCu6xs2bMA3kFs4//zzWXhCztNOO+3999/nKPKee+6ZMWPGqFGjSECTkaCHbZ0XTQYNGsShJccMjAEPxP6D8JbLXsEtKA8PhBpJKnYkNEGTGrpCoB6BwQOEbR3PtuoTXLP74ek8FxlzkZ/h0WyGmBR+ERvCv5A1oyW3RsxOrgxNTlC4VBRlwIABKGzpuUyBPrE5AnZev379jTfe+OKLL7IQbMVI9JPfP+WUU8aPH48CXVHDo1ky3MbZ55x53HHHeL2abZt2t48kSx8+DlLoFR9qbCr1qkzlplofXnGrV3yosanUXXmTOz1/MlCJZMnk3FVTFbYDzVY0U1VMlUphy1DeJpAsWAlAi7ql65apmw4M2zAsgmXnYejz5ZhLmJIsNEUKBfxWPq/lM7mWNYsnvzjh3zc98/frnrjll//+3TWP/uv/lsx4rXnNgjUrFyQSLaGAN5/LlJaVhIIhRVUN02SJYf+qQKRM9VSEQnWRQCDVUZ5orzKTNel2X7R5YJnHL6W9UjYojKAthxXVq1imnDLMWKKlMbpmWaZ1gd9eIdKzRHqOmfzATC7Ldi63kk2qntUsw8xkYFonArcdj0UFDwVmYV7Yx5SFroi8bOuKZcjM0cIHyMIS2/jBaL6IP2cxvyxm5W3HNfps1SOptpB1nq4ovF+qYcum45p0WZhc23b350gbrxhY9/ovp9zzbf7CreAsqqJAr6FQaODAgRAW/MUiwmW8T8jUEFQSeEI9s2bNQhOWgbuPOOIIdg/UcDzA3W2dCBkkXA6JbOJWCA4ggL238DnwwAMhu0MPPZStCV4HVrUsCz7luQg4KtIjzIVZMGDOMKj/TDFkyBASZTgh8jDHHXccA1u5ciUUz9kJxsFWTO3oo49mDNDBAQccQHYelwD1U3nUUUeR0MfpYnAUekU0GoX9mSDMjicg1cNWjCfSCTNlFXgWdqDE+VFTW1uLjFkCgUAwECwrL8MISCylbRX+t+nPsteH9tVK91djwWKFaFTYsiWEZUFtwPUcwqE5KMZV6D4R1kKRZVVRNU3hfS5C8WhU8c5Iitu/QFOSMBh+wcikE7lULJfq1BPRdPPaXOvqXPOKfPMqK7rBirXkY83ZRGsuFY1H29qa1jesW3XnHf/8793/feCBBx56+IHXXntl7qzZa5cv27ByVdPiJY0zZze8PmnNhBfbnnlh/fMvr3nt9ZVvT0puWBttWh/d0BhrauxoWN/WuK51w5oWKls2pKPNZrZNMlsV0a6IVnYDmohHW9fE2tbHWhuT7a2KbckSaR6LgNyrasUZuYKGN1E8sqRKQhFCdp0i9C3ZAgg+tixcIH8UYrF2W5gBrw84j5QERsb6hiwLj2JKAstqigJUufApGFH0f7Zgga5XbQt3v4BqQlHeG3gT7oBEIBr4FJ6C3DlIBGQboBKomagWjrvhhhv++c9//u1vf/vmN7953333QXNjxoyZP38+v5ttGj1PQV/TNLiM2LmI3BY+jAeHRCsIkdCbS+REIoEQ4yVtb2eovHv0yeBXrVqFsL1At6BHb7vssst3vvMd3AC+55prruGwBBlCJyeDP8CSJNBIx5ONIWD/6le/yp4J38AlqTOUGTwOAOP36LZ4STKHXQ4Gf+65537xi19cccUV5OXYojFlnqiqKivFugQCASyfzWapxD78BFlNUFZaxtYEgUegrCoqQrHzHUuAcdwBwzvwfkG2TNnQlbwDdWOp5qncqFDQ2nrRRYL8JIGQFVnzOEayLIOINx7tTIB4NBnvSMQh+s4kZazd1DOmkTH1nKHnhG3mU8nO1uam9ev+/e9/3XvvvaRGn3ziiddee3Xe/LlNTc3JtjZ97fr8vMXx16a1P/1Gx9Ovt094q+3Vd5venpZvaEk3tSRaWmMtLYn2tlRbe6a1PYV+Os0A8EMCxyaYsSXZDnKZVCYRj0fbGAzDk0yDh+u5bEFt4zxt/ILD+Iola5bsNWWPobI3Us3C9shydkuCPZOQLQkIDLt1YEyif78se1RNZ8JmLmXnEiIXl4ycbMl+f8bSJQXLKR5b8ptSwKJ3fivSxgH1f/e0gPOq9az7Qq955UkawMLQDXzBWKBUUhPQFpdG4ZPP59Gpq6uDUx588MGHH3743Xff/c9//vP1r38dt7Fu3TrIiIbbBNgK5oKwHHoq/MEZAOf16e1PJpNhLKZh4gBwRaNHjyaUPuuss0iDcEwN5xJWw7C77bYC41XGAAAQAElEQVQb2fBcLrdNg9mKMkzt3kUADM29ZAfDpgQ3QPpln332OeaYY9iawM6MBJZnIoTnbJIOO+wwLMn+Bk/JzonAnzh9r732Qgeny0Tc3jYv2Vox0/322w/vgsd97733Xnnllauuuor1cseAAbOZLDNFALiKpqamVCrFIIHqRLekly1+neg7kHeGnyWEVYhDTUs2EEzZQrAkN/wvyDKkuYk5ec1My9J1ndcYc20EhGYaummZAgghy5KsKZIKhZp5U8/kUvFsKpZLxnOpmGyRSslLDumZflX1KYpfU/2aHCL8lm0rl82kkivXrlu6dMmiBR8sWbJ09eo18XgcJkYzbJqBWMK7foOyZLW8eJW2dI26plE0NmmZrJ13HpTX0+TUVdnSJOGRbEU2HU532Z+yAFlwV1IkW5WFZOfNbCaTShj5rKnnMrlcJu/MKVso9WzOzObtHJ5RyIaksP6WLNsyE7RtSQh6t02ZPBeQHQF5y6CF3+/x+cklGp3xzoyRzZjppJVLmdmsSe8KbtBgcGwLLMtjC9XEZWBve5MF6L/oZgFWottVHxBJHMMavEHZbJZsRiwWwxMQwEJVRJfwLDyFzgcffECqB818Pj9x4kQOh88999zXX3+dS0mS0KGEd1x8nGnJhQ90psgK/AXgd4Cn2Ry4IrgSZpdkiVFBvpA+bPirX/3q5z//OZuS//u//6Pk8tprryXc5nT644zh4+jwOjM1gIA+A8ZbMU64/s0332TjQuD/6quvLliwACeK41y0aBE2xA7UrFq1itQ/befPn8+kCOrJerFTQYfemBT5HO72Ch5E5zR8/PHHOXUnumSOl19+OQ3x0PgGLJZKsyApDIlTwTfjoUl/MUjLtnhKc0tztDOaTidNS2cXb1kGv05RIBRJ3spPFALtFXTcK3pVprJXZSq51Su49RGAjz5Cw71dmCMzZZqKKmNnv8+j+VSPV/V4VJ/mAZrqbIoE1CuTJ1EtSzLyuiYrhLmJZGdne3M+m5BNM+j1lEciPlVSbIOyqiyMM5DMfMCjDKyuCAe4G6SULTMgK5qs8XzTtBRJkguLCmWXhrylXjkiGREjF8pkfclUhRC1kWAoqHrDHjXikUs8aSWfJ1D3yv6AVlFZXhIO+TwytKxIJj0USjMc9ASYgmIrlpVOxvRMkpEEAl4Zr6VpkkYORlNUxfmSZE2SVSEBubDOvDOGZenCzlumCVnLEkP8mPCXBLN6qqljg+KTIxUlQpPSeko385FQcGBdHSvSEY8FSkKmbQuMiHOxBQ/tDmxSBPqgePklFPqcA4DodV3HAUBGhKjt7e2yLEMl8XgcqiWShUpwDOQrSLxQ/vKXv4QBiXPRIfYnMCfCXbFixbauJU/sQr7reytfPCWVSuGiAAPjEpczdOhQEuuE/ETTANKnHDduHGy4rYPZij4/HvcugqIo8LjP54PrcYe33HILJ+GY6M477/zJT34C43P3r3/96xtvvIEx33nnHRRwElgVD4HH+t///jdp0qTbb7/9v//9L6bDGeA+3c43L8m54eeoZ3UoccmnnnrqlVdeaRgGT4T9WZfZs2fPmzcPwefzsRXDR7I0yWSSkSxbuqyzo5N9AG0ZuQPLKbjcgQBZgE0H7ASZBX6RJVtWLFm2VCJcZErSEtwq6nu9XjZAuuG8YaalWwTABUJEQWYtZQVLaorf6/F7vf6AP5hKJXQ9rSqWz69qiqypQlNtTbHdGNdhTttyZLvAosKSuQRdgkN89AwUVXaa04MiS8JQRF6zHXjtrMfK+828z8wHJBmSR1PG7XgYieLVFJ+qCDNv2TnDzBsmu1iGbPAUwSNkocqSKkkq45FsU89l06lMOi4pilAUWeaPgp9SZbp0IaEvKxLbI52EkWSyWzI1wSaCmL0Q+1tMY+vQZast2Z6VDSWoagGPKfQ161euWbVMGHrE6y8LRRRVVTyaIQndZhMmeMPYoon+z5YtIAux5ZtfxB0oIxwOE7GSQ3j77bfJ7RB1wlmwPyxDDAuFAVjGzXXcdNNNJFtIv/zlL38hzb169WooiWNPxi7LMqWiEFLx/RGAQ3uAJzrwBwKbIRgIQvpuj9lsNhqNurRI6bolPBNjjsViyWSSoHv9+vWu8nYpC8GcRFdMDYoPBoNQLZ5y2rRpmAW/NXfuXIzGCCFibDh16lSYHUf11ltvYUCmibdAH18FreNNIWjMTj0ERLe9gs6ZJoa98MILzzrrLNe2Z599No+orKzEUExz8uTJ7MZefvllBoBHWbt27Zw5c1577bVnnn7mnXff6ejs6NUXMp1en9hnKz/0AZLDMu44FZPstkczPZrh6SoNj2J5BHTtagiHj7KZbGdHx4ampo72jvb2lrb2tvZWiraOVnZrLjra2qLtbR3UspqxWKdhZCBZjyq8qux1+E0hCy8L6F5ItsPyvOWQclel8yzHKwhhOWLhj8ejaF5iBdXjkRQnijdtxbRU3VZ0WeQ0K+8zjbAkg6CsBhQ5IMsIEeHU+FTZw0MLkAVcbQnJAB5N0jThdaD6vQq3spl4IhFrY1IdDL+d+XV08Jbx3drBJDub2zqbW6MbWpMt7cn2pJ02fbYcUHTFwBPgFWDqj0ReWGnZMv2K7VOyVmb1ulUzpr63cumSymCo1h8ZEK7UbIlJmrKsK3JOtZgei1XstmCM/mITC/DybHL9hV8QWlZXV0MKZJCJT4lVYZApU6bgEuCpRx99lAQ0SX9ifBwASe2Ghobvfe97HHVms1liWMYPIfLLQaCTYomwdcCb+ZwTmiFsAup6A53DfQCBdAdOi3ADioSRi+CSStgZha0//ZPd5dGapjEGpgwFw+akXMgF8US2IxzJ4jKxEpaBo6F7dACBvJdQVJYRYGS8FIMknUUnCD1GwiPohEqmQCs8HDrsM37/+9+zn2BjQaTPklGihi9hn8Ep8fPPP88hAavG8j3xxBOUc+fMZRg8UTiEKH9YupfCZTBIzIFzl3oXgle0VzCobuhSpqZX5cITXZ0e5Zb6767WTcdyZJ4CZMmSJVsogPwFoazFCYAkC4V6rGRaljMrIUzT+buPOdXoMGJtmbYN0aZ1revWbljHqws2rG8A+Mt169e4n5UrV61asQpjtrW1xKOd+WzGsnJOTkUVsiJklkSShC3zCH4Uko3tGIwDZL7cEkFI7E4K35KsyJIbkFvOYbWRVzmytiyF/YIhbJ3DGSHkgFB9kgOvUDxCoQQBXyDg9weDvmAw4PQlLMe1SJaqypoiK6qsqnbQ52V4hpFPJlPEOs5c+LN23dp169asBw1cIa5qWAVWNq5Y3ry8Mbm+U+5IB1IpfzwRiHYBeatIB9O5iK6XWQlvakN2w6xF0+fOn9u+tqU+VFctlwzwlvoM4WVNJIuVMTkCkFTYvzDs/qJ3C8i9V39xtWSTiVUhLzgFbpo+fToMcsMNN5xxxhnf/e53yT7Dzu7oYJz29nZibbL/3KUSOoN8YaWBAwfy85AkqbOzkxLW27BhA312dHRAYb2C5oqqyOzgLUvhdyYESR6P5qF5r4BkqWcwDIMOiXzJif/5z38m5UJWCtx8881Q5FNPPbV48WKCcfrfLiBOx0FefPHFpG7wfFxiLiiYMbggGYVLIOQHqqoyPNifcaKGMiSOW8JtMNOVK1ciMxEsg4lgHPJC9Elmn7MWmgDGDMugTCdsbnAnuAqyW5y933333WwIuMRVo1lTU0P/jIFu77nnnlv+dsuvrvvlM88929zWms7lw6VlgVDkg4WLIZPOjlg+b5mmxLkdSCeNoL+MXEARtsNMkFMBpmb3wId3HW9hW4XSlmzw4a3N2va4Vbzs0XnxsqjgCJL7FMuSshlD1fydHXFLtzWhZKKpgOLJp9JEmlo4aEimrVm+sNdU8rqU0uVcPpO2JDOj5tL+zKTFk2979Pbn3n0pIbJ5kTdswzYtB5CwaemmoZNpMQxLZxOLmM9ls3k9n01nLMNUNCGpwpIsU9hCluA1w7ILZ8Z2IZcm2bakyCorVSjhZ5kMjCQLlZ+4qdtMQJJkTfGXh+USn+FVs6qla3YezyhZDqfbNr0rPERSParHr3kC3oDfG0gnk3o+n8tkY51RSYgu2MKWbcBPQAhhK7Ysi5yhxxNRj+bzqj6v5vN4nIMOLlWPT/V6uKtb+bys57XszOXv3/zAn7//uyt/eMv3vvPXK77z12924ebLvrNVfP/mb1/z52u+/3/f/8Gfv3ftP/7fU2893ZnqqI4MUNqlH5777d1KBwV1KyCMVKyDgZmW1xZ+YauM0IUlMUVX7Col29lFdV18Kb94O/rWvOFKgBugDAaDUBW/hmQySQ10jyDLMixGLKkoCqkGQl2S0YcccgjJHyJNyBH2h3OZFS+BW9IKjjv88MO/9rWvHbSFz4gRI6zChyamZdI5MOAniXeeup6A7Gzbhu9gWAY2c+bMxx9/nOQ7vIwAEODBG2+8EbmhoaFn+096DdXCuXvvvTdkTeJr//33ZwAvvvjitvaHDbGtx+PBy2JbPAHWvuiii0jrn3766Zxe4FR4FnOkZ5Rhf0J43C35twceeIBJAQSCO9pyC3+JGqvDemX1DG0VRc3lMmvWrOzoaNVUdUDdgIEDB4VCkfLyyrKyilAwUlJSBrxefz5v2LZDYW4pBK/lluHG5gzLUXO+CvquABtBaRvhKGy5n090NxgMhMMlZeXl1eVVMF1A9Ud8JZFQiSRJhk7uQcUTZPSMEJasUGf7Q36hiKzItmQ6FjUsWd66akOyKZaNpXOpbNYFxsvmMYEJTZtCMhTVUjXF69O8Xi3g9RGB05GkyJRM0oTKFVnIqkXob0kyNwSpeEkSiiQhKJJTSs5HtiVJADwE1KdItqRIHdlkp55J2XpOCENh9yJMUaDFbC6TyyazuXg6W0AmkUoC4XwKHkIUy0KVZRq25SKn50nie3xefzAU6+yMd3ZGO50/HbHOaNRBS2d7guemOztTbZ3JjpSVzCu5jJKO6+2NsbUfH2s71qxsXLViw5rVresa2hvLKkt3G737aUee9s1zvhXIBXx5n8dQVUuWbGatCJv8G5Cd4fb/2YIFdhjrwC+GYaTTadI7EA1xLu/YrFmzLr300ksuueTb3/72ddddR5jPNBsbGwMBZ7sqSRKXiqLgANgcQJdXXHHFzVv47LXXXi6by7LMg4idgVX40MnmgDfpFp3amtqqyqpgMEjcza6FgREsA2p4tCRJ1Oy+++6b9/DJanA85PEfeugh5sv5B9kYHgpfb2tvEHQikaA3XCkTIXc0YMAAOiSZhusik8NeHjtjDWwAPSFwzM6MSMSxrXmp8EHAt7E0PB1XgRrK8I/qVQPhQBdCgZq6mrLKMsPWNzQ1NjY1tEMO0Y6mpkZsSJM8pBONOT9afrcFyDbc1kcRjXWmEp25VDqv64w/lUwTppt5WzHVfCqnknPIWflkVpNUv+pThGJJwpStvGRGU7H1zD3RiawFPYOHDR48MmYjEwAAEABJREFUbOjQIYA/g4YMHlw/eOCAwbWDBtbUDageMKCqpq66rrY2EomoqtexEmG4ns850LO6mXUEI8uBcr6rzCPkjXzezDsfI28YjJD9Ql4Xup7N5/V8Pp8x8jlZMrxeKRjwRiKOF5EkYeMvVRGOaJGwVBISpSGrJGiHA7Lf7/F5cUiyMLrBEsIQwjIM2zSsvGnlLCuH/5YVTyBYWl42atTosaPHOBgzduyYXUaPdTB21132OWSf3fbbffi4kQOH1VdUlIaDwUw8vXbpmnKttMJTWqGVfxxUeioG144YXj92l2G77zly771H7rPPyH32HUG5n2IEJDsk2X5h+aF+SdKEE/vLtiSK4C3tRw8LyD2uv/BLKAnA4JQwi67rkCwcOnjwYDIPw4YNMwqfeDzOXVI6CNwlkiUMh4KJakkBEc53nwhkR4dU7rPPPoO28BlYyBrxODjOsixJkhRZ4VEI3bsqygG/8188oc8uQVZkBMBdmkCsgMCcIJqaZOGDsF3AxogJLlmyBOpn20HeBqcY4ce8jb1jNNM0CT6ZIJakB4xJnxMnTiR9v2bNGqZA3h97Mi98LTZk50GJY8C3IQME2uIbWCy8hbMVyGc8Po3IngTwB4s/WLFuedpIpfRMXjjURPTni/jKqkoilRFfxJ8x0qpXDZUFgSkbRRiysVVYBisjWwUdSlDUt5xb3AVdCsVb20FghHkzrcs5S9VlzZY1SfNr/mAgEArZMpmbnKJIpmlgJRkGUlUhS/FMImNnTMVIm7m8bEg+NVgaqqgtr6wjZ1ZTU1sAYm0VBbFETW1FbW1FdU15TXVldXV1JFzK+askNCEptizToSQVwhqJYB/DK7LqkSRIjoyMLUkSz5UkxSmFkBxFp5Qkt15WhJJK5PJJ3cwJ22DIzl9bUixVxgdk8niydI5dSYbtdjKZSqQyyWTacQ9OV/RR6E4IGfq3LLJPOVPSTdJQdta0DFtRvD5fIFRRXlnBm1Hm/Hd/vD8uSspKDUkEwiGijXGjx5x39oU/v/pnd91850N3PnTdNb+5/gfXfxxcd/X1v77mN5ececll51z6rfO/deVF3z3jmHPG73n4kPJhfjOg2H5JeAVRv1ALY2TQ+CrR/9m6BeSt3/7870KgCj8jSSK8QoCYjjrqKFLeZ511Frn+E088kaRHOByG9yGmsWPHfutb37r66qsJh0866SS4iQHvuuuuNISYeGf5UUFSkB0saZomnbdt4YOH4A6aeBHbtumHHw3llmCxE5ck7sqynEwm+c2bJptpKoT7dHwSHCpJEnd5Lk6lCEfpk/6BkQ877DAOGzghJwNzzjnnMFp34sUuGVIRxcoeAgPGFTLCRYsWDRkyhDw+Fvv3v//NJd1i8F122QX3wKSYAp4MHRRohT/G/thz6dKl7MaYFBZmA0H/kiIUVT10/KGXfOOSp59/6h93/u07V3/3pDNOGTisdnXDqqbYhqpBFez9hQ+aziWNBKmA9nRLS7ypNdmihZWPi4hU0CyUyODDtoVK93KT+o/dudt2C6UakZQSWwoYvjItq2SySm5tW0N7pjMrcsPHjPCGfFpA9UV8oKSqRPJKsl/2lfq1sF8N+YRP2H41ZWRiuXhW6JYwbdskfy8sG7CILoi4HQiHvHi9VM3rwcmo/kQykc1mUqm0ZZm8x9g5GAqqqsJCsxysgq4brA4LmkomTdNSJREOBIIBhTOAkD/o8/k0TdUkudoTLpeCYV3zZKSA5anwllYEy4OyXwhWT/Jaks+W7UTayuSsnG4Ypp7VbUOWTEWyVYleLZnStmTN47NVNWeJdM40qFSoCAWCJczCtCW7C6YzR9v5XXgJmCQlm9LjbalUS0pNeQIZvy/l3aVyHNi1euzuNeN2H7DbHgN332vQHr1iz/o99qzfa/8h++09cO/dB+yx68A9BgYHlSmV3nzAyno8cliVfELIovCRJFuSdVC46qosyL0Usv3hdrOX2zt11UeY5vOfO7SeyWRgf95skhLHHHPM2Weffd55551yyilnFj5kqA8++OBgMEjUecABB/z6179euHAhJPvjH/+Y9D5CPp/nPCASYe9MLCA0TTPNrpw+AgmTXsEtqE1RFARmjWwYBpfIm0OSJNQYIQr89ghzysrK+B1yiczA3EsEapBdfty8n09WwwQT8QRROVZKpVI8godua1fMjiaYgqAMoufS4/EwKdcFMjXmBaGwHBiQ6B4fwzEAmTQ87v2Fz9tvvx3tjA6oGeBVvfhjRjVg4MDjjjv2zDPPOvuss6vrqo445shvXXX5D378/a8cd8TIXYeV15Z4S3yxXKw11ZqWMoFqX7gupFWoWoUSqgs2pZs+HhqbUmg2FpQL8oeX1IONlT3rufWpkWr0lgulzMp6k63pDe8veG/R2g9aUq1ZJWsHRGuipT3d1plpBxviG0Bnul3yy8InTNUk86OLvO2TJL9iKbbHDyf7fH7+5/P7fV6vF/trGsQuy4okwUlC2BZhv+ZR/JrmRTYNk5VKZzIsDW8gVOuWJovnQOeHkyFLZEG7dtYWKGezpq4LtoxNzc0NDY1r16zt7IzHEqlYLpfQzdZstiGbXpWMLo93xPVcLJfJQOcZPegJcgJsexRDliF3U+dHodrOX9onpQ5Uy1LiqVyKQ4O8kTNMjy8A/0t4EKH4fAHfZh+vx69KXkV4VdvrMf2DS4cOKxk8rGToiPDw9LpMan0quS4ZWxOPruhoX9bWuqR1c7QsaW1b0tqxuDmY1OR2O9OQia6ORtcnM1HTynsV2+uYSJaE87GEMITk/FOmhZJLp7b/T08LFK77nAPgZ8CbTYBJ1PmVr3wFut9vv/3wBCSgy8rKSAEdccQR7APYHXu9XrI6L7zwwq233vqPf/xDkqTddtuNYwA4EfbnLvyFDDEBCB0g8GPoFfyCFEVRFdU0TH5grrIs924fFADMCKBItg6ZTAaBYUOFxMUIVAIu+R2SqNlSV4VV2IYiFouRoL/htzfgFy+77LKHH36Y1M0ncABMkHHiAPi1IrAbYPp///vfzz//fLZTL7/88tq1a1kLhs1MsSSH7WhiQDwEd6+55hpOjG/8w40jho3kLDTWEWMOHE2ffvoZhx50KE7FUk1PWC2tLq0ZVHHAEQftffA+lmatb1tXWluSk9Nt2daMnDa8+bidiNmxvC/nqVR3AFTJS1oWrepYvqRp4YwVMxasn78h0yKXe6pHDxi3/1hPpSdQFQjVBMJ1IbVEUyJSuC7S2Nq4pnHt8vUrF69a3BJtNSTDVxIMlETSqXQqlU2l0sm0g3Qmg5ExL2+RYeRtCy7j3ZMVWdVUv6r4wsGQx+vl2rAsk/8B5z210CdQNwwDgR8O64VrCYRDA2uqWNPB9bUD6kpZMn4OiiLDi52y2eGTYiFvtDKQqC9tqwuvr/atL1fXydlOM5vKZXPpfC6nR7OphkxsbaIzw4h11dRVI68Im12MC08ubxn4J3YC0H+oxOcNq4qHdyDFq+9MqGtazlU6nSMFmJPVvFfN+705P4yfXpfKrk1RjqkdN7p23Ji6XcYO2HWXQbvuNni3PYbuujn2HLor2Gvw7gM81QM91XWe6mpfdWmgKhioDAQrPIESochCYn55S2SF7CIt5LzjDArbKcbWj80tIG9e9cXWwN0+n09VVUj/kEMO4XiTH8bixYshPg4/CfAhfc5UCUV53XnpR44cSSj629/+llcNqsJtBAIBmJdbkC/kSIksyzIeAgGu7BX8hGBz5wdmGvSMbBjGlkxBV9ylT8BDeSKjHT16NCkp3BVjJk8FGyJ/5civHH744dtxB8CPuby8nMcNGzaMnnGHdXV169at29JQt1TPyOF3cv3Yp6SkBOpBwI1hOkqmTyUeF+LA/tFoFEuSXmCm9fX1PLGhoQH9Aw88cFDdINu0k5kUmrvuvsu4PccaUn7u0nkvv/vKP++/4/qbf/Pbv/1+wjvPeQZ6Buw7KDgy/M6yKQ+89ugtD/39pvtu/usDt95494033nvTXx+8+Y/33PTx8Jc/3ovmXwrKlEVQ6aKggA64h7tu5RbKe2/847bgxntuuu/FBx9/68ln3nv26XeffmPOpEXLl6byGX/Y/8b0Nx5+6cEHX33goTcefvDNh+596e57X/7fQ288Mm319JlLZ85aMGPWnJktTc3sAcpCpXUVNQEt6C/8F79en+b1OvCoisb7x8JIiiD8F7IpqXlJMRRN8QZK8KUlFf5AmeaP5CV/RvKmlUBC9ieElrI8GVPNmZrXF/EHS0KR8tLyirPPOufss889+ywHxxx30lHHHL/LHnsPGDFm9L4HDTnw0AFHHVl9/HFDzjtn0Lln1p926ojjj6/eZbf6MbsMGT120MiRFTW14bIqb7hcDUZyQqRtKW15c2bIsEsLiBgiJOHitJA3EA6EIiy9x6Op/MRsUZgLFZuAN02VNdV24JF8PsXvTF8N+NVAZ0u0syXetqG9tbG1aW3ThtUb1q3oHQ0rNmxY1ZhsjevJnGLJftXnVTXLMBKJJLthHKKTt8VwXbAK325ZEPuL3izQ5xwAPA7/QjSQJlzP0pJ8GDt2LAkWWKm1tRUyUhSF1BAkSCw8YcIEomAy108//TQ8CFvBU2PGjEEHX8JGATqDMWnI9M1NP3B3Ebqu85qiQw1PRz8cCjMSanoFDonOUOCJNPz6179OXuTJJ5/873//S4DMYB599NFnn332iSefuPTSS2HMXjv5BJUQMWb5xS9+wYN++tOfQheYCFNsa1dMk+0RngyPgjNj5wSz/+pXv3r11VdvuOGGE044AQfAzgAd3AAGwSvzm1ZVFU3O0t944w32XkOGDFU1rSRYUhooxcgDBg8oqytt01sff/WR59+dsLh50YLmhTMbZ729dvLU1pnt5TFlrG+12vDq6kkzOue8vvLddzfMmNY2Z0rj9NeWTZrcMK2I9xqmFTG1cXoPvNc4E0xunN0ruFVEj4bFy/c2TO9C4/TJG3rHe43TN8P79PDmksmPTXluwpyX50UXxn2pshHlQV9owZwFz7814ckpjz829eG7Jt31wMwHHpr9yDOLJ943+f7/vPKfx9999IU3JyyYM9ubl0488JhDxx1QJkfUvC3rtuAdApaJIFuWKlThZLH5VcqWRPgqZSUpq8imx5c3tIH1Y4aN2KN60NjaXfat2/vQbOWQWHhAp1apRwZIkXpfpL68ZtiAASPq6ocecMih37/m6su/9c1vX3nV1df86Kc/+eWYXfax/WW+qoFJEVBqR4w66+I9v/ujivO+Vv+1b40892uRPQ42/TWyt8IOhO2g31tRVlk7aNTQPXfZZX+5xCfKfHa4xgoOTth1ICUqdLWytHxoZdXQAQOGDRk8NODzKJIp2ZYtDMvSDVvXrTwwzLwLU89ZRl6yTVUWsibZqtAVK6/Zhmrj7ICiqSq/Ih+Zp6A/GOqBYCAE/AH8TVDxey1N6ELPmynDTCtSzufVg2TVsGYkRAoAABAASURBVCHW4xDY9tiWVoRky5ItXIgtfCxJFLEFlZ22mletb83NMAwoFd4hwAyFQrgBv99P4A+tQ3bUBIPBsrIy+D1f+LjHAH/84x85JMBJsDOA2ubOnbuts4LKYUPK7g17XHa/BQvzrJKSEtwMzgO/xZj5LTNORpvNZqlBH/cTi8aoRN4uIBWDZd57772XXnpp8aLFkHJJSUlTU9O2ds7A+MVhMeYYCDh/ownPih+l53nz5uFK8SsYGGNidjRZFyyPTD1gjZgmvnnxokXN7c26ofMz1s18Ih3XRSZSGczomfXNjesa1rUno1k73xJvbUm25ZR8KpfIm6QEMrFkRyLREY9HHSSiiW5watz6rZSJaDwRjSUdIHyIePRjNSfr7aCgzDB6oLdOEslEIpGyLUUyFV4VVVKtnC1n1UA66M8EPYZHs516W4KKzDwkaBq6abS0bUgmYiHNO7J28PhdDtxn2O5DywfZcV2DDO3Cr08iSgVCsYj5LZlKjmELp5KmLLuwZCVn2LmcsBWfP1K91yFHHn36eVf85NfX/PoP/+/GWy753o8OPfrkwSN3LS2vNWWtvTO2oblVN20G6QTmihfSNYWaF0pO9uRlX1L1tfkCjYHQ+mBkQyDU7g0l1EBW9umSR5dVYEoqsAp8GqmsC5RXa+Ea4a/VQoPV4CA1ONATrFM9ZYpaYkte01JswUQKsGWYVAhrIz58K3EPwK23MJEkzAIK+h+qbUEqdO7apIusLTop5HwMSThwGtqy+BCqwM9w6dzo/7NFC2DZLd77Qm7AaLAMTAr7QKmwP7EnZMrbDE9xyaggo1gsFo/HEZ5++mlC73vvvfeRRx6ZMmUKDQcOHIiHQO0zRXt7O7FwY2MjYTJj41mhUIgEVE1NDYzMLHAMjNbr8YbCISpdHdQ+JaDd+fPns+nB5z308EMLFiyAo3nQtnZLK9ifiJ4OAc4Mp/X8888T/t93331z5szBvFTSM66C/RDsTxN8A3bG2ijoWV1R5HUb1iXTSX6bZKQxBQfFmuzZfeweB+998G7Ddt133L7HH3L8uceds+fgPavk6lqlelzZyPFD9jl27OHHjDr0qNEOji6UXH5+GH3wMaMP3YiDe3lud4VRhx3j4IijRxwOTt/7JHDaHqeeuvspp+126qm7nnLKrqefuvsZp+9+5mm7n+XijD3PPmPPM0/f68zT9j71gsPPO/Og08897MxvnHTRt86+5Nj9jxpRPiQgvIrV9dOzJQGEQ5rFNeRWAfAXKFSXlZXbshzPZBPZXDprqFrAH4x4AxFJ8cDUumnmDb25vSOdySleb6i0TPVosqrhBThOoLQkGZiSbDj+SzGVAlTJUBUXlqJYimTJChA4c1kSsmRLSihc6/PXebQqRamQpTJFLleUUlkOB4LVHk+ZJAVNy2vZfmALj3ACcLmwiRFb+Gz97hYafYxqycaEtvv5GOr9Kl0WYD26pD7yBW+GQiEIFG4iDoV9JEnCGVAZDAYVRcErwLzEvPgAKOnmm28mdwFDQbLwL/WEpXTymU6H94xR8XRZlnkWjI/jwSUwDKLjaDSKzEjIsK9ctRJaJF6myXYZEjQ9evTo008//Wtf+9ruu+9OjguOLi0tZTBFfOSDUHAtzLDdVpqmMQvOFY488khOL8gp0S1m5y5zZAeADybJM2rUqIMPPhg7M9N//vOfDEPItubXZE1my9/Q0Nje0urz+HcbvfvZJ5919vFnXXnhFd84/esHjDiwJB9pnt+0evKKr4w+7MwDT/vGcV/91smXfuukS7918mXfPPmyK0+81JG5POnSKyhPvvRbW4arcCVqJ116xYkOim2dypO72rpqvfVzCa02Nrmk+6M3Vl5aqLyk65IOT7r8WyddfsXJ37ri5CsvOuyrXz38qxcdeeFFR1504REXXnj4RRccdsGFh1x43iEXnHvweeccdO65B5571gHnnHXgOWcfcNZZB551/hHnn7DXsQePPGC/IftUSGW+rKJ3ZLIdackuhKusRA9Q79T0/GFmjHyazIqs+MNhf6hE84dyppTM5OF0QmmdYFiyyyoq/JGQonl52QzbsmxIsWc/9G1Jogguu6GbcmEYtiRLss+2A7qhZfNy3jkKVvN5j66Tfg8pqt8SHsNSTFsFFrkXoRbYnx1At177xT5sgW5L3jdGCemz04boV65c+cwzz7z11luMi4ieXBA+gCPKyZMnk4BeuHChZVnQH9meJUuWDB48eLfddotEIvAURAZD0coFTL0luAqfoKRD/BMUyaYEJmVUkyZNuuOOOwif//a3v/31r3+l/M9//kPN3XffTa4Gj/UJntJrE/ZDnHCcfPLJl1xyyWWXXQYj42mWL1/eXRnLFNG9vrvMyInx8Uw4D6awatUqJnXBBRdcd911F198McZEobGxkc0BZmdT5TizlSuROdm+6qqrrv7B1ffcd8+rb7yqelVTNijpbfnyZW++9vba5WuttHnIuEOO3PPIXQfuUilXRJd2bpi1wVyeEWusQCpUaVUN1OpHRkYNkAeMiYzes3qP3Wr22K1qt3Fl40aXjKF+TGTM2JKxLkaHR/fAqIhTM5IyMnpkiYPRkdEunMqN+q5aj7bu5Ye36IG2G5u4dymdfjarHxUaCYYFhg/zDR2kDapX6h2o9fVq/QCNclC9OmiQNrjeM3gw0AYP1gYPUAbWiNpBgSGDAoPL5fKwGTSjhpS0y/1lqiVv+tvjqsslsBCSZANFkhwIyZKEKWyDC00RmicUKQ9FKiMlVaXl1ZGy8nBpeaQsHIpEhGKjZnGYIDlLDf1Lsg1k2+oGIQvLhWIJxep+CxmH7rTlj21JwLCEaUumrQhbtWwPjF+Ams7mM/mcYZmmLdlOI9kWqoVg28LGJVnUCmF1A10CtwahH33CArx2fWIcxUHAR5AXuR0ifaiTo9QZM2Z88MEHs2fPnjVr1rTCZ8rkKfgJnERlZSXx6ZAhQyCs4cOHRyIRjlupwT0UO/yMBEaIswEIRP2kYsifPPDAAyRnisCBcSA8e/ZsNiVMaruMhGB86tSpuBbcDOfApIMI93BFlEV8nAcR++PDsCHjp09cZiwWe+yxx2677TaGvXTpUvZe+F18A06io6ODnQHmJfPz+OOP33LLLX+66U/kglCLlIY1TU3nUh3tHfPnLpg65f2XJrzy5otvzZs+Z/bkmW8999Yz9z799N3PrJm1Vkv7h5aN9KT8QbMkZJaqaa+W8/vNsM8IiZQqJTUprclpTcl4lYxHyXq7gLwp5IwHODoZz+Ylt4rY/G6hxidnPV3I+JQsz+oFcmajWsZVVuWsKmdUNaepOY8n7/UaHhcenRpZzjh/V0akTGCnTDtlAyWtenL+EitSoVZW+6pDSklIDQe0IBC2/CHg5I1rJtkbpW7fiiJ7fJrKQEwjkUo3NLdsaG5vbYu2tHW0tnW2trchtHW0501DkRVN1VRVEbJE+N6tj48QeS7oRakwTkkokqKqHq/i9SmegOzx2irnuZIlbIDXAZYkQIHxhfPhpvPV/6evWWCT8cibXPWBCyJcok6CIEVRINbp06fDOHANeeeHH374ueeeg1Knz5je2toaCoWge7gP8sVJQFiBQACehbAot9dUGEkR3fuEDT2FDwJEybB5Oklzti9FwPvkxPP5PF6te9tPI3PgjFkgYmiaWZNrKi8vHzFixLb2ScDOyAG8T59VlVXMBkf7z3/+c+LEiWy/sCHTYVIYFmvjaXgum4+vfvWrJ554Iq7XkqyaATWlZaXBSBA/oahKojOxdvnqt19757nHnvu/X/3+b3/6+7/++q+//fHvM96cobebtYF6jx6Qsh6viHjIHeuqJPwu9Kyc0xXyDLbpBYbpMQzNtDwFcMy4CVCwLEfNLJRcIrhA5pYLZLdy85Jbrg4l8tYVLFuzbKULQrJtCZrrBsOWTVUTqk/2BFRvUPMHNF9ACwC/P+gL2jlbT4lsp5Foy+YS+Uwyn0plk+msJclFiMKHELrwayT1zrcDGLkAauBWC4PTREhqMFwWKSmLlFaVVdSUVVSXOSW7gUpbkg3LBrak8tISbJs2wTsD/vBZNp1JiiU7MFXJVBVbdiBkBUiFLYdb45YMzSowO46JDh25sMPguNeS3CEZXYJs2EAStpBd0Ha7oKv/wuO2S4f9nRQtIBelPiJA34lEAjIKh8MQK/LMmTM55n3iiSfYELABILonyc5oORKAv1avXs0xAPkWN6RlZwC1jRs3DgXbJg9qIWwrbJu33WnEr8j56u0Pj2OPAlyBhzJUmBQ6LkJVVZpqmkZWCmG7AKdCFv7Xv/71n/70pyuuuIKEDCE8KSDGrBQ+CLIsUwKELT0U6+FoGT92xousWLmCGtJKd955549+9CMegdPCmEwKBTJs3KV7+mRSPO7999//4IMFLJbP5w+HwhUVFTU1tWXlZdH2+KrlaxbMXfDma+8sXLCos60Tyqsqq6mtqvUo3rbmNtOwFUWTVSjeVolWFc0ybZMw0oY5yCF0gXxCAbIt9QJLkoEgKeGkHdy/7+GUVAIheKvlXht2VZKqtgv6QrY2yqJQ45ZUgoLcPU4XvExA2PTv2rVwJZgT6fl8Xs/m8pmMXgBCPpPN56qrq0MlEciUhInq83v9Pi/+weu3nEfz9C44fdqybMmy7fQs2bgaR3D/2JaUy+mG4VjMFwwJW87qBlsBgC9JpjLJdCaVyUmyBoPbtoQPMG18FaLbwSalLW28tJ3Z2ZgLOqcsolDPU4AlMVkHFt2ahq7rnDbrVt4UpiUbDiTL4X3ZsCXrw/B/4xP6v/u4BVjavjVCos58Pk9qhdAexuGSYBMOxRlQCfvANeQryH3DuVD/Pvvss2zZsn/84x+LFy8mSvX5fJAUtwhgmZiu6/AX8SnbBViYS3kLHwJhyC6VSqFGw2AwmM6kGQByEfiDItBknHRLSSX6BMs8NNntw6N4IujRT7HDTyBAKJwDM6PDDjuMwD+TyXAGwJiZNY8DCIyHkQAuc7kclwCBmiIwJvPFtuizkWIWWIBk2uGHHb7XXnthZ3qmFSNk/NzlicyRTjo6Opjp+PHjhw8Z0dzYjNk72zsh93wmRxkORGzD1lRvuLwskc60JRLCKyf0ZDwfM9S8GlJj2Y5QuT+e7AyXBizJiiaiUInAYcEjMIhiiwIs2fnLlNxCZ4uAPGkiWSh3AXkTGBZk2DusQrfCkrpDhu82ont9QRl6I/h14bSiEh3Lol5yRssshCy5sBSpALs905ky05bf0kq9WSln+WThVXXbtAvalELwG3QgQbtcULURipCAJElCyB45oAivJKmGbuqWgYqkCkmRJUUVsmLZim5azsjplkZCSJICZCHxoZMipG4Tlt0TZAtX4cC0JRe2LVk4IEm2JVkuPANPAGw6F7Jw5issSThasi0U0yrY3GZSts1dINm05xtlgNAF22nVJW/+JeMCC0Yo3uIRoHjZL2x3C2yyPNu9908LlNlnAAAQAElEQVTQIREurArvG4ZBpE8Q6jIObEUN/AX9QXkNDQ1QMJqkI0466aSLLrqIhDiZigEDBkBquAECc5m3V5JoBbXRCXc5zITOegVPxMfAdGjS8CMpG2XgTpD9CszIaHkQRFkEvz1cF11x19X89CUdMsKbbrrphBNO+MUvfgF977777jyXZyEDHsfcuQRcYgosBhC6P51LRgVIUtHh8OHD8SLsKr560Vf/8pe/cGqNQWpqanDDeAIMzkE3dsNtfPDBBy0tLTwRICQTCV03TMOgq47WDkoWpaZuQDAcKauoIvhVPJot25lsIq8n/QHeN0MIQ0gObJFzBUUy5QIk2wCyMLYO1flPiIwtlRvb5jcKW+xtYw+WarswVMsqotDckgWA9ii5Jbp2KFZRkFVLVk1Vswr//jD8VYTAnUCUlqnkTdlwYeGNHBmy5hbWkIWrX1gbCRmytwsX3QqWkmpJaLZFLa0ou8OtkbnbxbD4oe73N5UhbReSLQDypvcFnfSo4ZcEFMbxIWxbllzqxyN0Q4+m/Zd92gLuq9OHhgjdQDoAroHi4dahQ4fuv//+5DoOOOCAXXfdFRInFOUWtAXBwThQGImgxsZGVVWpIfwnhQ1bwZUAB0DUDCAs5kmHvWLNmjXU0zPsSVt8AL2h/+ELL0lcFoEaCjgMSZKgVwDz4nsYQHdQidNiV1Bs+CkF7EOf+Biey6zxOoyWS2aKANz+uQTFS7eyRwlT4wbYUeE1vR4vFL9kyRISbu+8886kSZMgejrHvHSOq8MfsPEiWcQxzA033PDnP/8ZJ4SQiCUt3SIkzaXz9E9vu+6+2xFHHHHCCSeecuqpJx5/7PiDD6qrqeLIMJdJm3pOkWxFIso3FNvQHOQ1O6/aTongQrXyXbDz3NoiimpFYev6W7pbbI7QXcfCHxRRZPyNgqnC+xvhUU2PtikUU1UsWbHxHIYs5YsQUl6SHFuJTT6y7UTcm1T1drHxBys5rqCbAvWbABJ3gY4l4Wy6wOXmkO2uumKTrmsh8BDd4TzDFuh3QeAaxbZ8rIKr2JYWQtiSVcS2tezX/igLsKAfpfL53o9EIhAcvAPTkZE47rjjLr300iuvvPLaa6/9yU9+8s1vfvOMM84gxY+HQCEWixG3wmKk3Un1QFjQImxFJ/A+/cDRCMyA7NB5550HQRMv94r33nuPDumHtpA71ElzeuvO5vRTBFQI6QN4FmaETPEfAPdTBO4B9qcraooNP6XAcyHZ66+/nsPwhx56qH5g/YoVKzACo+VZgDEwZRwY4JIRYh+AILo9m6lhMTZS2JDqZcuXYdL//e9/nKhzvMyOqr6+nvoieAq9UYkDZgBkjXAbCDyLetYLTXYMI0eOPODAA4859tgLL7zg4osvvvDCC08/44wD998PB6xIdjadgotkASdawjIk4UCxDSfWdomycMu5dDcBXZUFBbemWPZ6a5NKntJbQ6eHbrc+ogmaVoHs3HIj91lOst5NWci26grQvWTJRRQqhZAsichcuMTnlM7seKhNVzLcSudi0w98vWnFp7qC0z9V+00bM2DAmDdHURGFotwv9HEL9DkHgL1gLsJ5YnyOIs8888yjjjrqyCOP3H///Q895FCEo48++qCDDho0aBCcAvGtWrUqm83CRwTvOACCYtgWEuQSaoMWYTrUSHHgGOiZy15B6gl9fAA+g+ZknBRZgdoYT6+gf1wFHIqHYAtCMoQm7DyGDRvGs8jOQ4WjR48eM2YMtIhOsRPGUJQ/gcBOiFbQMRktyNfj9TC78rJyZCYLifMsxo8P40HwPhspBOoJ5JPJpKtDDQo0oZJZ0CFGw11hc9wVahgBTW6hgCYW5hyYSgSmiRpJIdaIJqhhTwScAQczLNBJJ57IAo0bM3a3cbsceOCBh40ff8KJJ+y5116Moa0tLkvOK2cVksWyJAGa9wDj2bkhCeHA8QHC/ViSVYDYEvvD4wBlFLrDxolsRPf6okwTGrpA3rzeraREh7IIyRbAvexB99Q74xcoFJ6NUERhUt31Rf+nD1vA+TX2teERU8M18Pvxxx9PtA6LQVXEqk3NTTAyTLTH7ntAr24EuqjwIWXx4IMPslEYO3YsJEWYTLAPzaFPZoO2VDJN8hjEqr0C/oJJYTe8CE+E13QDMtTh0yLooQg6hBlRg9cgvssvv/zZZ58lecI25Uc/+tE111zzgx/84Oc/+znlBRdcgA8rNvyUwtq1a+fNm/fjH/947733PuWUU9i4YJxFixdB9Ey2s7OT+cKnyPgzZooxkXFssDYGganRpMSBUcmssQnmYhNDDQZkd3X++effe++9eES8Gjoc+bIWTBOXQ9oND3fMMcece+65zPHqq6/GvfEIxoDXIUEH4w8YOFBVlFg01rihsb2jAx+5y7jd9tpzr+raAbIsJEkRnAkI2RSSm0g3JdUmrSLJhUtKsDHT3lW58RK1Inq9tUllt36KrbqEbrc+ogmacpE0PxQ4CmYv08XaRoG7LVO27G4oVAomK5w0iVwsJVul0pmSbVHL+2DJFj2bkgAILqgHyJRF9Lgs1m9F6N7Elj5UpL4Iarvf4nLrKPL75mrc2ryyv6YvWKDXMbhvYK+3vphK2BYqgViJ8UkBEYRCajAUJSeT8BE1u+2+G1E2ET2af//73++444677rrrnnvuWbp0KfRH0FpaWkqMDH/BXATj7A8gd4JWInSIrFfQFVRF/5AjBMowANS5JSvgfmBMyBTvMn369Hg8jk+CRi+84ELI8fTTTz/55JNd4fDDD4dV3X6gYFf4xCVPLC8vZ1KUDAAGB7giaBqBATMF9xaaTIGkDeyMY2OCGEGWIRsL86LMmJctW4ah8A3cHT16NKajFd3iPnEM6FODQfAlLAE7A577rW99C/dDpM8C7bHHHvgD2vIISnwzDphsGK6C2D7aGe3siHo0X+2A+iHDhlfX1pVVVNiSYrO1Eg7pm5JqCg/QJY8BZNX4EB5DLlRSvyWg0ANb0tx6ffdOumt+OBjZkIGTPPowqaQYxofIG0pe3xSmwsEvyWsZ9yZs99/JcUrb9siWR7IFG0wnOyRZvAy2cGJ/SxL2RiCD4iU6XFKiuU2gCQ1dIBc77CFwi3G4QAauAkI/dmIL9DkHAEMR/sNQhJZQDCwPu0H6EA18BHdDTFQiQHawFaE3uwRidfIwJCVoCxPBaFAYMsQEcxHMErBD67QlKO4VKNAhT6c5T6dn2tLDltZ+3bp1yUQSrmSQAE/DE52e8zkoGMKFNFPpFDXIuKIt9bOt9UyByeLMoGPGjIBfZMwMgGFgKCzDSLAV82Urg1vCgAyJShwDfgJlho1v4JLevvKVr5Bew4298sor6EPf9A+DsxOiB4aHJpbB5tyiK+zJtoMTiDlz5nCLZcJo2Ip9AH6XpzAwtikDBwxUVAUZN1NZWjZ0yPBgMAwd2hKEKEMulpAdSLLlwr3cnqXa1bPbf/dSqM6je32W1EXEFkKXQrcaKrvgxOyODv50I5wtTYHNMVoBRTqVhd0NdCt1/e7sbiF5ocmHBbdA8ZpnuTIttgluK7csduJedi8Za/fLfvlLYoGuF7HvzBbyhdRgHK/Hi+BSDBwHxcAvkCksDxlBzbA81A+3wjLQH2mWvfbai4nA3SgQt8JupCwgNbgJIoYZ4S/YqlegA/HBjDwI7qYtMr0xnl4RCUc2NG0go80A4DgeipuBdmlC/zyU5hA0l8jwMgL1lJ8SzAteZkgIlPTGU5gmp+U33njjAQccAL+zK3rkkUcwCyH5327723//+18cADH7s888e+ihh2LDm2666b777mMTgw/461//+u9//5uxMU7cAJanQybCmDEX9ncfx1pgIjYEsP/s2bOXLFnCccu77777/PPPYzd0MBrLxJbCyOWHDRm6es3qdCod8PoDfn86k2lqbEzGEulkUlh2AZJkuX+zw5QsB7KweBe7gctPDVvIvcJ51rZ03msnbqXFlmpT2LLcDbZFlC9hxm4wbds0JDMvm6Zwq02b9I9tSoW/Su9WFUpHE2XgWumTlwUj05ydRq8o2N9yS1dBKgzdlS0Jh2e5Mq8ccD0oggNbLno4fEw3uK0cFfePZDtnBq68ebnxKR/ecfW7lx/e65e2hwX4xW2PbrZfH7z38BrU09beBh9BKwSthP9E3BANHARBE4SS6uESkh09evSJJ5549tlnH3bYYYwC/oLsaIW8TYDBs9ksrEr/eIuPBKevpIwIcgP+AN6CMeMJIOIpU6a8//77M2bMgCVnzZo1c+ZM8k5wMQy7TePZVmVMgU1ohZtk+mTMIHcemtedv3E4dOhQZMM0IP2xY8bisbAzAwYITDaRSDB3jEkPvQL3wCzwvnTFUcG//vUv0v2vvvoqyjTE6yAwBhYL4Js5l66tq62oKFdkubm5qbmlhf2Qoqio9YBki42wugnIoHirVwGFHuhV7SMre3TS47K35kI4YXiBzrrTU0HeRF/09sH1uSzJTWiVErhzR+hHvwU+Nwv0OQcAm8DykDsBNUkG5z807eyEfWBYYlJKQtG33nrrgw8+IN6E8mB/jgoAITDRKJ4Db0GyYlstyEN5CpxO8AuFFQGp9Qo8DU0YrazIjOShhx4i6b/bbrtdddVV3//+9zkH5jQYkC4n3H7iiSe2dTzbqr9mzRpyOLhJTPTmm2++PeltmB3KfvLJJzEXvg1L/u9//+MAOZFMPPXUU6+99hqVABJ/8cUX8X9MH+e3peeyIrgHskzMdL/99vvGN76BzV9//XXOGNiN0RBvjf3ZEyBTKclSMBCUhdTa3DLl3cnzZs/paG3ze71OSC6cwNzlO8pNnwgfgk3r+uCVXYh5P8bAmGCvKETTJJcsIVl0gw4lQOgjYDA94Dott+xxq/9yB7WA3NfGDYNDYZSQOyQFqb3zzjuE0gS2xK1QLTIER1hN2oGahQsXvv322z//+c+hJ+YC6xHPEgIjbxPgSkgQQofZ6QFmBAhbAvsMmI5Qlya4HM6ZGSFH0wyb6JuBcWvFihXLly+nBorcpsF8AmVyPrfffjvmwiB/+9vf/nv3f2H8GTNm3HbbbQ888MD8+fMxI2E7tiJ1A1PffPPNTIEpI9x9991Mk30MTTBgEd2HgRdkT0OHJJHwKDyOqB/3hg52cCfIet1///0TJkyYNm3avLlzly5d4j538uTJCGyP8DHo92OjBRzq3yj3f/db4AuwQJ9zALAPDoAkPvTEUSSc8uijj0I3L7zwwl133XVn4QPNwaow9apVq1C+/vrrBw4c+NOf/vTCCy/kzJOG5IiKtqTDorwVgdgfFiOoh/fhKbwLQCBz4oJLmtObC54L40OLUCfOg30JgPTph0Q59exXSMLAkmxHCJZpu93BkIqAyonBGQwDYHuEG2B4DHXp0qXNzc2MBJnwn0CeaZLwmTp1Kl4KkNOnnn7oAZ3ug+SyCDI/I0aM4IwBVzdx4sTvfe97nBxgH1qRR2KObAsqKjrAnAAAEABJREFUKipwz/feey+u6P7/3ffYI48+88wzOBu2BZwZoNm98365mwXwBL2im0rfFD/2TqhvDr9/VH3OAcApECglIGYks0HgSfQKrXCYiRsgpoa/XIaFzkhxkJKG1F566SXoBgKCs/bdd193aZFd4SNLeD8ajeJXiN8R2ENAjjwIcoe5cCoodAfB8tq1a9Fhs4IzgHYhQXwSDSFccuWUtEWBWdDtRw7gUypUVlaS36+tJe1ewWBwP0T0WAlmxzhktKjBG+HMmAWVkDXWMwwDNfwTnoOR77nnnkyhiO5DYutAfolJHXHEEfja3/zmN7/97W9xvTgGnkJX9MCSUcL1bNHILOGnacXysYi4Rp7Oynbvs1/ut0C/BT5zC2z1AX3OAXQfLel4QnLIl4ie3QBkCsWQbyG2JcuMQOBPNPrnPzv/Lg10A5fBR7AbR6/08/HZH8qD2kgrQV7sKhBWrFixbNkywmdqFi1aRExNEqM7YFLcA2pkRaA5nIFLgoMHDybchm1hWOiYIbGbgZEZz2cKkmP4LYCAv2E7gt/iHAXaxT8xQVJVWA+ZYVMyfogbx4C5qPf7/SjgKrY0yBNOOAGbsxzsGB5//PHHHnsMf/znP/+ZCbJMtOVZbs+sDhbAzTAYgEC3WIBH4Cy31P+Xtd4N/L+ss++f9xdtgT7nAOALokhKAGXATYSNsBgETQ3mgkRgWwJw2BmyI90MRyPgIYg0KaE2WOnjsz990oRn0YSImEsXVALICzCGHiDGJ2RGk8AfNUoGyQiRKYn9mQUUDCeypWATgOZnCgYJm8PpCAwGD1RdXU0Nw8Zi+E4SNdA31M/wIH0MhQ7AsMzF9VJ4vi0NkjQObI4jQYdtFjOifw69yTUxU/idiePzcAY8Ak065HE8mibIPIh69gFb6r+/vt8C/Rb4/C3Q5xwAFEYoDREjwCMQKMwCcRBUkuWAo6kksibMdKNONgdQHoDsgMvjUM+2mpJ9BlQFibuMCXO5YCSAZ1G6A0MAPAsFBFrBpzA+l9AfxMrIoWB4ltHSG5e4MXR6xbaOcyv6jIQHMSSGwWBgfB5NJTICI8GSeCPGxkjIFzFUXBQ5fZrQLTyO9dApgsoiYHB6YFILFiwg20YujoOZa6+9lrwQj6AHnkIPCOiwOtgKQPo0pAYPRIl5ix32C5+LBfof0m+BrVmgzzmArQ32492Djz6e4pdFCz/UY6o4gB41/Zf9Fui3wJfQAjuhA/gSruK2TrnfAWyrxfr1+y2wU1qg3wHslMvaNan+r34L9Fug3wJbscAO6QCKSWqErcxtm27RFXCbECADV+5eUtkraFhEd/2+IHcfcHGQCH1hbP1j6LdAvwW+WAvskA7gizVZ/9P7LdBvgX4L9HkLfKwB9juAj2WmfqV+C/RboN8CO58Fdk4H4P5FIEoSIO6aIZim6cq9loqiUO/quMrICFR+qYDRvlTz7Z9svwW+zBbYOR0AK2oYBiXQNC0QCEDltm2nUql8Pg+zQ/fUe71eShekxUtKSlz6Q0YACPTwkaDzXvGRDVHoteFWKmnyidG9W+ygqqrf76fs0SFmoSaZTHI3Ho9HIhHXgN2bF2U0+9EHLdA/pH4LfBwL7JwOAH6HxaA23EAmk4HLYHMug8FgrPCJFj5tbW3tGz94hXQ6Da9hNZQRAJWU1Ox8wD5MLZfLQfF6tw9WopL5ctfj8WAxXAUGpKYf/Rbot8BOZoGd0wFsZZFGbPwMHz58yJAhgzd+YD2okN0A7A8fIgAcAJdb6W3HvYVrZHbMlBJ/WQSkzz4J9mf3A/UT+7Nz2lmNsOMuX//I+y2wXSywczoASA1Ch+OIZ8ljhEIhBMgOalu58bN69eolS5Ys2/hBn70CrAff0dwlRHqACreLoT/XTj7Gw/B22WyW2bEVwD5FYChMQT2mYLNEiSmwIWYp4mN036/Sb4F+C+wAFtg5HQCGh7koAXTW3Nzc2dmJA4DsqiurBtTWDR5YP3TwkJHDRxQxbNgwSNDn81FCeTTEW3CJsNOA6WMW7ECyi+nXVlWbumHpRjqZzGeybc0t0Y5OZs0mAAcA6QNMQbYMG3Y3QtETIHSv75f7LdBvgR3LAjunA4C2ACtBLE9IC52Ry951111PPfXUX1577a9++cvrr7/+d7/97R/+8H9FjBs3Dr5Dk6gfEqSkIc6ATnYCwNSYgnlB5chM7eSTTtpzr70qKyuhexxDEaT7y8rKEokEzg+DWJaFAtgJjNA/hX4LfBkssE1z3DkdgMtxkDjAE0QikYqKiv322+/iiy8OhcOlZaVVVVW1dXWDB3MG0IUhQ4aQ8oYlabtNFtwhlHFs2IEcF7OD2UtKSk46+eQjjjji4IMPpjzlZP7n4JSTTz7uuOPOOussTIGr4BQET4AP2CHm2D/Ifgv0W2BbLbDDOwDoCWw+bYJc2B8gQHwEtmQ/amtrDV23TAtC1FTV7/MVQU1HRwesB1GyXaAVbWm1ec87bg1TI9KH/XGHgwYNGjN69OGHH3bW2Wdffvnl3/zmNynBt7/9bUoMRaaImbJpwCkCjFwE9f3ot0C/BXYCC+wwDgA6hrwAggtYCWxpDTjkJHEB07W1tZHm3n/f/fbec690MrWhqXHEyGH+gDeVTno11dBz8UQUrFm16sjDj6D/pqYml/XKy8t9Pt+W+idGhk9JkgB08C60RZ8S58GjEbgVCARwJ4ChAgJwgL4LZEA9M4Jwe4AeAoEAXXFam0gkKHkKuxkqeQQei265pOS59FOE27lbMk63LU3q6wYoQpIsu6aqOpfLrFi5jHLYsME+vyedTkiSrahyZVl5S1PziGHDsylOCtLMkQFQ8ugi3J77y75ogf4x9VtgWyywYzgAYk/YzSGkdBq6hBkBCQoAN4HNpwz5QouwZDgc3meffY45+ui99967vLxk+vRpv//9/02d+v5tt916/fXXP/zQw+edd96NN9549dXfv+663xD/HnjggSTBIVn6ZENA2Svon/G0trZyvMxGgbKxsXH9+vUbNmxob2+nvqWlhcNn3Ak1oHsnzIVLxsbIAQzLdOiwO6B7F2xf0AHwLyTOU+iTR7igZx6Et8NE9Lk5mAigLf3gCfwB/2GHH/6Tn/yQzukTAyIYhqkoqqLIpmmsXbeazcH//f73jz/++E9+8pOxY8cyzc277a/pt0C/BXYCC+wYDgD+4jwWogQIUOdHmh6+A61tzbqRGzykfkBtjWxbGxrWRSKhgQNrz7/g3F/84me/+/0N/+/an5944vF77rVHKBSurx9QXV1p22Y0GoXQAcKWHsRICNghUOhy5MbPiBEjhg0bNmQI5wqDqa+rqyOXUlNTw5ED5A7Low+JA2bkziKTycCwgG1Hd7ialABPRnOAAHBppaWlnN/SLXeNwocOex0q9YWGASHkhoYmPZurqfr/7Jx5cJxXuea/tfdutdTaZW12vCY4mBjHTmKTxU5wSC5kMbkhQPgjkAvDFExRQFHF3KKgislUmBRJ1RTDVlCXbAxkIMkNgVTiLBUyWcme2HEs25Ita2l1t6Re1N3fcn/dx+nblmXFliVZSk7zcPx+5zvfOe95TvG857zHOLZ65QpNcWK1dBNRFMey8oahGqZu2cXevgNDQwOhoL+zqwPqsOFBRKwp+5eVkgHJwOJlYHEEAPhF5VBJwFaXTSt7c/QXoE22PcU/8lNWPR8iWxMK10ai4XBIUR1dN779rf92881f7us7cOjg/gO9e3t7937h8/+8Y8c1/f198fiIZVuhUJDOGZGNMwKJcTyg40uWLNm4ceP111//xS9+8eabb/7617/OPfMNN9xA+YUvfOGaa6659tprOWHQgJobb7zxS1/6EiWvKuDVlPhk1W/rVg4wl4iSS9rLLrvs8ssvv/LKK88+++yOjg6cDIVCx3OSoEIMCAaCIX/QV/pXMYIw2dfX5/N56huiDfVRn9+w3YJuaLqm2JbFOSmXS8fjcXJih3r7DNNobGyMxWLH61/WSwYkA4uXgUUTANiHIriIMnKPuLuuWxL3miP/es+xC8DmnWZ1tXVdXd1tS5pr66KGqjXG6grFfKy2pjCRZrPf1tIwcLivobHmUN++1ra2YCD00bM/+tF1684555yamtpIJJpKjh3bs6ghFJF4If9O44suughd3rx589q1ay/+xIWXbbv0kgsv2rjh3Iu2fOL8jZs+dvZHz1y1+qw1q1etOGPl8mVnrl75kTNXrz1rjcAnt10qcNnWbeDSS7YK/NMVV37igs1bLtj86SuuvP6z1/3LV27+ly9/5frr/vm66667+uqrt2/fvmXLlssvv5wDB2cRjgWwIRybVHq95ujoaDaXJap1L126YcPH1609O5fOpJJDQb8Zi9WaulbIZYv5nOtYhqZ6PEZ9XQyKOtpaP1H+Qfv+/fvpVnWVY0G9hGRAMrBoGDjaUe3ox4X7hNSi/oidruuWZVESA5A2PNa0KWaRy+XY/Kqq2tzcRIaGy89kKpXj7DCR2duzW9XsTDZlWRPNLfWK6nR0LqE323Eikcjq1avJrvCYSWeKVpH+pwSDEoocx8HAMfxBKAk55HlwsgyzPNyEKLkVGBlJJBIEshKwBXrf+7Er5wrh0Hu/6kHD4TCOgXA4RFKe6axYsYLtP3t/RmdOzLS6fbVdE61hLrlcrlAs4OG6tR9bs/qsWG0UrXdty3Xymu64ruU4eccpYkxM5IrF0qw1zQj5g2d0LWVcPkf6q7s9WZuFACf7lWwvGZAMzCkDU0jnnI43484ty0KGxsfHU6lUIpFAy5BatA8FnLLP5uZmRJlX6NeKFStJl/tMr8dj1sVqNMNuaKxtbmkwvbrHYyQSw/H4EOeDbCaDSC1ZsiTW2KBoqmpoDU2NqGcF9FYByXfUH63EoOQ0AAqFQibLfzJZfM3mkslEWfBLZU1NTV0dt8vRYDDkLf/KQcJjmKaAWX7mjfirqe8FgkOH+g8l6Ic7X7pJlP7/zNlsloFoTuDBB7b2lBXHJhlW0YIrqLAtR3G1QDAYDgZp4zE0y8pbxYJp6mSB/AGPP2Bg4KZheDJj2aGBQX/AH6uvx2nOGXwiIRmQDHzAGFi4AcB13WquETuA6qFlK1euPO+88y699NJLLr6kuk21jeBms+n9B/b39LybzY67iu04hdz4iKlkw56iVhhprHH9RtpUxtobQy31AY+nkM2OpMcSju2wW+/t5UogTjyo7rPaFq84BOAPjpnlH7l4P6oZ8JOTAQHkNhAo1fj94XCYGhGuCBi2bTHBCugZ2yQcoce6oesGcYvNO7PACAVDIb4Pl/4kzCQSCY4+6L5t20QC1D8Q4I6XPqYAc4G0aE2UdxxorGJRVbXR1Ihh8t2Y66T8ZrY+4tRH7PqIWx/WnNywYec0paDrTkfHEtNrDgzF+wcGXdehhxkDusCMP5cfzhIDshvJwFEMLLgAQDZDZDZQt6amJpwdGBhAq9LpNFK4Y8eOhx9++MUXXoVl8hMAABAASURBVLz11lu/+c1v3vI/b3n++efvvffez33uc2xU0WL0rv9wf119bCQ1gmbW19eFw8FsjnROwlFydVGj3j/RWWc3BFJeqzeiD2JE9URDIOc3xiIRJRL2m7oa8AYikag3ELAsG9kDuAHcqp9t221tbQhxS0uLlS+QYnKKVmokoWtaPD6ye9eu115/PZtOT2RzjlVQHbsmFFq+7Izuzg76x51Szt0u8pWqEucc17WBbReamupXr165Zs0qTXOJBZS5XObdve/s3btndDQZ8HtR/4aGBhJinISY8tDQUCQS4UyAa3hYDUdVBBTFSWfS6D6nCHw+1N8Xi9UoSjocKjZG8zXmcK0ZD1oHg1Z/zEh01jlBI9ncZITD2th4QtNMRdFqIjHXUYM+v9/jzWUyjm0but7d1bVt69avfuXm237yv+696+577rzrhz/84U033bRmzZpcLkd8wkP8QfdZPkqAQY2EZEAysEAY0BaIHxU3DMNAOxALatjtEg/YWyN5GzduvO2222655RYS9Dsf30nyB4OECUkhJJjbys985jOU5Me9Ph+yyOcIn1bWQE2xMMpl3nSzXmXMq6S8SqIMjDFTSetqVlMnaFMS5PLHmqu4atmaqjielu3bv48gRMIdt7OZLJt9QzcCwdIOnawSYk2KaeWKFfhJXqWzq72rq7O7u0ugo6Ozri7GQWHSgI7jZrOZ3t7ed/bsmfTqRB6JDcxFgNlhqIplGlY4YAc8EwFvxlQTHiXlc1OeMjM+g1RYVtEmuB1RXE1xPYqL4HvwgRVxHZcosuHccy//1Ke2X375VVdfff755yP6S5ctu/DCC6+66qpvfetbt99++7p16zo7OzVNMwwDJ1lQgCEhGZAMLBwGFlwAQNPZzyIWaAdyg7Fs2bKtW7f+4Ac/QDRHR0dJenR3d7e2ttKSLS2bTXb6GzZsuO6662i2du1aDhDpdEZQzOeKwg5eQFGxtYKiIm2UFUxoakF3Hd1RdFeBEY3SLXWgEgMQPNcRv1LV+/2X7T9uF4sW/le31Q2DJBSVxIC2JUtaWlqJanV1nFXqMQRqamqYlGUVCYGVbx3HtW0rk8kmEkluicszUihBpc37Gy7RR1fKkys1Vp1AQPd4HdNjuUpe1YtluS+UmYGcCU0pKHDlQoahOD7F9emagQ98SwAj//ZP5d8F55/f3NTkum5qdJSQHAqFYrEYweDiiy8mHhOzmRchkK8kJAOSgQXIAP8LX1hesXEW8ofAWZaFXH7kIx9BUFatWpVIJHp6epBIVAbdZ++P4tAeg8YrVqxYvXr1BRdcsGLlylAoiCo5rlOZG1JenqrjurarFAUU1ToCxUH0SwHAUUTJo+Zq5U8qfZyQYZqGoev4Qw9+v980Tcu2OAqYhmlbNrENoSRVhXsoI3Asy7YdAb7kQ9cpKX5lME1Ta2uJFLWRSOkWgXrHKc2LltgnC7wqUeEqXo9hmJqiOq5bBEd4OJqQ0ktHdZ1ScHRdlThEiILkTUj7xo3EYw4rpcBGyCoUXBe3bWbHHG3b3r59+6ZNm5YuLf0lIpzEW4AhIRmQDCwcBrSF40rFExEASHOjno2Njew3iQFkdZB7Hg3DYItNALAsi0/Y/qfTaUQnmUwuX74c0bnyyiup5JWAquqqhvgIHDVfNAvYCpLrarZr2KUSowxVI//vuLqqAXbuQHQ4fRmL1gX9AcV2CEuu7Zi6HgoE21pagn6vrrqGqpFGt/LcCrhew/SZHhXnnNJOG88cy2bzrypKOBhKxrmRHneKNp+I3AsTHBmJ64qKLlMSZKb3ZNq3DrEHJ0UbQU2l1FQoUzUFRxSiBXkwAk48Hg8GQ2euXvPJSy/b9PFzWxqbihP5+Eh8aGjQcp0AF9ThEOsFnxBF5Gtvbz+z/CNmEA9YL96S0BMjylIyIBmYXwamHk2buvr01SIWKAhihL4j6yQckBGyOmgK0s9bKtkCIzT4SDMuQrFRFlJDRI6urq41q9cgOm5J1VWlJK00PAKNR1t1HF1AcY33oKluSex0VwEoX6l0Fa1ceeTjE/uDI0vJVRPdphsFT7q7SPF38zXeUgpgM03d0A3T8HhM/gOooV40+Oxnr9uyZUtbW6tuGNRw4UFWfevWbdiO61KqSDR/zAiaqzm2YlmQxIBc8xquYjgKA5WguoYKUYriuq5TihKlA5OquuTiztu0CTcamxqJbclkYjQ1WrRtYgkbf5aApcEGGCwfd/g0JngTj11OGcWix+OZkb/yI8mAZGBOGFhwAQDhYKsI0HqyPeQQAMkfdv0oCwqCwvIqmUzSEomhksYAo7+/n08QzWi0VrClav85QSReUcpXmg5JbS42PY5SgiIeFQ25r0ApJ4VEJ9OUyGflrbBr6iJ1DXWNzQ1tbS1t7a2xxlioJmJ4T1r4sjnxnxx/xuMjXH5w0EFnGQUxpQSVoU/KYI7w4NhG0TJc26s4HlWh9Lmux3V9JTYgxMFhDRKUUlJoghuColNsa2sj7UNan9iaTCbGx9OBYDAajXIyg3bDMFgCvfzDSCaTBD+uZEgZkcAiZhOeaSZcxXkgbFlKBiQDp4sB/kd+uoaeelzEHQ1hL4y+oyycACgRi0AgQD2VuVwOo7m5GTXZu3fvwMAAmWhxDiBOII7sN5tbmkXvbJXJYChuaYfrKoateIpqwFJCthMFjh11nKjihFw3ZLuBouorapqtKg6HBErNEZ1MWTIQ9ThGiY3AYYCSM9Foe3vH8pUrcINEFsJH9OJVNcQntsV07aJlFS2ujYt0Qr1olh4fD4aCZ689+9JLt23efMFZZ51F+osp89ZlX66UtufYJwhHcxy11Jap2Zpisd93fZbly1t+y6mBCtuNlAEPIVsJ2KrfJTqqGu1LMUCxPB4jGAnjgK5phwcOk5FzNbWrs5MJIPcsCicAwjDzBRjcVzNxpJ9zAzHbcRzWjiBBe2xcYYlhrwJqJOaOAdmzZGBKBhZcAEDcSXfgK3teJG/lypVsJJESoRrU0wDtQHGQEl5xJiA2xONxlHf9+vX79+/XFPXssz6iOhrympvIpccnQjUN3mCsd2DswOB41onktQbLaLHUJcVis6a05nORQ/3FoYy5P5EbyuXdoNfSlOHUUGp01PR5bZeRj4DRqyHEi3FtxQau7kZj0Vy29Ffg0XNG5zPaG4bm9ZpOSUzRUwUhVks5dnL4JbgkdBzXsR1AY/qkBGR+HKf09/cTySSyyzRRVcPQuQB3HZdmruuQaxoeHnbLGSE+mQTNLaWw6mqiMFkfq8+kx2ob6ryhgOPRB5Ojuj/aP5DLFWq8gaWJ0YittBedxqGE4Xoa3+4Zyiu+ZKbQ2384EPR5/Z7DB3syE9n29s6u7q7RZKo2EuXshVeZiRyy7qoK7rEK2CTiAEYkEmGBsGlGtMZVDNax4i1TYCkF8JxHSgnJgGRgPhnQ5nOwExkLjUA+kAkUAckg6cFtKjoivqUSA2WkFGDvT8aZr8QrZIivCA8ojs8X8PuCXn8wm52wHC0aa/SHYwMjEwcOT/QcyOztGR8adhMjaqEQDgSb87bpCdX6IrUWItvc2NbeUddQj9SKUY4t8ZBKMSg24HEGULlyrUAt79Lfrxcx1jS+VXcAV1wzFK08GX6vzxxNp/K2pZiegm14/A2vvXmwp3dcMxsTSTU5SnwKj6YdzRNJjOVNf5hsz0Qhn8ulzWAwGA6nsxldIwLVcV7hzGKaRiaXQ/2rh6vYHAsIAIRqloMF4lHYOA9opqoqhgCPEpIBycD8M7DgAgDajdwjWwgECkIqmfwJInI8pSDtww43Go2yNSZUoDJ8xWUAPfAJe2vXdfr6DyXHEsFI0PT4FM3n88fqG7q7u8+KRFosx5+Z0IqWpqg6m1ZuZQcHBgeGhyzXAgPDh1kS+hTAngTqKzWaqmGXki3kWzRHKeWRSLwAhV0/r2YL7nG2/FP2bzu2x+MhQOq6mrfye/eV/n9q6WwumcrXN3ZHom0kgkbHOMEE8kUjlcrnC2pdrGliovQ3fDTTYILBcKC9o43g0dd3YDyXCdVEJvL5XCFver3pTJpBy5cr/HkUTNNkd88qsJqpVIplxW0qRSO1/CMqAOI9zQANxFtZSgYkA/PDQEmz5mekExwFqUIUkAPaI/0jIyMoCNKMOgAqBbAFaEl4YONPJKAxn2cymUOHDrHrxMhmsplMtq+3j1QJH04ULZ8/atnG4MjYnn0HDw+PxUfS+YLi8UcVhX24mkqm3nzzTfpBoOgTwUIB+XBWMa+cc1Aw9NL1LBOBkH379g0MDI2mMo/t/PvIWK6prTudd/7+7D8ef/L/79nTG4rUH+g7TNLsrTd3PXD/v9999907dz7KTp0UVrFYPHCwD36gghMAj7rHJN81pfrThiXzeDysHYsIWA5WClZ5BVg7SmoEsCUkA5KB+WdgXsXoRKZHvhhRoCUl2/89e/aQ3+dWAMkQQMgwaCDAxp9sD3t/pI29JI/pdJpP0G56cBxlcHB41653RlPjqm5EwlHV9ExYtubx1jY2xZqbow2NqunNTEwkUqPEgJ6e/f/4xysvvfQSmkWfXEKIUUSJfr0vdEUVUMn0KyWbwAJEDwyB4ShaBWrVj1ezDvJgum6mUqlQKDQ+nnn9tTeLtqsZno+t/3i+YI+lM60dnZsv2rpt+xWO5g1FY2csW9W6pGv7p6688YtfDAYCjz72SH//gbffflPX1URiuLe3lxCLsrMiTMrn91W5f5Sp6zrxZnR0lHVhdG7mWY5CocC3LJ/F+cp1fT6fmC9risH3lBKSAcnALDIwfVcLLgAgHAgEWoCskzfo6el5/fXXDx48SCWoTAZbgJYkqG3bpnFLSwuq/fTTT7/99tuIC1rDK7SGwwFRwTDNomPv3LlzT89eMhi61wMGE/GXXnvloYcfXr58BZtWNAvQJztcNq1EoMqIkwxGp4aWlPMMBhWjI6nvOzR6DaW09Hq92COJEW6SGxsbS3+lx+8bz6QPDw7EEyONba119fVvvf3O27vfffGFl15++dWGhqaGWH00QsonVN8Q9Qe87Pd3v7P75ZdfnshNwK2m6azR8RxgOAh86623du/ejbcsRCgUwqCekkWh5FvmQomHwsCWkAxIBuaNgYUYAFBzTdOQY/SF/eNjjz72+OOPoxfgWF76+vpojNyzJ+VC+Nlnn/39738/MTFBS1TGMAzUf8+e3Qd693GdmRgZPnDwQCIR37N3984nd955z+9efPWlvsGD2WIukx0fTSZGRoZtu8iNAr1R0u3xhAlneCWAPSXwYU7BoPSPD8LAPhZQgbxCBXMhk8MEFcUJh4PDw4M10XA2n23vak+Mxf/x6gvhWGRJZ8eqNWs2nn+eoXvi8cTQ0NDg4GA2mw76A4h+Npff+fjjzz7/PFcatuJySELTjx1R1OASa/fcc8/t3bu3FH1ZCcMgPLOmRCOOAjQAOA8wxFeylAxIBuaTgQUXAFBzBAJRYM/IjpWUMT3tAAAQAElEQVTr3BdefOHJJ588Him0JFnPhh2l27Vr169+9StiwNq1a9l+spdHaAYGBt7Z886B/QdSo6ODQ0PBYGD5yhWbNp33sfXnnLf5gou2XfLpa66+9JOXfe973/vXf/3vd95553PPP8e3KCaqhDPHGxcnecXolEfBnXNKGRTfGFSUGNMADpkFMZWtd01NDSwVinnHKa5de9Yf/vCHHTt2kC5bt/6c/oHDluPs2vP2pvPPe+rpZ1xutDW9tWWJaXpIHNGG0ioWd+3e9dJLL6Yz6WKxOJ4edx33eH8LKJFIkC969dVXX3nlFWwWgk9SqRRxCOqwmcU0bstXs8OA7EUyMC0Dc65W044+xUsyOUuXLiVHwfaTrStXAsjcgw8++KMf/QjBYjuJNAcCAVIQ1KMjbCpJ1KBrf/vb32688UYOBE1NTZR0jd7RjK5cR33hhZcee+Sxpvqm5WesyueL/QODtu2GorV5y+EWWPV4O7qWPvXU00ND8Yb6Jg4fDE3+miEAXQlgV0ANEnYE6OV7oF5xtSNQoFdT3RJK9YrilqGopb8jdKQUL96vLEmt49q2g+SKtiq9ui7TF49O1c+t+jU0NBDPIIFt+MjISF1d3RNPPP7QX/4ylhw/Z936u35397vv9vQfGli2dDn7+tpY7N/u/rfzt5z37w8+eNdd9zzyyKOKYnR3LfN4fJFQuKmhsa627r77//yVL3/5gQceMDW9/3C/qmoKEaYMSGNkFojl+NnPfnbHHXeQAmppaeECAB941dbWtmbNGhp0dnbiNi4LAjF4lJAMSAbmmQFtnsc7keHYtKIRbBVRB/ataAvywd78t7/97UMPPcSVABtJGiArhIfNmze/8cYb3/nOd37605/u378flUHs0H1SDrQBGOgLPbAJJWXh8Zi6buCG5ZT+EZuCVcwXC4CxQsEQYzE6yQ36wQFG51saHwsaUEl7ynmGqqkiDAgfph/dtm1IALZt4y1Te+P1NwiWqVQyPT6ey+bI7fCW2xE2+JSGaRJln3rqqXvvueeZZ55JjCRt2zVNX3NTE+kgPl975lmJRPK//Nevw3nA6xsYOMy9AvTSCYctbl8effRRQvU999wDdXBI1CEIhUKhQqGAA11dXeTWYBt/pvdcvpUMSAbmmoEFFwBQCrbwS5YsoUTgUA10hMTxqlWrUHwueL///e9//vOfv/baa7dv337xxRcvW7aMjT83k+3t7R0dHYlE4p133kGPTNNEkgAGinPw4EEuElClhx/6ywN//vP/++N9//fe3xNUwF3lH3ehmlkKDIzIV2xmiRxCpHBAoHox8A05Q8gosV2xRX/vDwQaVLefdZutt+tyolCEA5QVvDdW6U/mwiwABjwEg8F8rnCo91BdtJY73tbm5iWtrYRMUN/U2NDUuP7cDZwDRM/pdDYSjvoMn+ZqA4PDpe4UZWBwMDOR62rvIBJfePFFt5R//6P8Y8sPbi//oJFQyimKkhMbDlBu3bqVYMCKcHSDUjqEQIAhIRmQDMw/AwsuACBSaP2ZZ55JAECzSO8gFq2trYODg+xMDxw4gKaQ3CehQfZjbGyMbAM2ZwJAG1SbxkQCFBzRoQcMIgfMEhh+85vfPPLII+x/OUmQxAD333//n8u/N998E83ic4SJjT8hB4P++XBKCImcRrzmjtmK9OPhlL5VV9IGEihhA65wGP2lfPXVV1FwUjTQ8lLVj2wbNy46RHg9iDVnKdJiA4cHg4EAK0JyDE44RdEJHXKt8vdnnnniiSf++te/QibhmQ5ZIDgn88PCsSiNjY3EY76qr68nVFPJI1FBOAmNQNiylAxIBuaZgbmTqRlOBMlg+09i59xzz2VTj8pTgwwJUUZZkGnuCRARdB9ZIclQW1tb2tjm89hsM2lAqEDyEDGUjjZIDCEBAUIKeYsOihBCJzzylr3z4cOHUSVEjSEA9QzKI68qOJEpQagAjcW/xoMxCezbK5j06niPqqbySkP7VVXX+LP0iOeAmVLytgJmLYDnvIITDGbEBJkywCZj9otf/OLXv/415W233cYO/sc//vFPfvITDNL3ydEUURMpL+YLfIWIG5rOh5ZtERVUVUP6GXdZV3csWhsJhmCMR+hlIIYjigs+u7u7qSFss5RXXHEFxzXWjmY0BrzCPYBRcV4akgHJwCwwcGJdIFYn1nC+WpGrQXFQCgLA+vXrV69ejawPDw+L7Se6xlvkG3dQGTb7PT09CL3YmXJvjL7QHpHiExScesQFIQPiFW+nBCEEoE1sURkCMBafM9DiBdMBzAgqONMA4ihizYxI1guwZ+cShXL37t3vvvvuvn370G7a0JhIGQpxMxKqi8Xi8TiV4VAYPjkBtLa20NWuXbs4ohGJRaRkIIIESf+BgQEaEwmgkRMGEfqGG2645pprOKLxVQW4gfoDDAnJgGRg/hlYcAGAzSn6jqCsWLFix44dV1111bp169gtolDIB7LCbhTphykeERf29diACME2n30retTb20tNBUg5PSBP6BFhAJGqBsPxSM8IFs2QJ2waI52ElkonMzAcdZb/FaBqH5jUpEdqBKrrKzbCzXSYGgaALrI0AD4F2tra2Kdzrw4DAFpgEnXOjI2nR8c4lkFIPJngonh4ZIT8EfyTqYO0Coi7sVhMlDU1NThDeCCEX3/99Z/+9KePjaY0qKDipzQkA5KBeWNgwQUAFBwVJgygFxs2bNiyZcuaNWvQI0SKGvQCsQYQRBhAsxA1hIk8D9e/7PrZtLLBpzEyhIhTT2/UsJ9FpzDYC9PbsaBPxJHeUC4xENECMNDiBdNhvuTroUIIOjOCEOglEApQT54NrYc6mKREtWkGdbAEk0QLPhcnAA4EPFLJPQ3BgyMXQ9AhnfAVRwdWAZv4TVfwdsYZZ3z7298mrYQPhPCVK1fScwVEF9qAioEtMRsMyD4kAyfEwIILAKgwQOiRCcRo+fLlX/3qV++7776NGzcSCdifEiF4i2SgSkgYekR79B3VBti8ouQt+oVgoYC0ORZ0AkM0BqgVCsWI2EIK0TU+p82xH4oawgmp7aVLl5YeDV03zWA4nEwkNEOvwNB1UHnEKD1TVYUq86iX+DYJKpl/TSULn8lmcrksSZjXXnuNQw/5FiQYhycBEkq+aRoGc4EigCHAfKkHGNTAEpOlH0qUHUIwCKJIPKzSgG9po2kaFMEt8ZKSgEoswU8MAic5NAzcoIbYfNNNN/385z/ftm1bX18flRwv6A2DQQXEcAyEwScSkgHJwDwzsOACQPX80RrUAclAVm699VbuKm+//fY77rjj/xz9Q2WAqMOoQNRQVmomGbwC1ZWVR4zpcdddd/3ud7/7xje+gThyb8EdA5fVtuIiiFUoFgonjaJlAeYOqtkQts/nJxGPHY+PsA3/7ne/+6c//YkA+b9Px4/r4l/+8pfcJINfHf374x//+LWvfY34VCj/OBMwHXSfEucFKnbFEPWylAxIBuaHgYUbAJB+NoZIBgrL9rOurq6+vp4TAMloEgvcEHA4ECUGwAYYFfAoUKmZZPD2eDW8mh74w+UEm2Wk3+fzkfvmtMFtZ/WyzcUdgG1ZgWDQY3pI0UAOWXjcgBmyKxVMbzCv6gY8ClQqecSmFMAWEI+U4lGU1Y/YAkQmDlJExHg8jp8cHVhEjhqEgWp+sFllgCEhGZAMzD8DCzcAwIXYGCIcyAc6i6aQFCJRwytigwBtBHgUxqmUlU4wwDRd4QPRCMdQN7IfqD8pETInPFbB9CDVJwnTMACyCBhlEtKZNFkjfyBAPdkwxsXPkZERgsEJwjDo4D/b8ihQqeIRm1IAW0A8UopHSjxkdCYOmDv6LsAj0k+aCCoIivjJItKSt1CK5xKSAcnAQmBg4QYAlAK9AKgJWQQeERGkhMQ0178kpsk4czIgFy/AozCOLZHpY8G2nc8nfVV5xADHdlWpQfRRNGISQObY56LCOFksWicI27KB5TqA3NEkKJpaATpbgd8fIBZy3Q0nSDAREZe4ioCcScArICbOZIFogIJjUE/NJEAImFTJI43piq/EtxhTgpYVdHd3d3Z2slKO4xCzCQ+KonCFQCkhGZAMzBkDJ9fxwg0AYh5IKrBtG71D7HLlH1vL8p85DCDsmZUz/hzF5/Y1mUwiaggxgogQY7hH/k0Ip2y40/xsxynBdmzbsSz7BKGpqm4YKHIwEIAQNtqHDh3CmYUGdH9wcBDfCFeQzAoSPIgilGJlZSkZkAycdgYWegCAIDa/CCvawe6S/SlAaikBBsCYMWb8OWcRMu9cSCxbtowsBycSRJkghJ9VeP8UEPmYk0Imm4GQutpahm5vb+cqgrMI5YkAP6dvRgMg2ghDlJNqqJwSopkoYYP0FL5xOwI5BEhOcvBDyZpKSAYkAwuBgUUQANhEs520LItDAMmEBQL2tnjCEmYyGRIyJVGuq2tqagoGQxWggNMgEGATfwQkdo5BdVALVN42NjYRe+Akm8uRfcIHzgFssU8E6C/NRIlxLHgFqKcE1YawRcmrKcHbCnp6erChhVWjMctHFCcMUEKaxBwxILuVDJwUA4sgADAfdASQbAE8kk9AAbHJJwBqxCNtMASo5FGAlsKgxK5GtR7xIa/4EGAA2h8PbP8RNYADHE0QYr4qNdYNcjQCrqpPA9HG0E1gGp5J8Ji+CnTTUwXDcmxvwK/qGg4TDPCToY8H2lSAezSDPUog6jEEeGQ6gEfaiMbINzavAK8oYYwReQswBEQlH1ZA9t8wDNqLZpTYApU20pAMSAZOLwOLIwCcXo7k6JIByYBk4APJgAwAH6BllVORDEgGJAMnw4AMACfDlmwrGZAMSAY+QAzIAHCaF9Mp/4uh05en2UU5vGRAMrDgGZiZgzIAzIw3+ZVkQDIgGVj0DMgAsOiXUE5AMiAZkAzMjAEZAGbGm/xKMrCQGJC+SAZmxIAMADOiTX4kGZAMSAYWPwMyACz+NZQzkAxIBiQDM2JABoAZ0bawPpLeSAYkA5KBmTAgA8BMWJPfSAYkA5KBDwADMgB8ABZRTkEyIBn4sDJwavOWAeDU+JNfSwYkA5KBRcuADACLdumk45IByYBk4NQYkAHg1PiTX0sGTicDcmzJwCkxIAPAKdEnP5YMSAYkA4uXARkAFu/aSc8lA5IBycApMSADwCnRd3o/lqNLBiQDkoFTYUAGgFNhT34rGZAMSAYWMQMyACzixZOuSwYkAx9WBmZn3jIAzA6PshfJgGRAMrDoGJABYNEtmXRYMiAZkAzMDgMyAMwOj7IXycB8MiDHkgzMCgMyAMwKjbITyYBkQDKw+BiQAWDxrZn0WDIgGZAMzAoDMgDMCo3z24kcTTIgGZAMzAYDMgDMBouyD8mAZEAysAgZkAFgES6adFkyIBn4sDIwu/OWAWB2+ZS9SQYkA5KBRcOADACLZqmko5IByYBkYHYZkAFgdvmUvUkG5pIB2bdkYFYZkAFgVumUnUkGJAOSgcXD6DcD4QAAAMtJREFUgAwAi2etpKeSAcmAZGBWGZABYFbpnNvOZO+SAcmAZGA2GZABYDbZlH1JBiQDkoFFxIAMAItosaSrkgHJwIeVgbmZtwwAc8Or7FUyIBmQDCx4BmQAWPBLJB2UDEgGJANzw4AMAHPDq+xVMjCbDMi+JANzwoAMAHNCq+xUMiAZkAwsfAZkAFj4ayQ9lAxIBiQDc8KADABzQuvsdip7kwxIBiQDc8GADABzwarsUzIgGZAMLAIGZABYBIskXZQMSAY+rAzM7bz/AwAA//9gXd9NAAAABklEQVQDAFzCQU+qk7sfAAAAAElFTkSuQmCC;" vertex="1" parent="1">
          <mxGeometry x="189.99999999999997" y="235" width="88.85" height="80" as="geometry" />
        </mxCell>
        <mxCell id="GkFOlkLOOi3CAwtS6vA_-8" value="Amazon IoT Core" style="sketch=0;outlineConnect=0;fontColor=#232F3E;gradientColor=none;strokeColor=#ffffff;fillColor=#232F3E;dashed=0;verticalLabelPosition=middle;verticalAlign=bottom;align=center;html=1;whiteSpace=wrap;fontSize=10;fontStyle=1;spacing=3;shape=mxgraph.aws4.productIcon;prIcon=mxgraph.aws4.iot_core;" vertex="1" parent="1">
          <mxGeometry x="160" y="80" width="80" height="110" as="geometry" />
        </mxCell>
        <mxCell id="GkFOlkLOOi3CAwtS6vA_-9" style="edgeStyle=orthogonalEdgeStyle;rounded=0;orthogonalLoop=1;jettySize=auto;html=1;exitX=1;exitY=0.364;exitDx=0;exitDy=0;exitPerimeter=0;" edge="1" parent="1" source="GkFOlkLOOi3CAwtS6vA_-8">
          <mxGeometry relative="1" as="geometry">
            <mxPoint x="250" y="120" as="sourcePoint" />
            <mxPoint x="436" y="120" as="targetPoint" />
            <Array as="points" />
          </mxGeometry>
        </mxCell>
        <mxCell id="GkFOlkLOOi3CAwtS6vA_-10" value="AWS Architecture Diagram" style="text;whiteSpace=wrap;fontSize=14;fontColor=light-dark(#000000,#FFFF00);" vertex="1" parent="1">
          <mxGeometry x="160" y="-140" width="180" height="30" as="geometry" />
        </mxCell>
        <mxCell id="GkFOlkLOOi3CAwtS6vA_-25" style="edgeStyle=none;rounded=0;orthogonalLoop=1;jettySize=auto;html=1;exitX=1;exitY=0.5;exitDx=0;exitDy=0;exitPerimeter=0;" edge="1" parent="1" source="GkFOlkLOOi3CAwtS6vA_-11" target="GkFOlkLOOi3CAwtS6vA_-23">
          <mxGeometry relative="1" as="geometry" />
        </mxCell>
        <mxCell id="GkFOlkLOOi3CAwtS6vA_-11" value="" style="outlineConnect=0;dashed=0;verticalLabelPosition=bottom;verticalAlign=top;align=center;html=1;shape=mxgraph.aws3.lambda_function;fillColor=#F58534;gradientColor=none;" vertex="1" parent="1">
          <mxGeometry x="436" y="80" width="80" height="80" as="geometry" />
        </mxCell>
        <mxCell id="GkFOlkLOOi3CAwtS6vA_-20" style="edgeStyle=none;rounded=0;orthogonalLoop=1;jettySize=auto;html=1;exitX=0;exitY=0.5;exitDx=0;exitDy=0;exitPerimeter=0;entryX=1;entryY=0.5;entryDx=0;entryDy=0;" edge="1" parent="1" source="GkFOlkLOOi3CAwtS6vA_-13" target="GkFOlkLOOi3CAwtS6vA_-4">
          <mxGeometry relative="1" as="geometry" />
        </mxCell>
        <mxCell id="GkFOlkLOOi3CAwtS6vA_-42" style="edgeStyle=none;rounded=0;orthogonalLoop=1;jettySize=auto;html=1;exitX=1;exitY=0.5;exitDx=0;exitDy=0;exitPerimeter=0;" edge="1" parent="1" source="GkFOlkLOOi3CAwtS6vA_-13">
          <mxGeometry relative="1" as="geometry">
            <mxPoint x="749.5" y="276" as="sourcePoint" />
            <mxPoint x="885" y="277" as="targetPoint" />
          </mxGeometry>
        </mxCell>
        <mxCell id="GkFOlkLOOi3CAwtS6vA_-13" value="" style="sketch=0;points=[[0,0,0],[0.25,0,0],[0.5,0,0],[0.75,0,0],[1,0,0],[0,1,0],[0.25,1,0],[0.5,1,0],[0.75,1,0],[1,1,0],[0,0.25,0],[0,0.5,0],[0,0.75,0],[1,0.25,0],[1,0.5,0],[1,0.75,0]];outlineConnect=0;fontColor=#232F3E;fillColor=#E7157B;strokeColor=#ffffff;dashed=0;verticalLabelPosition=bottom;verticalAlign=top;align=center;html=1;fontSize=12;fontStyle=0;aspect=fixed;shape=mxgraph.aws4.resourceIcon;resIcon=mxgraph.aws4.sns;" vertex="1" parent="1">
          <mxGeometry x="636.5" y="237" width="78" height="78" as="geometry" />
        </mxCell>
        <mxCell id="GkFOlkLOOi3CAwtS6vA_-19" value="Amazon SNS Aleart" style="text;whiteSpace=wrap;" vertex="1" parent="1">
          <mxGeometry x="620" y="314" width="111" height="30" as="geometry" />
        </mxCell>
        <mxCell id="GkFOlkLOOi3CAwtS6vA_-21" value="Refill Aleart (Owner)" style="text;whiteSpace=wrap;" vertex="1" parent="1">
          <mxGeometry x="406" y="253" width="180" height="25" as="geometry" />
        </mxCell>
        <mxCell id="GkFOlkLOOi3CAwtS6vA_-34" style="edgeStyle=none;rounded=0;orthogonalLoop=1;jettySize=auto;html=1;exitX=1;exitY=0.5;exitDx=0;exitDy=0;exitPerimeter=0;" edge="1" parent="1" source="GkFOlkLOOi3CAwtS6vA_-23" target="GkFOlkLOOi3CAwtS6vA_-35">
          <mxGeometry relative="1" as="geometry">
            <mxPoint x="790" y="119" as="targetPoint" />
          </mxGeometry>
        </mxCell>
        <mxCell id="GkFOlkLOOi3CAwtS6vA_-23" value="" style="sketch=0;points=[[0,0,0],[0.25,0,0],[0.5,0,0],[0.75,0,0],[1,0,0],[0,1,0],[0.25,1,0],[0.5,1,0],[0.75,1,0],[1,1,0],[0,0.25,0],[0,0.5,0],[0,0.75,0],[1,0.25,0],[1,0.5,0],[1,0.75,0]];outlineConnect=0;fontColor=#232F3E;fillColor=#C925D1;strokeColor=#ffffff;dashed=0;verticalLabelPosition=bottom;verticalAlign=top;align=center;html=1;fontSize=12;fontStyle=0;aspect=fixed;shape=mxgraph.aws4.resourceIcon;resIcon=mxgraph.aws4.dynamodb;" vertex="1" parent="1">
          <mxGeometry x="640" y="80" width="78" height="78" as="geometry" />
        </mxCell>
        <mxCell id="GkFOlkLOOi3CAwtS6vA_-30" value="Amazon DynamoDB&#xa;(Food Logs, Donations)&#xa;" style="text;whiteSpace=wrap;" vertex="1" parent="1">
          <mxGeometry x="640" y="154.5" width="110" height="41" as="geometry" />
        </mxCell>
        <mxCell id="GkFOlkLOOi3CAwtS6vA_-33" value="Lambda (Process Data)" style="text;whiteSpace=wrap;" vertex="1" parent="1">
          <mxGeometry x="440" y="158" width="83.5" height="50" as="geometry" />
        </mxCell>
        <mxCell id="GkFOlkLOOi3CAwtS6vA_-35" value="" style="outlineConnect=0;dashed=0;verticalLabelPosition=bottom;verticalAlign=top;align=center;html=1;shape=mxgraph.aws3.ses;fillColor=#D9A741;gradientColor=none;" vertex="1" parent="1">
          <mxGeometry x="1003.5" y="80" width="79.5" height="80" as="geometry" />
        </mxCell>
        <mxCell id="GkFOlkLOOi3CAwtS6vA_-36" value="  Amozan SES&#xa;(Email Reports)" style="text;whiteSpace=wrap;" vertex="1" parent="1">
          <mxGeometry x="1006" y="158" width="94" height="50" as="geometry" />
        </mxCell>
        <mxCell id="GkFOlkLOOi3CAwtS6vA_-39" value="" style="outlineConnect=0;dashed=0;verticalLabelPosition=bottom;verticalAlign=top;align=center;html=1;shape=mxgraph.aws3.cloudfront;fillColor=#F58536;gradientColor=none;" vertex="1" parent="1">
          <mxGeometry x="1016.5" y="235" width="66.5" height="73" as="geometry" />
        </mxCell>
        <mxCell id="GkFOlkLOOi3CAwtS6vA_-41" value="" style="outlineConnect=0;dashed=0;verticalLabelPosition=bottom;verticalAlign=top;align=center;html=1;shape=mxgraph.aws3.api_gateway;fillColor=#D9A741;gradientColor=none;" vertex="1" parent="1">
          <mxGeometry x="641.5" y="-60" width="76.5" height="93" as="geometry" />
        </mxCell>
        <mxCell id="GkFOlkLOOi3CAwtS6vA_-43" value="Cloud Front" style="text;whiteSpace=wrap;" vertex="1" parent="1">
          <mxGeometry x="1016.5" y="310" width="111" height="30" as="geometry" />
        </mxCell>
        <mxCell id="GkFOlkLOOi3CAwtS6vA_-46" value="Donation Request (Donors)" style="text;whiteSpace=wrap;" vertex="1" parent="1">
          <mxGeometry x="720" y="255" width="180" height="20" as="geometry" />
        </mxCell>
        <mxCell id="GkFOlkLOOi3CAwtS6vA_-49" value="Amazon S3" style="sketch=0;outlineConnect=0;fontColor=#232F3E;gradientColor=none;strokeColor=#ffffff;fillColor=#232F3E;dashed=0;verticalLabelPosition=middle;verticalAlign=bottom;align=center;html=1;whiteSpace=wrap;fontSize=10;fontStyle=1;spacing=3;shape=mxgraph.aws4.productIcon;prIcon=mxgraph.aws4.s3;" vertex="1" parent="1">
          <mxGeometry x="882.5" y="235" width="80" height="105" as="geometry" />
        </mxCell>
        <mxCell id="GkFOlkLOOi3CAwtS6vA_-51" value="(Web Deshboard)" style="text;whiteSpace=wrap;" vertex="1" parent="1">
          <mxGeometry x="1000.5" y="323" width="111" height="30" as="geometry" />
        </mxCell>
      </root>
    </mxGraphModel>
  </diagram>
</mxfile>
